<svg xmlns="http://www.w3.org/2000/svg" xmlns:xlink="http://www.w3.org/1999/xlink" width="468.85" height="496.716" viewBox="0 0 468.85 496.716">
  <defs>
    <linearGradient id="linear-gradient" x1="-1.604" y1="6.792" x2="-1.604" y2="6.3" gradientUnits="objectBoundingBox">
      <stop offset="0.21" stop-color="#fff" stop-opacity="0"/>
      <stop offset="1" stop-color="#fff" stop-opacity="0.2"/>
    </linearGradient>
    <linearGradient id="linear-gradient-2" x1="0.175" y1="1.691" x2="0.175" y2="2.041" gradientUnits="objectBoundingBox">
      <stop offset="0" stop-color="#e9eaf2" stop-opacity="0.8"/>
      <stop offset="1" stop-color="#e9eaf2" stop-opacity="0"/>
    </linearGradient>
  </defs>
  <g id="Group_34" data-name="Group 34" transform="translate(-2761 -7456)">
    <path id="Path_95" data-name="Path 95" d="M450,384.63,199.93,240.23c-3.51-2-6.35-7.46-6.35-12.13V34.63c0-4.68,2.84-6.83,6.35-4.8L450,174.23c3.51,2,6.35,7.46,6.35,12.13V379.83C456.39,384.51,453.55,386.66,450,384.63Z" transform="translate(2760.96 7455.997)" fill="#b1b4c4"/>
    <path id="Path_97" data-name="Path 97" d="M193.13,31l2.73-1.58,3.92,2.24s-4.18.63-4.28.61S193.13,31,193.13,31Z" transform="translate(2760.96 7455.997)" fill="#b1b4c4"/>
    <path id="Path_98" data-name="Path 98" d="M447.75,386,197.64,241.56c-3.51-2-6.36-7.46-6.36-12.14V36c0-4.68,2.85-6.83,6.36-4.8L447.75,175.6c3.51,2,6.35,7.46,6.35,12.14V381.16C454.1,385.83,451.26,388,447.75,386Z" transform="translate(2760.96 7455.997)" fill="#e4e7f2"/>
    <path id="Path_99" data-name="Path 99" d="M447.31,386.21,197.2,241.81c-3.51-2-6.36-7.46-6.36-12.14V36.2c0-4.67,2.85-6.82,6.36-4.8L447.31,175.8c3.5,2,6.35,7.46,6.35,12.14V381.41C453.66,386.09,450.81,388.24,447.31,386.21Z" transform="translate(2760.96 7455.997)" fill="#d6d8e5"/>
    <path id="Path_100" data-name="Path 100" d="M450.22,374.44,194,226.53,194.15,37c0-1.94,1.36-2.73,3-1.76l250.11,144.4a6.72,6.72,0,0,1,3,5.27Z" transform="translate(2760.96 7455.997)" fill="#fff"/>
    <path id="Path_101" data-name="Path 101" d="M450.14,374.45,194,226.54,194.08,37c0-1.94,1.36-2.73,3-1.76l250.11,144.4a6.73,6.73,0,0,1,3,5.27Z" transform="translate(2760.96 7455.997)" opacity="0.5" fill="url(#linear-gradient)"/>
    <path id="Path_103" data-name="Path 103" d="M264.13,495.35,14,351c-3.51-2-3.07-5.56,1-7.9l167.55-96.73c4-2.34,10.18-2.6,13.69-.57L446.35,390.2c3.51,2,3.07,5.56-1,7.9L277.82,494.79C273.77,497.12,267.64,497.38,264.13,495.35Z" transform="translate(2760.96 7455.997)" fill="#b1b4c4"/>
    <path id="Path_106" data-name="Path 106" d="M264.13,491.38,14,347c-3.51-2-3.07-5.56,1-7.9l167.55-96.74c4-2.34,10.18-2.59,13.69-.56L446.35,386.2c3.51,2,3.07,5.56-1,7.9L277.82,490.81C273.77,493.15,267.64,493.41,264.13,491.38Z" transform="translate(2760.96 7455.997)" fill="#e4e7f2"/>
    <path id="Path_107" data-name="Path 107" d="M264.13,490.77,14,346.37c-3.51-2-3.07-5.57,1-7.9l167.55-96.74c4-2.34,10.18-2.59,13.69-.57L446.35,385.57c3.51,2,3.07,5.56-1,7.9L277.82,490.2C273.77,492.54,267.64,492.79,264.13,490.77Z" transform="translate(2760.96 7455.997)" fill="#d6d8e5"/>
    <path id="Path_108" data-name="Path 108" d="M177.91,274.36l-11.64-6.72c-1-.55-.83-1.51.26-2.14l11.12-6.42a4.11,4.11,0,0,1,3.7-.15L193,265.65c.95.55.83,1.51-.27,2.14l-11.11,6.42a4.13,4.13,0,0,1-3.71.15Z" transform="translate(2760.96 7455.997)" fill="#2b303f"/>
    <path id="Path_109" data-name="Path 109" d="M194.4,283.88l-11.65-6.73c-.95-.54-.83-1.5.27-2.14l11.11-6.41a4.13,4.13,0,0,1,3.71-.15l11.64,6.72c1,.55.83,1.51-.26,2.14l-11.12,6.41a4.08,4.08,0,0,1-3.7.16Z" transform="translate(2760.96 7455.997)" fill="#2b303f"/>
    <path id="Path_110" data-name="Path 110" d="M211.07,293.51l-11.64-6.73c-1-.55-.83-1.51.26-2.14l11.12-6.41a4.08,4.08,0,0,1,3.7-.16l11.65,6.73c1,.54.83,1.5-.27,2.14l-11.11,6.41A4.17,4.17,0,0,1,211.07,293.51Z" transform="translate(2760.96 7455.997)" fill="#2b303f"/>
    <path id="Path_111" data-name="Path 111" d="M227.37,302.91l-11.65-6.72c-.95-.55-.83-1.51.27-2.14l11.11-6.42a4.13,4.13,0,0,1,3.71-.15l11.65,6.72c.95.55.83,1.51-.27,2.14l-11.11,6.42a4.13,4.13,0,0,1-3.71.15Z" transform="translate(2760.96 7455.997)" fill="#2b303f"/>
    <path id="Path_112" data-name="Path 112" d="M243.86,312.43l-11.65-6.72c-1-.55-.83-1.51.27-2.14l11.11-6.42a4.13,4.13,0,0,1,3.71-.15l11.64,6.72c.95.55.83,1.51-.27,2.14l-11.11,6.42A4.11,4.11,0,0,1,243.86,312.43Z" transform="translate(2760.96 7455.997)" fill="#2b303f"/>
    <path id="Path_113" data-name="Path 113" d="M260.34,322l-11.64-6.72c-.95-.55-.84-1.51.26-2.14l11.11-6.42a4.13,4.13,0,0,1,3.71-.15l11.65,6.72c.95.55.83,1.51-.27,2.14l-11.11,6.42A4.13,4.13,0,0,1,260.34,322Z" transform="translate(2760.96 7455.997)" fill="#2b303f"/>
    <path id="Path_114" data-name="Path 114" d="M276.83,331.47l-11.65-6.72c-.95-.55-.83-1.51.27-2.14l11.11-6.42a4.13,4.13,0,0,1,3.71-.15l11.64,6.72c.95.55.83,1.51-.26,2.14l-11.12,6.41a4.08,4.08,0,0,1-3.7.16Z" transform="translate(2760.96 7455.997)" fill="#2b303f"/>
    <path id="Path_115" data-name="Path 115" d="M293.31,341l-11.64-6.73c-.95-.55-.83-1.5.26-2.14l11.12-6.41a4.08,4.08,0,0,1,3.7-.16l11.65,6.73c1,.55.83,1.5-.27,2.14L297,340.83a4.1,4.1,0,0,1-3.69.17Z" transform="translate(2760.96 7455.997)" fill="#2b303f"/>
    <path id="Path_116" data-name="Path 116" d="M309.8,350.5l-11.65-6.72c-.95-.55-.83-1.51.27-2.14l11.11-6.41a4.1,4.1,0,0,1,3.71-.16l11.64,6.73c.95.54.83,1.5-.26,2.14l-11.11,6.41a4.13,4.13,0,0,1-3.71.15Z" transform="translate(2760.96 7455.997)" fill="#2b303f"/>
    <path id="Path_117" data-name="Path 117" d="M326.28,360l-11.64-6.72c-.95-.55-.83-1.51.26-2.14l11.1-6.4a4.11,4.11,0,0,1,3.7-.15l11.65,6.72c.95.55.83,1.51-.27,2.14L330,359.87a4.13,4.13,0,0,1-3.72.13Z" transform="translate(2760.96 7455.997)" fill="#2b303f"/>
    <path id="Path_118" data-name="Path 118" d="M342.77,369.54l-11.65-6.72c-.95-.55-.83-1.51.27-2.14l11.11-6.42a4.13,4.13,0,0,1,3.71-.15l11.65,6.72c.95.55.83,1.51-.27,2.14l-11.11,6.42a4.13,4.13,0,0,1-3.71.15Z" transform="translate(2760.96 7455.997)" fill="#2b303f"/>
    <path id="Path_119" data-name="Path 119" d="M359.26,379.06l-11.65-6.72c-.95-.55-.83-1.51.27-2.14L359,363.78a4.13,4.13,0,0,1,3.71-.15l11.64,6.72c1,.55.83,1.51-.27,2.14L363,378.91a4.11,4.11,0,0,1-3.74.15Z" transform="translate(2760.96 7455.997)" fill="#2b303f"/>
    <path id="Path_120" data-name="Path 120" d="M375.74,388.58l-11.64-6.73c-1-.55-.84-1.5.26-2.14l11.11-6.41a4.13,4.13,0,0,1,3.71-.16l11.65,6.73c.95.55.83,1.5-.27,2.14l-11.11,6.41a4.1,4.1,0,0,1-3.71.16Z" transform="translate(2760.96 7455.997)" fill="#2b303f"/>
    <path id="Path_121" data-name="Path 121" d="M400.17,402.68l-19.59-11.31c-.95-.55-.83-1.51.27-2.14L392,382.82a4.1,4.1,0,0,1,3.71-.16L415.25,394c.95.55.83,1.51-.26,2.14l-11.12,6.42A4.11,4.11,0,0,1,400.17,402.68Z" transform="translate(2760.96 7455.997)" fill="#2b303f"/>
    <path id="Path_122" data-name="Path 122" d="M186.39,297.7,174.74,291c-1-.55-.83-1.51.27-2.14l11.11-6.42a4.13,4.13,0,0,1,3.71-.15L201.47,289c.95.55.83,1.51-.26,2.14l-11.12,6.42a4.11,4.11,0,0,1-3.7.14Z" transform="translate(2760.96 7455.997)" fill="#2b303f"/>
    <path id="Path_123" data-name="Path 123" d="M202.9,307.24l-11.64-6.72c-.95-.55-.83-1.51.26-2.14L202.64,292a4.11,4.11,0,0,1,3.7-.15L218,298.53c.95.55.83,1.51-.27,2.14l-11.11,6.42a4.13,4.13,0,0,1-3.72.15Z" transform="translate(2760.96 7455.997)" fill="#2b303f"/>
    <path id="Path_124" data-name="Path 124" d="M219.42,316.77l-11.65-6.72c-1-.55-.83-1.51.27-2.14l11.11-6.42a4.13,4.13,0,0,1,3.71-.15l11.64,6.72c.95.55.83,1.51-.26,2.14l-11.12,6.42a4.11,4.11,0,0,1-3.7.15Z" transform="translate(2760.96 7455.997)" fill="#2b303f"/>
    <path id="Path_125" data-name="Path 125" d="M235.93,326.31l-11.65-6.73c-.95-.54-.83-1.5.27-2.14L235.66,311a4.13,4.13,0,0,1,3.71-.16L251,317.6c.95.55.83,1.5-.27,2.14l-11.11,6.41A4.1,4.1,0,0,1,235.93,326.31Z" transform="translate(2760.96 7455.997)" fill="#2b303f"/>
    <path id="Path_126" data-name="Path 126" d="M252.31,335.77,240.67,329c-.95-.55-.83-1.5.26-2.14l11.12-6.41a4.08,4.08,0,0,1,3.7-.16l11.65,6.73c1,.54.83,1.5-.27,2.14L256,335.61a4.13,4.13,0,0,1-3.69.16Z" transform="translate(2760.96 7455.997)" fill="#2b303f"/>
    <path id="Path_127" data-name="Path 127" d="M268.83,345.3l-11.65-6.72c-.95-.55-.83-1.51.27-2.14L268.56,330a4.13,4.13,0,0,1,3.71-.15l11.64,6.72c.95.55.83,1.51-.26,2.14l-11.12,6.42A4.11,4.11,0,0,1,268.83,345.3Z" transform="translate(2760.96 7455.997)" fill="#2b303f"/>
    <path id="Path_128" data-name="Path 128" d="M285.34,354.83l-11.65-6.72c-.95-.55-.83-1.51.27-2.14l11.11-6.41a4.1,4.1,0,0,1,3.71-.16l11.65,6.73c.95.54.83,1.5-.27,2.14l-11.11,6.41a4.13,4.13,0,0,1-3.71.15Z" transform="translate(2760.96 7455.997)" fill="#2b303f"/>
    <path id="Path_129" data-name="Path 129" d="M301.85,364.37l-11.64-6.72c-.95-.55-.83-1.51.27-2.14l11.11-6.42a4.11,4.11,0,0,1,3.7-.15l11.65,6.72c.95.55.83,1.51-.27,2.14l-11.11,6.42A4.13,4.13,0,0,1,301.85,364.37Z" transform="translate(2760.96 7455.997)" fill="#2b303f"/>
    <path id="Path_130" data-name="Path 130" d="M318.37,373.9l-11.65-6.72c-1-.55-.83-1.51.27-2.14l11.11-6.42a4.13,4.13,0,0,1,3.71-.15l11.64,6.72c.95.55.84,1.51-.26,2.14l-11.11,6.42a4.13,4.13,0,0,1-3.71.15Z" transform="translate(2760.96 7455.997)" fill="#2b303f"/>
    <path id="Path_131" data-name="Path 131" d="M334.88,383.44l-11.64-6.73c-.95-.54-.83-1.5.26-2.14l11.12-6.41a4.14,4.14,0,0,1,3.7-.16L350,374.73c.95.55.83,1.51-.27,2.14l-11.11,6.41A4.1,4.1,0,0,1,334.88,383.44Z" transform="translate(2760.96 7455.997)" fill="#2b303f"/>
    <path id="Path_132" data-name="Path 132" d="M351.4,393l-11.65-6.72c-.95-.55-.83-1.51.27-2.14l11.11-6.42a4.13,4.13,0,0,1,3.71-.15l11.64,6.72c.95.55.83,1.51-.26,2.14l-11.12,6.42a4.11,4.11,0,0,1-3.7.15Z" transform="translate(2760.96 7455.997)" fill="#2b303f"/>
    <path id="Path_133" data-name="Path 133" d="M367.91,402.51l-11.64-6.73c-.95-.55-.84-1.5.26-2.14l11.11-6.41a4.13,4.13,0,0,1,3.71-.16L383,393.8c.95.55.83,1.5-.27,2.14l-11.11,6.41a4.1,4.1,0,0,1-3.71.16Z" transform="translate(2760.96 7455.997)" fill="#2b303f"/>
    <path id="Path_134" data-name="Path 134" d="M169.87,288.17l-19.58-11.31c-.95-.55-.83-1.5.26-2.14l11.12-6.41a4.08,4.08,0,0,1,3.7-.16L185,279.46c.95.55.83,1.51-.27,2.14L173.58,288A4.13,4.13,0,0,1,169.87,288.17Z" transform="translate(2760.96 7455.997)" fill="#2b303f"/>
    <path id="Path_135" data-name="Path 135" d="M399.37,403.29l-11.64-6.72a3.8,3.8,0,0,0-3.46,0l-11.74,6.78c-1,.55-1,1.44,0,2l.93.54a.973.973,0,0,1,0,1.84L361,414.89c-1,.56-1,1.45,0,2l7.41,4.28a3.81,3.81,0,0,0,3.45,0l11.62-6.7,2.4-1.39,1.73-1,1.74-1,10-5.77C400.32,404.73,400.32,403.84,399.37,403.29Z" transform="translate(2760.96 7455.997)" fill="#2b303f"/>
    <path id="Path_136" data-name="Path 136" d="M114.06,311.3l-11.64-6.72c-1-.55-.83-1.51.26-2.14L113.8,296a4.11,4.11,0,0,1,3.7-.15l11.65,6.72c.95.55.83,1.51-.27,2.14l-11.11,6.42A4.13,4.13,0,0,1,114.06,311.3Z" transform="translate(2760.96 7455.997)" fill="#2b303f"/>
    <path id="Path_137" data-name="Path 137" d="M130.5,320.79l-11.64-6.72c-1-.55-.83-1.51.26-2.14l11.12-6.42a4.11,4.11,0,0,1,3.7-.15l11.65,6.72c.95.55.83,1.51-.27,2.14l-11.11,6.42a4.13,4.13,0,0,1-3.71.15Z" transform="translate(2760.96 7455.997)" fill="#2b303f"/>
    <path id="Path_138" data-name="Path 138" d="M146.94,330.28l-11.64-6.72c-1-.55-.84-1.51.26-2.14L146.67,315a4.13,4.13,0,0,1,3.71-.15L162,321.57c.95.55.83,1.51-.27,2.14l-11.11,6.42a4.13,4.13,0,0,1-3.68.15Z" transform="translate(2760.96 7455.997)" fill="#2b303f"/>
    <path id="Path_139" data-name="Path 139" d="M286.94,411.11l-11.65-6.73c-1-.54-.83-1.5.27-2.14l11.11-6.41a4.13,4.13,0,0,1,3.71-.16L302,402.4c1,.55.83,1.5-.27,2.14L290.64,411A4.08,4.08,0,0,1,286.94,411.11Z" transform="translate(2760.96 7455.997)" fill="#2b303f"/>
    <path id="Path_140" data-name="Path 140" d="M303.37,420.6l-11.64-6.72c-1-.55-.83-1.51.26-2.14l11.12-6.42a4.11,4.11,0,0,1,3.7-.15l11.65,6.72c1,.55.83,1.51-.27,2.14l-11.11,6.42a4.13,4.13,0,0,1-3.71.15Z" transform="translate(2760.96 7455.997)" fill="#2b303f"/>
    <path id="Path_141" data-name="Path 141" d="M319.81,430.09l-11.64-6.72c-.95-.55-.83-1.51.26-2.14l11.12-6.42a4.11,4.11,0,0,1,3.7-.15l11.65,6.72c1,.55.83,1.51-.27,2.14l-11.11,6.42a4.13,4.13,0,0,1-3.71.15Z" transform="translate(2760.96 7455.997)" fill="#2b303f"/>
    <path id="Path_142" data-name="Path 142" d="M336.25,439.58l-11.64-6.72c-.95-.55-.83-1.51.26-2.14L336,424.3a4.11,4.11,0,0,1,3.7-.15l11.65,6.72c1,.55.83,1.51-.27,2.14L340,439.43A4.13,4.13,0,0,1,336.25,439.58Z" transform="translate(2760.96 7455.997)" fill="#2b303f"/>
    <path id="Path_143" data-name="Path 143" d="M167.61,342.22l-15.88-9.17c-.95-.55-.83-1.51.27-2.14l11.11-6.42a4.13,4.13,0,0,1,3.71-.15l15.88,9.17c1,.55.83,1.5-.27,2.14l-11.11,6.41a4.1,4.1,0,0,1-3.71.16Z" transform="translate(2760.96 7455.997)" fill="#2b303f"/>
    <path id="Path_144" data-name="Path 144" d="M270.5,401.62l-15.88-9.17c-1-.55-.83-1.51.26-2.14L266,383.89a4.11,4.11,0,0,1,3.7-.15l15.88,9.17c.95.55.83,1.5-.26,2.14l-11.12,6.41a4.08,4.08,0,0,1-3.7.16Z" transform="translate(2760.96 7455.997)" fill="#2b303f"/>
    <path id="Path_145" data-name="Path 145" d="M249.82,389.68,172.41,345c-.95-.55-.83-1.51.26-2.14l11.12-6.42a4.11,4.11,0,0,1,3.7-.15L264.91,381c.95.55.83,1.51-.27,2.14l-11.11,6.42a4.13,4.13,0,0,1-3.71.12Z" transform="translate(2760.96 7455.997)" fill="#2b303f"/>
    <path id="Path_146" data-name="Path 146" d="M174.89,309.52l-11.64-6.72c-.95-.55-.83-1.51.27-2.14l11.11-6.42a4.11,4.11,0,0,1,3.7-.15L190,300.81c1,.55.83,1.51-.27,2.14l-11.11,6.42A4.13,4.13,0,0,1,174.89,309.52Z" transform="translate(2760.96 7455.997)" fill="#2b303f"/>
    <path id="Path_147" data-name="Path 147" d="M191.36,319l-11.64-6.73c-.95-.55-.83-1.5.26-2.14l11.12-6.41a4.11,4.11,0,0,1,3.7-.16l11.65,6.73c1,.55.83,1.5-.27,2.14l-11.11,6.41a4.1,4.1,0,0,1-3.71.16Z" transform="translate(2760.96 7455.997)" fill="#2b303f"/>
    <path id="Path_148" data-name="Path 148" d="M207.83,328.53l-11.65-6.72c-1-.55-.83-1.51.27-2.14l11.11-6.42a4.13,4.13,0,0,1,3.71-.15l11.64,6.72c1,.55.84,1.51-.26,2.14l-11.11,6.42A4.13,4.13,0,0,1,207.83,328.53Z" transform="translate(2760.96 7455.997)" fill="#2b303f"/>
    <path id="Path_149" data-name="Path 149" d="M224.3,338l-11.65-6.72c-1-.55-.83-1.51.27-2.14L224,322.76a4.13,4.13,0,0,1,3.71-.15l11.64,6.72c1,.55.83,1.51-.26,2.14L228,337.89a4.11,4.11,0,0,1-3.7.11Z" transform="translate(2760.96 7455.997)" fill="#2b303f"/>
    <path id="Path_150" data-name="Path 150" d="M240.76,347.55l-11.64-6.72c-1-.55-.83-1.51.26-2.14l11.12-6.42a4.11,4.11,0,0,1,3.7-.15l11.65,6.72c1,.55.83,1.51-.27,2.14l-11.11,6.42A4.13,4.13,0,0,1,240.76,347.55Z" transform="translate(2760.96 7455.997)" fill="#2b303f"/>
    <path id="Path_151" data-name="Path 151" d="M257.23,357.06l-11.64-6.73c-1-.55-.84-1.5.26-2.14L257,341.78a4.1,4.1,0,0,1,3.71-.16l11.65,6.73c.95.55.83,1.5-.27,2.14l-11.11,6.41a4.1,4.1,0,0,1-3.75.16Z" transform="translate(2760.96 7455.997)" fill="#2b303f"/>
    <path id="Path_152" data-name="Path 152" d="M273.7,366.56l-11.65-6.72c-.95-.55-.83-1.51.27-2.14l11.11-6.42a4.13,4.13,0,0,1,3.71-.15l11.64,6.72c1,.55.83,1.51-.26,2.14l-11.12,6.42a4.11,4.11,0,0,1-3.7.15Z" transform="translate(2760.96 7455.997)" fill="#2b303f"/>
    <path id="Path_153" data-name="Path 153" d="M290.17,376.07l-11.65-6.72c-.95-.55-.83-1.51.27-2.14l11.11-6.42a4.13,4.13,0,0,1,3.71-.15l11.64,6.72c.95.55.83,1.51-.27,2.14l-11.11,6.42a4.11,4.11,0,0,1-3.7.15Z" transform="translate(2760.96 7455.997)" fill="#2b303f"/>
    <path id="Path_154" data-name="Path 154" d="M306.63,385.58,295,378.86c-.95-.55-.83-1.51.26-2.14l11.12-6.42a4.11,4.11,0,0,1,3.7-.15l11.65,6.72c.95.55.83,1.51-.27,2.14l-11.11,6.42a4.13,4.13,0,0,1-3.72.15Z" transform="translate(2760.96 7455.997)" fill="#2b303f"/>
    <path id="Path_155" data-name="Path 155" d="M323.1,395.09l-11.65-6.73c-.95-.55-.83-1.5.27-2.14l11.11-6.41a4.1,4.1,0,0,1,3.71-.16l11.65,6.73c.95.54.83,1.5-.27,2.14l-11.11,6.41A4.13,4.13,0,0,1,323.1,395.09Z" transform="translate(2760.96 7455.997)" fill="#2b303f"/>
    <path id="Path_156" data-name="Path 156" d="M339.57,404.59l-11.65-6.72c-.95-.55-.83-1.51.27-2.14l11.11-6.42a4.13,4.13,0,0,1,3.71-.15l11.64,6.72c1,.55.83,1.51-.26,2.14l-11.12,6.42a4.11,4.11,0,0,1-3.7.15Z" transform="translate(2760.96 7455.997)" fill="#2b303f"/>
    <path id="Path_157" data-name="Path 157" d="M356,414.1l-11.64-6.72c-.95-.55-.83-1.51.27-2.14l11.11-6.42a4.11,4.11,0,0,1,3.7-.15l11.65,6.72c.95.55.83,1.51-.27,2.14L359.74,414a4.13,4.13,0,0,1-3.74.1Z" transform="translate(2760.96 7455.997)" fill="#2b303f"/>
    <path id="Path_158" data-name="Path 158" d="M158.43,300l-24.09-13.9c-1-.55-.83-1.51.27-2.14l11.11-6.42a4.13,4.13,0,0,1,3.71-.15l24.08,13.9c1,.55.83,1.51-.26,2.14l-11.12,6.42a4.11,4.11,0,0,1-3.7.15Z" transform="translate(2760.96 7455.997)" fill="#2b303f"/>
    <path id="Path_159" data-name="Path 159" d="M150.74,314l-11.64-6.7c-.95-.55-.84-1.5.26-2.14l11.11-6.41a4.1,4.1,0,0,1,3.71-.16l11.65,6.73c.95.54.83,1.5-.27,2.14l-11.11,6.41A4.13,4.13,0,0,1,150.74,314Z" transform="translate(2760.96 7455.997)" fill="#2b303f"/>
    <path id="Path_160" data-name="Path 160" d="M167.21,323.53l-11.65-6.72c-.95-.55-.83-1.51.27-2.14l11.11-6.42a4.13,4.13,0,0,1,3.71-.15l11.64,6.72c1,.55.83,1.51-.26,2.14l-11.12,6.42a4.11,4.11,0,0,1-3.7.15Z" transform="translate(2760.96 7455.997)" fill="#2b303f"/>
    <path id="Path_161" data-name="Path 161" d="M183.67,333,172,326.31c-1-.55-.83-1.5.27-2.14l11.11-6.41a4.13,4.13,0,0,1,3.71-.16l11.65,6.73c1,.55.83,1.5-.27,2.14l-11.11,6.41a4.1,4.1,0,0,1-3.69.12Z" transform="translate(2760.96 7455.997)" fill="#2b303f"/>
    <path id="Path_162" data-name="Path 162" d="M200.13,342.54l-11.64-6.72c-1-.55-.83-1.51.27-2.14l11.11-6.42a4.11,4.11,0,0,1,3.7-.15l11.65,6.72c.95.55.83,1.51-.27,2.14l-11.11,6.42a4.13,4.13,0,0,1-3.71.15Z" transform="translate(2760.96 7455.997)" fill="#2b303f"/>
    <path id="Path_163" data-name="Path 163" d="M216.6,352.05,205,345.33c-.95-.55-.83-1.51.27-2.14l11.11-6.42a4.13,4.13,0,0,1,3.71-.15l11.64,6.72c.95.55.84,1.51-.26,2.14l-11.11,6.41a4.1,4.1,0,0,1-3.76.16Z" transform="translate(2760.96 7455.997)" fill="#2b303f"/>
    <path id="Path_164" data-name="Path 164" d="M233.06,361.55l-11.64-6.72c-.95-.55-.83-1.51.26-2.14l11.12-6.42a4.11,4.11,0,0,1,3.7-.15l11.65,6.72c.95.55.83,1.51-.27,2.14l-11.11,6.42A4.13,4.13,0,0,1,233.06,361.55Z" transform="translate(2760.96 7455.997)" fill="#2b303f"/>
    <path id="Path_165" data-name="Path 165" d="M249.53,371.06l-11.65-6.72c-.95-.55-.83-1.51.27-2.14l11.11-6.42a4.13,4.13,0,0,1,3.71-.15l11.64,6.72c.95.55.83,1.51-.26,2.14l-11.11,6.42A4.13,4.13,0,0,1,249.53,371.06Z" transform="translate(2760.96 7455.997)" fill="#2b303f"/>
    <path id="Path_166" data-name="Path 166" d="M266,380.57l-11.64-6.73c-.95-.55-.83-1.5.26-2.14l11.12-6.41a4.08,4.08,0,0,1,3.7-.16l11.65,6.73c.95.54.83,1.5-.27,2.14l-11.11,6.41A4.13,4.13,0,0,1,266,380.57Z" transform="translate(2760.96 7455.997)" fill="#2b303f"/>
    <path id="Path_167" data-name="Path 167" d="M282.46,390.07l-11.65-6.72c-.95-.55-.83-1.51.27-2.14l11.11-6.42a4.13,4.13,0,0,1,3.71-.15l11.64,6.72c.95.55.83,1.51-.26,2.14l-11.12,6.42a4.11,4.11,0,0,1-3.7.15Z" transform="translate(2760.96 7455.997)" fill="#2b303f"/>
    <path id="Path_168" data-name="Path 168" d="M298.92,399.58l-11.64-6.73c-.95-.54-.83-1.5.26-2.14l11.12-6.41a4.11,4.11,0,0,1,3.7-.16L314,390.87c.95.55.83,1.5-.27,2.14l-11.11,6.41a4.1,4.1,0,0,1-3.7.16Z" transform="translate(2760.96 7455.997)" fill="#2b303f"/>
    <path id="Path_169" data-name="Path 169" d="M315.39,409.08l-11.65-6.72c-.95-.55-.83-1.51.27-2.14l11.11-6.42a4.13,4.13,0,0,1,3.71-.15l11.64,6.72c.95.55.83,1.51-.26,2.14l-11.12,6.42a4.11,4.11,0,0,1-3.7.15Z" transform="translate(2760.96 7455.997)" fill="#2b303f"/>
    <path id="Path_170" data-name="Path 170" d="M352.23,430.36l-32-18.49c-.95-.55-.84-1.51.26-2.14l11.11-6.42a4.13,4.13,0,0,1,3.71-.15l32,18.49c.95.54.83,1.5-.27,2.14l-11.11,6.41a4.13,4.13,0,0,1-3.7.16Z" transform="translate(2760.96 7455.997)" fill="#2b303f"/>
    <path id="Path_171" data-name="Path 171" d="M134.28,304.52l-15.88-9.17c-1-.55-.83-1.51.26-2.14l11.12-6.41a4.08,4.08,0,0,1,3.7-.16l15.88,9.17c.95.55.83,1.51-.26,2.14L138,304.37A4.11,4.11,0,0,1,134.28,304.52Z" transform="translate(2760.96 7455.997)" fill="#2b303f"/>
    <path id="Path_172" data-name="Path 172" d="M416.71,393.13l-233.84-135c-1-.54-.83-1.5.27-2.14l5.56-3.2a4.11,4.11,0,0,1,3.7-.16l233.84,135c.95.55.83,1.5-.27,2.14L420.42,393A4.13,4.13,0,0,1,416.71,393.13Z" transform="translate(2760.96 7455.997)" fill="#2b303f"/>
    <path id="Path_173" data-name="Path 173" d="M271.85,408.48a3.53,3.53,0,0,1-1.62,1.68l-64.34,37.15a7.93,7.93,0,0,1-7.13.29l-110-63.49A2.46,2.46,0,0,1,87.68,383c-.4-1,.16-2.11,1.62-2.95l64.35-37.16a7.93,7.93,0,0,1,7.13-.29l110,63.49A1.94,1.94,0,0,1,271.85,408.48Z" transform="translate(2760.96 7455.997)" fill="#b1b4c4"/>
    <path id="Path_174" data-name="Path 174" d="M271.85,408.48a3.53,3.53,0,0,1-1.62,1.68l-64.34,37.15a7.93,7.93,0,0,1-7.13.29l-110-63.49A2.46,2.46,0,0,1,87.68,383a3.61,3.61,0,0,1,1.62-1.67l64.35-37.15a7.94,7.94,0,0,1,7.13-.3l110,63.5A2.41,2.41,0,0,1,271.85,408.48Z" transform="translate(2760.96 7455.997)" fill="#c3c6d1"/>
    <path id="Path_175" data-name="Path 175" d="M434.51,382.89l-233.84-135A4.12,4.12,0,0,1,199,244.6v-2.75c0-1.27.77-1.85,1.72-1.3l233.84,135a4.1,4.1,0,0,1,1.72,3.28v2.75C436.23,382.86,435.46,383.44,434.51,382.89Z" transform="translate(2760.96 7455.997)" fill="#2b303f"/>
    <path id="Path_176" data-name="Path 176" d="M236,234.56l-23.1-13.31c-2.89-1.67-5.24-6.16-5.24-10V186.48c0-3.86,2.35-5.63,5.24-4L236,195.83c2.9,1.67,5.24,6.16,5.24,10V230.6C241.2,234.46,238.86,236.23,236,234.56Z" transform="translate(2760.96 7455.997)" fill="#e9eaf2"/>
    <path id="Path_177" data-name="Path 177" d="M235.91,177.83l-23.06-13.31c-2.89-1.67-5.24-8.5-5.24-11.84V123.76c0-3.86,2.35-5.63,5.24-4l23.06,13.31c2.9,1.67,5.24,6.16,5.24,10v28.92C241.15,175.39,238.81,179.5,235.91,177.83Z" transform="translate(2760.96 7455.997)" fill="#e9eaf2"/>
    <path id="Path_178" data-name="Path 178" d="M224.51,158.51c-4.69-2.71-8.51-9.33-8.51-14.75s3.82-7.63,8.51-4.92,8.52,9.33,8.52,14.75S229.21,161.22,224.51,158.51Zm0-17.15c-3.49-2-6.33-.37-6.33,3.66a14,14,0,0,0,6.33,11c3.5,2,6.34.38,6.34-3.65A14,14,0,0,0,224.51,141.36Z" transform="translate(2760.96 7455.997)" fill="#8c50ff"/>
    <path id="Path_179" data-name="Path 179" d="M226.85,154.5l-3.86-6.14v-5.11l2.18,1.26v3.97l3.12,4.95Z" transform="translate(2760.96 7455.997)" fill="#8c50ff"/>
    <path id="Path_180" data-name="Path 180" d="M235.88,116.66l-23.06-13.31c-2.89-1.68-5.24-9.2-5.24-12.55V64.18c0-3.34,2.35-4.7,5.24-3L235.88,74.5a11.56,11.56,0,0,1,5.24,9.07V110.2C241.12,113.51,238.78,118.33,235.88,116.66Z" transform="translate(2760.96 7455.997)" fill="#e9eaf2"/>
    <path id="Path_181" data-name="Path 181" d="M224.35,84.75c-1.39-.8-2.51-.15-2.51,1.46a5.54,5.54,0,0,0,2.51,4.35c1.39.8,2.52.15,2.52-1.45a5.59,5.59,0,0,0-2.52-4.36Zm6.71,1-2-1.16a1.64,1.64,0,0,1-.66-.93l-.52-2.11a1.7,1.7,0,0,0-.67-.93l-5.7-3.29c-.28-.16-.57-.09-.66.17l-.52,1.5a.43.43,0,0,1-.66.17l-2-1.16c-.92-.54-1.67-.1-1.67,1v8.72a3.71,3.71,0,0,0,1.67,2.9l13.42,7.75c.92.53,1.68.1,1.68-1V88.63a3.73,3.73,0,0,0-1.71-2.91Zm-6.71,6.78a9.29,9.29,0,0,1-4.19-7.26c0-2.68,1.88-3.76,4.19-2.42a9.24,9.24,0,0,1,4.19,7.26c0,2.64-1.87,3.73-4.19,2.39Zm6.12-3.83a1.28,1.28,0,0,1-.58-1c0-.38.26-.53.58-.34a1.28,1.28,0,0,1,.59,1c0,.35-.26.5-.59.31Z" transform="translate(2760.96 7455.997)" fill="#8c50ff"/>
    <path id="Path_182" data-name="Path 182" d="M231.63,210.35c0,4.51-7.07,10.37-7.07,10.37s-7.08-14-7.08-18.54,3.17-6.34,7.08-4.09A15.65,15.65,0,0,1,231.63,210.35Z" transform="translate(2760.96 7455.997)" fill="#8c50ff"/>
    <ellipse id="Ellipse_3" data-name="Ellipse 3" cx="3.78" cy="6.54" rx="3.78" ry="6.54" transform="translate(2978.977 7658.182) rotate(-30)" fill="#e9eaf2"/>
    <path id="Path_183" data-name="Path 183" d="M399.13,271,259.52,190.39c-2.36-1.35-4.26-5-4.26-8.13V88.43c0-3.13,1.9-4.57,4.26-3.21l139.61,80.6c2.35,1.36,4.25,5,4.25,8.14v93.82C403.38,270.92,401.48,272.36,399.13,271Z" transform="translate(2760.96 7455.997)" fill="#e9eaf2"/>
    <path id="Path_184" data-name="Path 184" d="M383,202.79,274.79,140.32c-2.62-1.52-4.75-5.58-4.75-9.07v-7.07c0-3.5,2.13-5.1,4.75-3.59L383,183.06c2.62,1.51,4.74,5.57,4.74,9.07v7.07C387.74,202.7,385.62,204.3,383,202.79Z" transform="translate(2760.96 7455.997)" fill="#fff"/>
    <path id="Path_185" data-name="Path 185" d="M324.15,200.6l-49.36-28.5c-2.62-1.51-4.75-5.57-4.75-9.07V156c0-3.5,2.13-5.1,4.75-3.59l49.36,28.5c2.62,1.51,4.74,5.57,4.74,9.07V197C328.89,200.5,326.77,202.11,324.15,200.6Z" transform="translate(2760.96 7455.997)" fill="#8c50ff"/>
    <path id="Path_186" data-name="Path 186" d="M427.86,291.64s-52.63,11.6-95.18-35.66-77.26-41.2-77.26-41.2v29.5l172.44,99.55Z" transform="translate(2760.96 7455.997)" fill="url(#linear-gradient-2)"/>
    <path id="Path_187" data-name="Path 187" d="M427.86,291.64s-52.63,11.6-95.18-35.66-77.26-41.2-77.26-41.2" transform="translate(2760.96 7455.997)" fill="none" stroke="#cccedd" stroke-miterlimit="10" stroke-width="1.06"/>
    <path id="_Контур_" data-name="&lt;Контур&gt;" d="M255.19,44.4a38.54,38.54,0,0,1-5.57,7.6c-.6.7-5.23-1.07-4.26-1.57s4-4.72,5.52-7.54a96.186,96.186,0,0,0,3.24-10.29c.95-3.45,1.77-8.51,2.47-10.89a4.65,4.65,0,0,1,3.54-3.61c1.67-.39,2.75.07,2.44,2.09C262,23.71,259.27,37.45,255.19,44.4Z" transform="translate(2760.96 7455.997)" fill="#ffcea9"/>
    <path id="Path_188" data-name="Path 188" d="M257.84,98.25c-1.43,1.17-3.55.1-3.66.21a65.733,65.733,0,0,1-5.29,4.41c-.9.7-2.29,1.64-2,3,.45,2.41,4.32,1.67,5.78.93s2.66-2,4-2.82c1-.62,2-.93,2.11-2.18C258.87,101.05,258.1,98.22,257.84,98.25Z" transform="translate(2760.96 7455.997)" fill="#38226d"/>
    <path id="Path_189" data-name="Path 189" d="M258.76,101.3c-.19,1.19-1.15,1.52-2.13,2.13-1.4.87-2.64,2.13-4.1,2.87s-4.71,1.36-5.66-.37c.51,2.33,4.32,1.6,5.76.87s2.66-2,4-2.82c1-.62,2-.93,2.11-2.18a3.079,3.079,0,0,0,.02-.5Z" transform="translate(2760.96 7455.997)" fill="#9c73ff"/>
    <path id="Path_190" data-name="Path 190" d="M243.28,89.86c-1.43,1.17-3.94-.1-4.05,0a53,53,0,0,1-4.73,4.27c-.9.71-2.29,1.65-2,3,.45,2.42,4.32,1.68,5.79.94s2.65-2,4-2.83c1-.61,2-.93,2.11-2.17C244.48,92.32,243.54,89.83,243.28,89.86Z" transform="translate(2760.96 7455.997)" fill="#38226d"/>
    <path id="Path_191" data-name="Path 191" d="M244.35,92.74c-.19,1.19-1.15,1.52-2.13,2.13-1.4.87-2.64,2.13-4.1,2.87s-4.72,1.36-5.66-.37c.51,2.33,4.31,1.6,5.76.87s2.65-2,4-2.83c1-.61,2-.92,2.11-2.17a3.079,3.079,0,0,0,.02-.5Z" transform="translate(2760.96 7455.997)" fill="#9c73ff"/>
    <path id="_Контур_2" data-name="&lt;Контур&gt;" d="M277,52.24c1.59,9.94-2.82,13.65-8.56,15.76-4.12,1.52-10,3.86-10,3.86s.08,2.18.12,7.07c0,4.31-.52,20-.52,20a4.81,4.81,0,0,1-4.4,0s-2.31-12.05-2.8-17.49c-.67-7.37-1.8-12.2-1.42-13.79.33-1.4,8.39-5.36,10.95-7.48l-16.89,5.66a29.83,29.83,0,0,1,.49,5.55c-.15,5.85-.48,18.52-.48,18.52s-2.31,1.67-4.29,0c0,0-4.25-25.07-3.73-28.39.49-3.15,15.37-9.59,18-11.81a4.2,4.2,0,0,1,3.3-.89Z" transform="translate(2760.96 7455.997)" fill="#8c50ff"/>
    <path id="_Контур_3" data-name="&lt;Контур&gt;" d="M236.54,56.38l11.35-6.55a.63.63,0,0,1,.65,0l19.9,11.49-11.67,6.74Z" transform="translate(2760.96 7455.997)" fill="#f4f4f4"/>
    <path id="Path_192" data-name="Path 192" d="M257.3,65.65l.87.5c.07,0,.06.11,0,.16l-.83.48a.32.32,0,0,1-.27,0l-.87-.5c-.07,0-.06-.11,0-.16l.83-.48a.32.32,0,0,1,.27,0Z" transform="translate(2760.96 7455.997)" fill="#3a2c6d"/>
    <path id="Path_193" data-name="Path 193" d="M256.08,65l.86.49c.07,0,.06.12,0,.16l-.82.48a.31.31,0,0,1-.28,0l-.86-.5c-.07,0-.06-.11,0-.16l.82-.47A.28.28,0,0,1,256.08,65Z" transform="translate(2760.96 7455.997)" fill="#3a2c6d"/>
    <path id="Path_194" data-name="Path 194" d="M254.84,64.23l.86.5c.07,0,.07.11,0,.16l-.82.47a.31.31,0,0,1-.28,0l-.86-.5c-.07,0-.06-.11,0-.16l.82-.48a.31.31,0,0,1,.28.01Z" transform="translate(2760.96 7455.997)" fill="#3a2c6d"/>
    <path id="Path_195" data-name="Path 195" d="M253.63,63.53l.86.5c.07,0,.07.11,0,.16l-.82.48a.34.34,0,0,1-.28,0l-.86-.5c-.07,0-.06-.11,0-.16l.82-.48a.34.34,0,0,1,.28,0Z" transform="translate(2760.96 7455.997)" fill="#3a2c6d"/>
    <path id="Path_196" data-name="Path 196" d="M252.4,62.82l.87.5c.07,0,.06.12,0,.16l-.83.48a.29.29,0,0,1-.27,0l-.87-.5c-.07,0-.06-.11,0-.16l.83-.47a.29.29,0,0,1,.27-.01Z" transform="translate(2760.96 7455.997)" fill="#3a2c6d"/>
    <path id="Path_197" data-name="Path 197" d="M251.18,62.12l.87.5c.07,0,.06.11,0,.16l-.83.47a.29.29,0,0,1-.27,0l-.87-.5c-.07,0-.06-.11,0-.15l.83-.48a.29.29,0,0,1,.27,0Z" transform="translate(2760.96 7455.997)" fill="#3a2c6d"/>
    <path id="Path_198" data-name="Path 198" d="M250,61.41l.86.5c.07,0,.06.11,0,.16l-.82.48a.34.34,0,0,1-.28,0l-.86-.5c-.07,0-.07-.11,0-.16l.82-.48a.34.34,0,0,1,.28,0Z" transform="translate(2760.96 7455.997)" fill="#3a2c6d"/>
    <path id="Path_199" data-name="Path 199" d="M248.73,60.7l.87.5c.07,0,.06.12,0,.16l-.83.48a.29.29,0,0,1-.27,0l-.87-.5c-.07,0-.06-.11,0-.16l.83-.47a.29.29,0,0,1,.27-.01Z" transform="translate(2760.96 7455.997)" fill="#3a2c6d"/>
    <path id="Path_200" data-name="Path 200" d="M247.51,60l.86.5c.07,0,.06.11,0,.16l-.82.47a.31.31,0,0,1-.28,0l-.86-.5c-.07,0-.06-.11,0-.15l.82-.48a.31.31,0,0,1,.28,0Z" transform="translate(2760.96 7455.997)" fill="#3a2c6d"/>
    <path id="Path_201" data-name="Path 201" d="M246.28,59.29l.87.5c.07,0,.06.11,0,.16l-.83.48a.32.32,0,0,1-.27,0l-.87-.5c-.07,0-.06-.11,0-.16l.83-.48a.29.29,0,0,1,.27,0Z" transform="translate(2760.96 7455.997)" fill="#3a2c6d"/>
    <path id="Path_202" data-name="Path 202" d="M245.06,58.58l.86.5c.07,0,.07.11,0,.16l-.82.48a.31.31,0,0,1-.28,0l-.86-.5c-.07,0-.06-.11,0-.16l.82-.47A.31.31,0,0,1,245.06,58.58Z" transform="translate(2760.96 7455.997)" fill="#3a2c6d"/>
    <path id="Path_203" data-name="Path 203" d="M243.84,57.88l.86.5c.07,0,.06.11,0,.16l-.83.47a.29.29,0,0,1-.27,0l-.87-.5c-.07,0-.06-.11,0-.16l.83-.47a.31.31,0,0,1,.28,0Z" transform="translate(2760.96 7455.997)" fill="#3a2c6d"/>
    <path id="Path_204" data-name="Path 204" d="M242.61,57.17l.87.5c.07,0,.06.11,0,.16l-.83.47a.29.29,0,0,1-.27,0l-.87-.5c-.07,0-.06-.12,0-.16l.83-.48a.29.29,0,0,1,.27.01Z" transform="translate(2760.96 7455.997)" fill="#3a2c6d"/>
    <path id="Path_205" data-name="Path 205" d="M240.8,56.12l1.45.84c.07,0,.06.11,0,.16l-.82.48a.34.34,0,0,1-.28,0l-1.45-.84c-.07,0-.07-.11,0-.16l.82-.48a.34.34,0,0,1,.28,0Z" transform="translate(2760.96 7455.997)" fill="#3a2c6d"/>
    <path id="Path_206" data-name="Path 206" d="M256.67,63.92l.87.5c.07,0,.06.11,0,.16l-.83.47a.26.26,0,0,1-.27,0l-.87-.49c-.07,0-.06-.12,0-.16l.83-.48a.29.29,0,0,1,.27,0Z" transform="translate(2760.96 7455.997)" fill="#3a2c6d"/>
    <path id="Path_207" data-name="Path 207" d="M255.45,63.21l.86.5c.07,0,.06.11,0,.16l-.82.48a.34.34,0,0,1-.28,0l-.86-.5c-.07,0-.07-.11,0-.16l.82-.48a.31.31,0,0,1,.28,0Z" transform="translate(2760.96 7455.997)" fill="#3a2c6d"/>
    <path id="Path_208" data-name="Path 208" d="M254.22,62.5l.86.5c.08,0,.07.11,0,.16l-.82.48a.34.34,0,0,1-.28,0l-.86-.5c-.07,0-.06-.11,0-.16l.82-.48a.34.34,0,0,1,.28,0Z" transform="translate(2760.96 7455.997)" fill="#3a2c6d"/>
    <path id="Path_209" data-name="Path 209" d="M253,61.79l.87.5c.07,0,.06.12,0,.16l-.83.48a.29.29,0,0,1-.27,0l-.87-.5c-.07,0-.06-.11,0-.16l.83-.47a.29.29,0,0,1,.27-.01Z" transform="translate(2760.96 7455.997)" fill="#3a2c6d"/>
    <path id="Path_210" data-name="Path 210" d="M251.78,61.09l.86.5c.07,0,.06.11,0,.16l-.82.48a.34.34,0,0,1-.28,0l-.86-.5c-.07,0-.07-.11,0-.16l.82-.48a.34.34,0,0,1,.28,0Z" transform="translate(2760.96 7455.997)" fill="#3a2c6d"/>
    <path id="Path_211" data-name="Path 211" d="M250.55,60.38l.87.5c.07,0,.06.12,0,.16l-.83.48a.29.29,0,0,1-.27,0l-.87-.5c-.07,0-.06-.11,0-.16l.83-.47a.29.29,0,0,1,.27-.01Z" transform="translate(2760.96 7455.997)" fill="#3a2c6d"/>
    <path id="Path_212" data-name="Path 212" d="M249.32,59.68l.87.5c.07,0,.06.11,0,.15l-.83.48a.29.29,0,0,1-.27,0l-.87-.5c-.07,0-.06-.11,0-.16l.83-.47a.29.29,0,0,1,.27,0Z" transform="translate(2760.96 7455.997)" fill="#3a2c6d"/>
    <path id="Path_213" data-name="Path 213" d="M248.1,59l.86.5c.07,0,.06.11,0,.16l-.82.47a.31.31,0,0,1-.28,0l-.86-.5c-.07,0-.06-.11,0-.15l.82-.48a.31.31,0,0,1,.28,0Z" transform="translate(2760.96 7455.997)" fill="#3a2c6d"/>
    <path id="Path_214" data-name="Path 214" d="M246.87,58.26l.87.5c.07,0,.06.11,0,.16l-.83.47a.29.29,0,0,1-.27,0l-.87-.5c-.07,0-.06-.12,0-.16l.83-.48a.29.29,0,0,1,.27.01Z" transform="translate(2760.96 7455.997)" fill="#3a2c6d"/>
    <path id="Path_215" data-name="Path 215" d="M245.65,57.55l.86.5c.07,0,.06.11,0,.16l-.83.48a.32.32,0,0,1-.27,0l-.87-.5c-.07,0-.06-.11,0-.16l.83-.48A.34.34,0,0,1,245.65,57.55Z" transform="translate(2760.96 7455.997)" fill="#3a2c6d"/>
    <path id="Path_216" data-name="Path 216" d="M244.42,56.84l.86.5c.07,0,.07.11,0,.16l-.82.48a.31.31,0,0,1-.28,0l-.86-.5c-.07,0-.06-.11,0-.16l.82-.48A.34.34,0,0,1,244.42,56.84Z" transform="translate(2760.96 7455.997)" fill="#3a2c6d"/>
    <path id="Path_217" data-name="Path 217" d="M243.19,56.14l.87.49c.07,0,.06.12,0,.16l-.83.48a.29.29,0,0,1-.27,0l-.87-.5c-.07,0-.06-.11,0-.16l.83-.47a.26.26,0,0,1,.27,0Z" transform="translate(2760.96 7455.997)" fill="#3a2c6d"/>
    <path id="Path_218" data-name="Path 218" d="M257.9,64.63l1.45.84c.07,0,.07.11,0,.16l-.82.47a.31.31,0,0,1-.28,0l-1.45-.84c-.07,0-.06-.11,0-.16l.82-.47a.31.31,0,0,1,.28,0Z" transform="translate(2760.96 7455.997)" fill="#3a2c6d"/>
    <path id="Path_219" data-name="Path 219" d="M240.86,56.08l.86.5a.3.3,0,0,0,.26,0l.87-.51a.08.08,0,0,0,0-.15h-.07c-.06,0-.06-.09,0-.13l.92-.53c.08,0,.08-.11,0-.15l-.55-.32a.3.3,0,0,0-.26,0l-.86.5-.18.1-.13.08-.13.07-.74.43a.08.08,0,0,0,.01.11Z" transform="translate(2760.96 7455.997)" fill="#3a2c6d"/>
    <path id="Path_220" data-name="Path 220" d="M262,62.91l.87.5c.07,0,.06.11,0,.16l-.83.47a.26.26,0,0,1-.27,0l-.87-.49a.09.09,0,0,1,0-.16l.83-.48a.29.29,0,0,1,.27,0Z" transform="translate(2760.96 7455.997)" fill="#3a2c6d"/>
    <path id="Path_221" data-name="Path 221" d="M260.82,62.2l.87.5c.07,0,.06.12,0,.16l-.83.48a.29.29,0,0,1-.27,0l-.87-.5c-.07,0-.06-.11,0-.16l.83-.47a.29.29,0,0,1,.27-.01Z" transform="translate(2760.96 7455.997)" fill="#3a2c6d"/>
    <path id="Path_222" data-name="Path 222" d="M259.6,61.5l.87.5c.07,0,.06.11,0,.16l-.83.47a.29.29,0,0,1-.27,0l-.87-.5c-.07,0-.06-.12,0-.16l.83-.48a.29.29,0,0,1,.27.01Z" transform="translate(2760.96 7455.997)" fill="#3a2c6d"/>
    <path id="Path_223" data-name="Path 223" d="M249.21,55.5l.86.5c.07,0,.06.11,0,.16l-.82.47a.31.31,0,0,1-.28,0l-.86-.5c-.08,0-.07-.11,0-.16l.82-.47a.31.31,0,0,1,.28,0Z" transform="translate(2760.96 7455.997)" fill="#3a2c6d"/>
    <path id="Path_224" data-name="Path 224" d="M248,54.79l.87.5c.07,0,.06.11,0,.16l-.83.48a.32.32,0,0,1-.27,0l-.87-.5c-.07,0-.06-.11,0-.16l.83-.48a.32.32,0,0,1,.27,0Z" transform="translate(2760.96 7455.997)" fill="#3a2c6d"/>
    <path id="Path_225" data-name="Path 225" d="M246.76,54.09l.87.5c.07,0,.06.11,0,.16l-.83.47a.29.29,0,0,1-.27,0l-.87-.5c-.07,0-.06-.11,0-.15l.83-.48a.29.29,0,0,1,.27,0Z" transform="translate(2760.96 7455.997)" fill="#3a2c6d"/>
    <path id="Path_226" data-name="Path 226" d="M245.54,53.38l.87.5c.07,0,.06.11,0,.16l-.83.48a.32.32,0,0,1-.27,0l-.87-.5c-.07,0-.06-.11,0-.16l.83-.48a.32.32,0,0,1,.27,0Z" transform="translate(2760.96 7455.997)" fill="#3a2c6d"/>
    <path id="Path_227" data-name="Path 227" d="M258.07,60.61l1.18.68c.07,0,.06.12,0,.16l-.83.48a.29.29,0,0,1-.27,0L257,61.26c-.07,0-.07-.11,0-.16l.82-.48a.34.34,0,0,1,.25-.01Z" transform="translate(2760.96 7455.997)" fill="#3a2c6d"/>
    <path id="Path_228" data-name="Path 228" d="M250.43,56.2l1.18.68c.07,0,.06.11,0,.16l-.83.48a.32.32,0,0,1-.27,0l-1.18-.68c-.07,0-.07-.11,0-.16l.82-.48A.34.34,0,0,1,250.43,56.2Z" transform="translate(2760.96 7455.997)" fill="#3a2c6d"/>
    <path id="Path_229" data-name="Path 229" d="M252,57.09l5.75,3.32c.07,0,.06.11,0,.16l-.82.47a.31.31,0,0,1-.28,0l-5.75-3.32c-.07,0-.06-.11,0-.15l.83-.48a.29.29,0,0,1,.27,0Z" transform="translate(2760.96 7455.997)" fill="#3a2c6d"/>
    <path id="Path_230" data-name="Path 230" d="M257.53,63l.86.5c.07,0,.06.11,0,.16l-.82.48a.34.34,0,0,1-.28,0l-.86-.5c-.07,0-.07-.11,0-.16l.82-.48a.34.34,0,0,1,.28,0Z" transform="translate(2760.96 7455.997)" fill="#3a2c6d"/>
    <path id="Path_231" data-name="Path 231" d="M256.3,62.33l.87.5c.07,0,.06.12,0,.16l-.83.48a.29.29,0,0,1-.27,0l-.87-.5c-.07,0-.06-.11,0-.16l.83-.47a.29.29,0,0,1,.27-.01Z" transform="translate(2760.96 7455.997)" fill="#3a2c6d"/>
    <path id="Path_232" data-name="Path 232" d="M255.08,61.63l.87.5c.07,0,.06.11,0,.16l-.83.47a.31.31,0,0,1-.28,0l-.86-.5a.09.09,0,0,1,0-.16l.83-.48a.29.29,0,0,1,.27.01Z" transform="translate(2760.96 7455.997)" fill="#3a2c6d"/>
    <path id="Path_233" data-name="Path 233" d="M253.86,60.92l.86.5c.07,0,.06.11,0,.16l-.82.48a.34.34,0,0,1-.28,0l-.86-.5c-.07,0-.06-.11,0-.16l.82-.48a.34.34,0,0,1,.28,0Z" transform="translate(2760.96 7455.997)" fill="#3a2c6d"/>
    <path id="Path_234" data-name="Path 234" d="M252.63,60.22l.87.5c.07,0,.06.11,0,.16l-.83.47a.29.29,0,0,1-.27,0l-.87-.5c-.07,0-.06-.11,0-.16l.83-.47A.29.29,0,0,1,252.63,60.22Z" transform="translate(2760.96 7455.997)" fill="#3a2c6d"/>
    <path id="Path_235" data-name="Path 235" d="M251.41,59.51l.87.5c.07,0,.06.11,0,.16l-.83.48a.32.32,0,0,1-.27,0l-.87-.5c-.07,0-.06-.11,0-.16l.83-.48a.32.32,0,0,1,.27,0Z" transform="translate(2760.96 7455.997)" fill="#3a2c6d"/>
    <path id="Path_236" data-name="Path 236" d="M250.19,58.8l.86.5c.07,0,.07.12,0,.16l-.82.48a.31.31,0,0,1-.28,0l-.86-.5c-.07,0-.06-.11,0-.16l.82-.47A.31.31,0,0,1,250.19,58.8Z" transform="translate(2760.96 7455.997)" fill="#3a2c6d"/>
    <path id="Path_237" data-name="Path 237" d="M249,58.1l.86.5c.07,0,.06.11,0,.16l-.82.47a.28.28,0,0,1-.28,0l-.86-.49c-.07,0-.07-.12,0-.16l.82-.48a.31.31,0,0,1,.28,0Z" transform="translate(2760.96 7455.997)" fill="#3a2c6d"/>
    <path id="Path_238" data-name="Path 238" d="M247.74,57.39l.87.5c.07,0,.06.11,0,.16l-.83.48a.32.32,0,0,1-.27,0l-.87-.5c-.07,0-.06-.11,0-.16l.83-.48a.32.32,0,0,1,.27,0Z" transform="translate(2760.96 7455.997)" fill="#3a2c6d"/>
    <path id="Path_239" data-name="Path 239" d="M246.52,56.69l.86.5c.08,0,.07.11,0,.15l-.83.48a.31.31,0,0,1-.28,0l-.86-.5c-.07,0-.06-.11,0-.16l.82-.47a.31.31,0,0,1,.29,0Z" transform="translate(2760.96 7455.997)" fill="#3a2c6d"/>
    <path id="Path_240" data-name="Path 240" d="M245.3,56l.86.5c.07,0,.06.11,0,.16l-.82.48a.34.34,0,0,1-.28,0l-.86-.5c-.07,0-.06-.11,0-.16L245,56a.31.31,0,0,1,.3,0Z" transform="translate(2760.96 7455.997)" fill="#3a2c6d"/>
    <path id="Path_241" data-name="Path 241" d="M244.07,55.27l.87.5c.07,0,.06.12,0,.16l-.83.48a.29.29,0,0,1-.27,0l-.87-.5c-.07,0-.06-.11,0-.16l.83-.47a.29.29,0,0,1,.27-.01Z" transform="translate(2760.96 7455.997)" fill="#3a2c6d"/>
    <path id="Path_242" data-name="Path 242" d="M258.75,63.75l1.79,1c.07,0,.06.11,0,.16l-.83.48a.32.32,0,0,1-.27,0l-1.79-1c-.07,0-.06-.11,0-.16l.82-.47A.31.31,0,0,1,258.75,63.75Z" transform="translate(2760.96 7455.997)" fill="#3a2c6d"/>
    <path id="Path_243" data-name="Path 243" d="M259.32,62.71l.86.5c.08,0,.07.11,0,.15l-.82.48a.31.31,0,0,1-.28,0l-.86-.5c-.07,0-.06-.11,0-.16l.82-.47a.31.31,0,0,1,.28,0Z" transform="translate(2760.96 7455.997)" fill="#3a2c6d"/>
    <path id="Path_244" data-name="Path 244" d="M258.1,62l.86.5c.07,0,.06.11,0,.16l-.82.48a.34.34,0,0,1-.28,0l-.86-.5c-.07,0-.06-.11,0-.16l.82-.48a.31.31,0,0,1,.28,0Z" transform="translate(2760.96 7455.997)" fill="#3a2c6d"/>
    <path id="Path_245" data-name="Path 245" d="M256.87,61.29l.87.5c.07,0,.06.12,0,.16l-.83.48a.29.29,0,0,1-.27,0l-.87-.5c-.07,0-.06-.11,0-.16l.83-.47a.29.29,0,0,1,.27-.01Z" transform="translate(2760.96 7455.997)" fill="#3a2c6d"/>
    <path id="Path_246" data-name="Path 246" d="M255.65,60.59l.87.5c.07,0,.06.11,0,.16l-.83.47a.26.26,0,0,1-.27,0l-.87-.49a.09.09,0,0,1,0-.16l.83-.48a.29.29,0,0,1,.27,0Z" transform="translate(2760.96 7455.997)" fill="#3a2c6d"/>
    <path id="Path_247" data-name="Path 247" d="M254.43,59.88l.86.5c.07,0,.07.11,0,.16l-.82.48a.34.34,0,0,1-.28,0l-.86-.5c-.07,0-.06-.11,0-.16l.82-.48a.34.34,0,0,1,.28,0Z" transform="translate(2760.96 7455.997)" fill="#3a2c6d"/>
    <path id="Path_248" data-name="Path 248" d="M253.21,59.18l.86.5c.07,0,.06.11,0,.15l-.82.48a.31.31,0,0,1-.28,0l-.86-.5c-.07,0-.07-.11,0-.16l.82-.47a.31.31,0,0,1,.28,0Z" transform="translate(2760.96 7455.997)" fill="#3a2c6d"/>
    <path id="Path_249" data-name="Path 249" d="M252,58.47l.87.5c.07,0,.06.11,0,.16l-.83.48a.32.32,0,0,1-.27,0l-.87-.5c-.07,0-.06-.11,0-.16l.83-.48a.32.32,0,0,1,.27,0Z" transform="translate(2760.96 7455.997)" fill="#3a2c6d"/>
    <path id="Path_250" data-name="Path 250" d="M250.76,57.76l.87.5c.07,0,.06.12,0,.16l-.83.48a.29.29,0,0,1-.27,0l-.87-.5c-.07,0-.06-.11,0-.16l.83-.47a.29.29,0,0,1,.27-.01Z" transform="translate(2760.96 7455.997)" fill="#3a2c6d"/>
    <path id="Path_251" data-name="Path 251" d="M249.54,57.06l.86.5c.07,0,.06.11,0,.16l-.82.47a.31.31,0,0,1-.28,0l-.86-.5c-.07,0-.06-.12,0-.16l.82-.48a.31.31,0,0,1,.28.01Z" transform="translate(2760.96 7455.997)" fill="#3a2c6d"/>
    <path id="Path_252" data-name="Path 252" d="M248.32,56.35l.86.5c.07,0,.06.11,0,.16l-.82.48a.34.34,0,0,1-.28,0l-.86-.5c-.08,0-.07-.11,0-.16l.82-.48a.34.34,0,0,1,.28,0Z" transform="translate(2760.96 7455.997)" fill="#3a2c6d"/>
    <path id="Path_253" data-name="Path 253" d="M247.09,55.65l.87.5c.07,0,.06.11,0,.16l-.83.47a.29.29,0,0,1-.27,0l-.87-.5c-.07,0-.06-.11,0-.15l.83-.48a.29.29,0,0,1,.27,0Z" transform="translate(2760.96 7455.997)" fill="#3a2c6d"/>
    <path id="Path_254" data-name="Path 254" d="M244.36,54.07l2.38,1.37c.07,0,.06.11,0,.16l-.83.48a.34.34,0,0,1-.28,0l-2.37-1.38c-.07,0-.07-.11,0-.15l.82-.48a.31.31,0,0,1,.28,0Z" transform="translate(2760.96 7455.997)" fill="#3a2c6d"/>
    <path id="Path_255" data-name="Path 255" d="M260.54,63.41l1.18.68c.07,0,.06.12,0,.16l-.82.48a.31.31,0,0,1-.28,0l-1.18-.68c-.07,0-.06-.11,0-.16l.83-.48a.32.32,0,0,1,.27,0Z" transform="translate(2760.96 7455.997)" fill="#3a2c6d"/>
    <path id="Path_256" data-name="Path 256" d="M239.57,56.83l17.36,10c.07,0,.07.11,0,.16l-.41.23a.29.29,0,0,1-.27,0l-17.37-10c-.07,0-.06-.11,0-.16l.41-.24a.34.34,0,0,1,.28.01Z" transform="translate(2760.96 7455.997)" fill="#3a2c6d"/>
    <path id="_Контур_4" data-name="&lt;Контур&gt;" d="M259.89,57.28l-.12.06-3,1.74L251.44,56l-.11-.07,3.11-1.79Z" transform="translate(2760.96 7455.997)" fill="#bfbfbf"/>
    <path id="_Контур_5" data-name="&lt;Контур&gt;" d="M259.77,57.34l-3,1.74L251.44,56l3-1.73Z" transform="translate(2760.96 7455.997)" fill="#e5e5e5"/>
    <path id="_Контур_6" data-name="&lt;Контур&gt;" d="M268.44,61.32v.27a1.09,1.09,0,0,1-.54.95l-10.58,6.1a1.07,1.07,0,0,1-1.09,0l-19.14-11a1.1,1.1,0,0,1-.55-1v-.27l20.23,11.68Z" transform="translate(2760.96 7455.997)" fill="#e5e5e5"/>
    <path id="_Контур_7" data-name="&lt;Контур&gt;" d="M256.47,68.22a1.3,1.3,0,0,1-1.12-.08l-19-11a1.29,1.29,0,0,1-.63-.91l-2.09-12.44a1.489,1.489,0,0,1,0-.21,1.27,1.27,0,0,1,.39-.92l19.8,11.43a1,1,0,0,1,.46.67Z" transform="translate(2760.96 7455.997)" fill="#f4f4f4"/>
    <path id="_Контур_8" data-name="&lt;Контур&gt;" d="M256.77,68.06l-.13.08-.17.08-2.26-13.46a1,1,0,0,0-.46-.67L234,42.66a.86.86,0,0,1,.26-.2L254.1,53.91a1,1,0,0,1,.47.67Z" transform="translate(2760.96 7455.997)" fill="#e5e5e5"/>
    <path id="_Контур_9" data-name="&lt;Контур&gt;" d="M271.16,14.83s-.25,4.73-.14,5.15,2.17,1.81,2.77,2.31-3.27,4.32-5.15,5.18-7.86-1.41-8-4.35,1-5.39,1.94-5.52S271.16,14.83,271.16,14.83Z" transform="translate(2760.96 7455.997)" fill="#ffcea9"/>
    <path id="_Контур_10" data-name="&lt;Контур&gt;" d="M271.68,20.8s-3.43,5.12-8.22,5.6c-1.51-1.49-1.65-6.79.44-8.48,0,0-1.92-1.56-3.24-1.25a6.75,6.75,0,0,0-3,3.77,30.8,30.8,0,0,0-1.69,11c.08,5,0,17.71,0,17.71a10.81,10.81,0,0,0,5.05,7.27A15.59,15.59,0,0,0,272.43,58c2.43-.57,3.33-1.92,4.17-3.69-.22-3.51-1.61-10.76-1-15.19s1.52-7.73,1.76-11.3-.47-3.51-2.27-4.79a28.111,28.111,0,0,0-3.41-2.23Z" transform="translate(2760.96 7455.997)" fill="#f4f4f4"/>
    <path id="_Контур_11" data-name="&lt;Контур&gt;" d="M266.18,61.59a23,23,0,0,1,2.69-1.54,5.71,5.71,0,0,0,2.3-1.4c.84-.82,2.22-3.94,3.21-7a31.2,31.2,0,0,0,1.15-10.57c-.41-4.27-1.95-10.24-2.34-12.69s.4-3.44,1.55-4.34c1.34-1.06,3.19-.59,4.18,2.85a66,66,0,0,1,2.2,14.57,33.181,33.181,0,0,1-1.67,10.77,38.88,38.88,0,0,1-4.1,8.46c-.47.79-.63,1.5-1.35,3.12A10.88,10.88,0,0,1,270.86,68c-1.2.86-1.77,1-2.06.82s-.28-.59.23-1a9.08,9.08,0,0,0,2.14-2.41s-1.05,1.06-1.74,1.64a9,9,0,0,1-2,1.28c-.7.31-1.68-.29-1.18-.76s1-.71,2-1.58a8.65,8.65,0,0,0,1.43-1.55,16.711,16.711,0,0,1-2.23,1.45,3.81,3.81,0,0,1-2,.55c-.37,0-.82-.54-.12-1A13.71,13.71,0,0,0,268,63.55c.77-.76,1.2-1.41,1-1.42s-.64.46-1.54.75-1.87,0-2-.47S265.34,62,266.18,61.59Z" transform="translate(2760.96 7455.997)" fill="#ffcea9"/>
    <path id="_Контур_12" data-name="&lt;Контур&gt;" d="M260.44,7.77h0c.57-3.67,3.22-6.45,7-6.24a7.28,7.28,0,0,1,3.71,13.3,7.45,7.45,0,0,1-.59,1.61C269.23,18,265.18,19,264,18.8a3.45,3.45,0,0,1-3-2.47C259.74,13.45,260.13,9.59,260.44,7.77Z" transform="translate(2760.96 7455.997)" fill="#ffcea9"/>
    <path id="Path_257" data-name="Path 257" d="M271.16,14.83h0l-.35-3.21s2.62-6.78-3.57-5.48c-4.08.86-5.11,1.24-6.35-1.5S264-.57,269.23.12a7.18,7.18,0,0,1,6.44,7.29C275.54,9.43,275,13.51,271.16,14.83Z" transform="translate(2760.96 7455.997)" fill="#3a2c6d"/>
    <path id="Path_258" data-name="Path 258" d="M281.75,33.23s-3.38,3.36-7.37,2.39c-.57-.39-1.95-8.24-1.95-8.24s0-4.35,3.34-4.24S281.75,33.23,281.75,33.23Z" transform="translate(2760.96 7455.997)" fill="#ededed"/>
    <path id="Path_259" data-name="Path 259" d="M256.25,26.71a3.67,3.67,0,0,1-2.5-1.11c.14-1.76,2.39-8.44,6.91-8.93a8.35,8.35,0,0,0-2.82,3.41,43.309,43.309,0,0,0-1.59,6.63Z" transform="translate(2760.96 7455.997)" fill="#ededed"/>
    <path id="Path_260" data-name="Path 260" d="M459.4,311.15l-83.52-48.22c-5.25-3-9.5-11.15-9.5-18.14V113.38c0-7,4.25-10.2,9.5-7.18l83.52,48.23c5.24,3,9.49,11.15,9.49,18.14V304C468.89,311,464.64,314.18,459.4,311.15Z" transform="translate(2760.96 7455.997)" fill="#211b49"/>
    <path id="Path_262" data-name="Path 262" d="M367.94,106.57a16.71,16.71,0,0,1,2.64-1.27l2.12,4.19Z" transform="translate(2760.96 7455.997)" fill="#211b49"/>
    <path id="Path_263" data-name="Path 263" d="M457.21,312.25,373.68,264c-5.24-3-9.49-11.15-9.49-18.14V114.48c0-7,4.25-10.21,9.49-7.18l83.53,48.23c5.24,3,9.49,11.14,9.49,18.13V305.07C466.7,312.06,462.45,315.28,457.21,312.25Z" transform="translate(2760.96 7455.997)" fill="#2e245b"/>
    <path id="Path_264" data-name="Path 264" d="M388.87,134.7l-15.19-8.77v-5.48l15.19,8.77Z" transform="translate(2760.96 7455.997)" fill="#a298e2"/>
    <path id="Path_265" data-name="Path 265" d="M456.26,173.61l-64.54-37.27v-5.47l64.54,37.26Z" transform="translate(2760.96 7455.997)" fill="#c33afc"/>
    <path id="Path_266" data-name="Path 266" d="M388.87,152.24l-15.19-8.77v-5.48l15.19,8.77Z" transform="translate(2760.96 7455.997)" fill="#a298e2"/>
    <path id="Path_267" data-name="Path 267" d="M434.43,178.54l-42.71-24.66V148.4l42.71,24.66Z" transform="translate(2760.96 7455.997)" fill="#f4ce2c"/>
    <path id="Path_268" data-name="Path 268" d="M388.87,161l-15.19-8.76v-5.48l15.19,8.76Z" transform="translate(2760.96 7455.997)" fill="#a298e2"/>
    <path id="Path_269" data-name="Path 269" d="M444.87,193.34l-53.15-30.69v-5.48l53.15,30.69Z" transform="translate(2760.96 7455.997)" fill="#ff8657"/>
    <path id="Path_270" data-name="Path 270" d="M388.87,169.77,373.68,161v-5.48l15.19,8.77Z" transform="translate(2760.96 7455.997)" fill="#a298e2"/>
    <path id="Path_271" data-name="Path 271" d="M428.74,192.79l-37.02-21.37v-5.48l37.02,21.37Z" transform="translate(2760.96 7455.997)" fill="#a298e2"/>
    <path id="Path_272" data-name="Path 272" d="M388.87,143.47l-15.19-8.77v-5.48l15.19,8.77Z" transform="translate(2760.96 7455.997)" fill="#a298e2"/>
    <path id="Path_273" data-name="Path 273" d="M423.99,163.75l-32.27-18.64v-5.48l32.27,18.63Z" transform="translate(2760.96 7455.997)" fill="#4d3bff"/>
    <path id="Path_274" data-name="Path 274" d="M388.87,178.54l-15.19-8.77v-5.48l15.19,8.77Z" transform="translate(2760.96 7455.997)" fill="#a298e2"/>
    <path id="Path_275" data-name="Path 275" d="M410.7,191.14l-18.98-10.96V174.7l18.98,10.96Z" transform="translate(2760.96 7455.997)" fill="#c33afc"/>
    <path id="Path_276" data-name="Path 276" d="M388.87,196.07l-15.19-8.76v-5.48l15.19,8.77Z" transform="translate(2760.96 7455.997)" fill="#a298e2"/>
    <path id="Path_277" data-name="Path 277" d="M451.52,232.24l-59.8-34.52v-5.48l59.8,34.52Z" transform="translate(2760.96 7455.997)" fill="#f4ce2c"/>
    <path id="Path_278" data-name="Path 278" d="M388.87,204.84l-15.19-8.77v-5.48l15.19,8.77Z" transform="translate(2760.96 7455.997)" fill="#a298e2"/>
    <path id="Path_279" data-name="Path 279" d="M409.75,216.9l-18.03-10.41v-5.48l18.03,10.41Z" transform="translate(2760.96 7455.997)" fill="#ff8657"/>
    <path id="Path_280" data-name="Path 280" d="M388.87,213.61l-15.19-8.77v-5.48l15.19,8.77Z" transform="translate(2760.96 7455.997)" fill="#a298e2"/>
    <path id="Path_281" data-name="Path 281" d="M444.87,245.94l-53.15-30.69v-5.47l53.15,30.68Z" transform="translate(2760.96 7455.997)" fill="#a298e2"/>
    <path id="Path_282" data-name="Path 282" d="M388.87,187.31l-15.19-8.77v-5.48l15.19,8.77Z" transform="translate(2760.96 7455.997)" fill="#a298e2"/>
    <path id="Path_283" data-name="Path 283" d="M442.02,218l-50.3-29.05v-5.48l50.3,29.05Z" transform="translate(2760.96 7455.997)" fill="#4d3bff"/>
    <path id="Path_284" data-name="Path 284" d="M388.87,222.38l-15.19-8.77v-5.48l15.19,8.77Z" transform="translate(2760.96 7455.997)" fill="#a298e2"/>
    <path id="Path_285" data-name="Path 285" d="M398.36,227.86l-6.64-3.84v-5.48l6.64,3.84Z" transform="translate(2760.96 7455.997)" fill="#c33afc"/>
    <path id="Path_286" data-name="Path 286" d="M388.87,239.91l-15.19-8.76v-5.48l15.19,8.77Z" transform="translate(2760.96 7455.997)" fill="#a298e2"/>
    <path id="Path_287" data-name="Path 287" d="M404.06,248.68l-12.34-7.12v-5.48l12.34,7.12Z" transform="translate(2760.96 7455.997)" fill="#f4ce2c"/>
    <path id="Path_288" data-name="Path 288" d="M388.87,248.68l-15.19-8.77v-5.48l15.19,8.77Z" transform="translate(2760.96 7455.997)" fill="#a298e2"/>
    <path id="Path_289" data-name="Path 289" d="M423.99,268.96l-32.27-18.63v-5.48l32.27,18.63Z" transform="translate(2760.96 7455.997)" fill="#ff8657"/>
    <path id="Path_290" data-name="Path 290" d="M388.87,257.45l-15.19-8.77V243.2l15.19,8.77Z" transform="translate(2760.96 7455.997)" fill="#a298e2"/>
    <path id="Path_291" data-name="Path 291" d="M442.97,288.69l-51.25-29.6v-5.48l51.25,29.6Z" transform="translate(2760.96 7455.997)" fill="#a298e2"/>
    <path id="Path_292" data-name="Path 292" d="M388.87,231.15l-15.19-8.77V216.9l15.19,8.77Z" transform="translate(2760.96 7455.997)" fill="#a298e2"/>
    <path id="Path_293" data-name="Path 293" d="M456.26,270.06l-64.54-37.27v-5.48l64.54,37.26Z" transform="translate(2760.96 7455.997)" fill="#4d3bff"/>
    <path id="Path_294" data-name="Path 294" d="M36.12,211.94,27,207.26l-19.11,11c-4.33,2.5-7.85.48-7.85-4.53V192.91a17.36,17.36,0,0,1,7.85-13.6L121.7,113.58c4.33-2.5,7.85-.47,7.85,4.53V139a17.36,17.36,0,0,1-7.85,13.6L45.18,196.74" transform="translate(2760.96 7455.997)" fill="#b1b4c4"/>
    <path id="Path_295" data-name="Path 295" d="M126.7,112.77l4.3,1.74-3.64,3.74-2.58-4.13Z" transform="translate(2760.96 7455.997)" fill="#b1b4c4"/>
    <path id="Path_298" data-name="Path 298" d="M49.71,198.55l76.52-44.17a17.39,17.39,0,0,0,7.85-13.6V119.93c0-5-3.52-7-7.85-4.54L12.38,181.12a17.38,17.38,0,0,0-7.85,13.6v20.85c0,5,3.52,7,7.85,4.53l19.11-11,9.16,4.69Z" transform="translate(2760.96 7455.997)" fill="#e9eaf2"/>
    <path id="Path_299" data-name="Path 299" d="M123.87,133.53l-109.13,63v-7.25l109.13-63.01Z" transform="translate(2760.96 7455.997)" fill="#8c50ff"/>
    <path id="Path_300" data-name="Path 300" d="M86.19,167.98,14.74,209.23v-7.26l71.45-41.25Z" transform="translate(2760.96 7455.997)" fill="#8c50ff"/>
  </g>
</svg>
