<svg xmlns="http://www.w3.org/2000/svg" width="246.355" height="418.265" viewBox="0 0 246.355 418.265">
  <g id="Group_33" data-name="Group 33" transform="translate(-3321 -7456)">
    <path id="Path_13" data-name="Path 13" d="M238.54,7.668c.187-.051.365-.11.552-.153l.51-.11.663-.1h1.351a6.567,6.567,0,0,1,.926.119l.212.051a5.853,5.853,0,0,1,.688.2l.212.076a7.126,7.126,0,0,1,.85.382h0L232.092.872h-.068A4.756,4.756,0,0,0,231.4.566h-.127l-.2-.076c-.11,0-.212-.085-.323-.11l-.365-.085-.221-.051a.493.493,0,0,0-.119,0,7.187,7.187,0,0,0-.748-.093H227.5l-.306.068-.51.11-.212.025-.28.093-.849.306c-.1.042-.2.059-.314.11l-.178.085a14.893,14.893,0,0,0-1.563.782L14.62,122.164,27,129.359,235.6,8.925a14.994,14.994,0,0,1,1.572-.782l.484-.2Z" transform="translate(3318.8 7455.85)" fill="#e9eaf4"/>
    <path id="Path_14" data-name="Path 14" d="M12.836,332.229l-.459-159.706a19.241,19.241,0,0,1,.144-2.192,1.407,1.407,0,0,1,.068-.527,5.072,5.072,0,0,1,.17-.994c.068-.331.085-.459.136-.688s.1-.416.153-.629.153-.595.238-.85l.153-.51c.11-.34.221-.671.34-1,.042-.136.093-.272.144-.408.17-.459.357-.917.552-1.368a1.205,1.205,0,0,1,.068-.153c.178-.408.374-.85.569-1.215.059-.119.127-.246.187-.374q.289-.561.612-1.121l.119-.212c.246-.433.51-.85.782-1.274l.246-.357a8.772,8.772,0,0,1,.612-.85l.348-.467.561-.722.484-.586c.153-.187.314-.365.476-.544a9.924,9.924,0,0,1,.849-.85l.408-.416a22.934,22.934,0,0,1,1.758-1.546l.323-.238a17.7,17.7,0,0,1,1.937-1.317l-12.377-7.2a18.691,18.691,0,0,0-1.945,1.317l-.323.238c-.595.476-1.181.994-1.75,1.546l-.153.127c-.085.093-.17.2-.263.289-.28.28-.561.578-.849.85-.093.1-.187.187-.272.289l-.2.255c-.17.187-.323.391-.484.586s-.221.255-.323.391-.161.221-.246.331-.229.306-.34.467l-.238.323c-.136.187-.255.374-.382.569l-.238.357-.1.153c-.221.34-.433.7-.646,1.053v.068l-.119.212c-.144.255-.289.51-.425.765l-.178.357-.187.374c-.059.11-.119.221-.17.331-.136.289-.272.586-.4.85l-.076.153h0c-.161.365-.314.739-.459,1.113a.267.267,0,0,1-.068.212,1.582,1.582,0,0,0-.153.408c-.051.136-.136.374-.2.561s-.093.289-.136.442-.11.34-.161.51-.068.212-.093.314-.093.382-.144.578l-.153.637-.051.212a2.178,2.178,0,0,1-.085.459c-.059.34-.119.671-.17,1v.527A19.241,19.241,0,0,0,0,165.319L.45,325.025c0,3.933,1.4,6.694,3.636,7.994l12.377,7.2C14.229,338.923,12.844,336.162,12.836,332.229Z" transform="translate(3321 7434.213)" fill="#d5d7e2"/>
    <path id="Path_15" data-name="Path 15" d="M235.593,10.177c6.889-3.976,12.479-.79,12.5,7.127l.45,159.706c0,7.909-5.53,17.534-12.42,21.509L27.525,318.987c-6.881,3.976-12.479.79-12.5-7.119L14.57,152.162c0-7.917,5.539-17.542,12.42-21.518Z" transform="translate(3318.807 7454.599)" fill="#f4f6f9"/>
    <path id="Path_16" data-name="Path 16" d="M266.436,82.45v1.444a23.59,23.59,0,0,0-1.538,4.579,21.713,21.713,0,0,0-.773,5.1l1.291-.748v1.869l-4.9,2.829V95.66l1.283-.739a21.3,21.3,0,0,1,.849-4.57,32.946,32.946,0,0,1,1.7-4.885l-2.633,1.529v1.64l-1.623.934V86.1Z" transform="translate(3281.856 7443.464)" fill="#e26d6d"/>
    <path id="Path_17" data-name="Path 17" d="M259.239,117.94l.025,9.795,1.325-.756v1.869l-4.97,2.863v-1.869l1.4-.807L257,121.109l-1.478.858-.008-1.869Z" transform="translate(3282.546 7438.123)" fill="#e26d6d"/>
    <path id="Path_18" data-name="Path 18" d="M271.058,119.284l-.985.569v1.5l.85-.493v1.7l-4.069,2.345v-1.7l1.13-.654v-1.5l-3.738,2.158a5.82,5.82,0,0,0-.535-1.181l4.341-9.684,2-1.164v7.068l.994-.569Zm-3.084.178v-4.069l-2.548,5.53,2.548-1.461" transform="translate(3281.312 7439.14)" fill="#e26d6d"/>
    <path id="Path_19" data-name="Path 19" d="M259.046,149.214c.968-.552,1.7-.688,2.285-.382a1.843,1.843,0,0,1,.849,1.809,4.926,4.926,0,0,1-.238,1.512,6.905,6.905,0,0,1-.637,1.41c-.263.433-.705,1.1-1.359,2.013a17.72,17.72,0,0,0-1.818,2.956,6.143,6.143,0,0,0-.484,1.461l2.956-1.7v-1.512l1.623-.943-.068,3.44-6.516,3.763a11.781,11.781,0,0,1,.221-2.548,9.608,9.608,0,0,1,.7-2.03,22.652,22.652,0,0,1,1.376-2.549c.773-1.274,1.274-2.158,1.521-2.684a3.551,3.551,0,0,0,.365-1.512.8.8,0,0,0-.28-.714.612.612,0,0,0-.7.051,2.039,2.039,0,0,0-.9,1.087,6.3,6.3,0,0,0-.314,2.064l-1.86.977a7.586,7.586,0,0,1,.425-2.795,5.947,5.947,0,0,1,1.189-1.937A6.855,6.855,0,0,1,259.046,149.214Z" transform="translate(3282.527 7433.498)" fill="#e26d6d"/>
    <path id="Path_20" data-name="Path 20" d="M270.141,143.12l.025,9.795,1.334-.773.009,1.886-4.97,2.871-.009-1.886,1.4-.807-.017-7.926-1.5.858v-1.869Z" transform="translate(3280.904 7434.333)" fill="#e26d6d"/>
    <path id="Path_21" data-name="Path 21" d="M258.546,181a2.4,2.4,0,0,1,2.277-.4,1.86,1.86,0,0,1,.85,1.826,4.782,4.782,0,0,1-.238,1.5,7.424,7.424,0,0,1-.637,1.419c-.255.433-.705,1.087-1.351,2a17.728,17.728,0,0,0-1.826,2.948,6.185,6.185,0,0,0-.433,1.5l2.956-1.7v-1.546l1.623-.943-.068,3.44-6.5,3.755a11.4,11.4,0,0,1,.2-2.5,10.681,10.681,0,0,1,.7-2.03,26,26,0,0,1,1.376-2.548A30.809,30.809,0,0,0,259,185.055a3.4,3.4,0,0,0,.365-1.5.849.849,0,0,0-.28-.731.629.629,0,0,0-.7.059,2.039,2.039,0,0,0-.849,1.087,6.287,6.287,0,0,0-.331,2.064l-1.86.977a7.56,7.56,0,0,1,.425-2.795,6.346,6.346,0,0,1,1.189-1.928A6.855,6.855,0,0,1,258.546,181Z" transform="translate(3282.593 7428.714)" fill="#e26d6d"/>
    <path id="Path_22" data-name="Path 22" d="M270.059,180.051c1.181-.161,1.775.459,1.775,1.86a5.445,5.445,0,0,1-.9,3,7.391,7.391,0,0,1-2.668,2.473c-1.172.68-2.064.85-2.65.552a2.03,2.03,0,0,1-.849-1.954,5.488,5.488,0,0,1,1.792-3.882c-1-.068-1.5-.671-1.5-1.818a5.03,5.03,0,0,1,.849-2.727,6.941,6.941,0,0,1,2.379-2.209,2.929,2.929,0,0,1,2.413-.552c.561.229.85.8.85,1.7A5.768,5.768,0,0,1,270.059,180.051Zm-.765,4.426a3.178,3.178,0,0,0,.391-1.538,1.308,1.308,0,0,0-.4-1.1c-.246-.2-.586-.178-1,.068a2.634,2.634,0,0,0-.985,1.07,3.246,3.246,0,0,0-.382,1.563,1.257,1.257,0,0,0,.382,1.1.926.926,0,0,0,1-.1,2.6,2.6,0,0,0,.994-1.053m-1.894-6.414a2.718,2.718,0,0,0-.331,1.368,1.121,1.121,0,0,0,.323.909.712.712,0,0,0,.85-.068,2.311,2.311,0,0,0,.849-.934,2.812,2.812,0,0,0,.314-1.317,1.181,1.181,0,0,0-.306-.943.726.726,0,0,0-.85.068,2.379,2.379,0,0,0-.849.917" transform="translate(3281.156 7429.581)" fill="#e26d6d"/>
    <g id="Group_21" data-name="Group 21" transform="translate(3348.088 7545)" opacity="0.8">
      <path id="Path_23" data-name="Path 23" d="M41.081,212.82l.025,9.812,1.325-.765.008,1.869L37.47,226.6l-.008-1.869,1.4-.807L38.838,216l-1.478.858v-1.886Z" transform="translate(-32.711 -121.157)" fill="#3a4151"/>
      <path id="Path_24" data-name="Path 24" d="M76.048,192.343a2.42,2.42,0,0,1,2.277-.4,1.9,1.9,0,0,1,.849,1.826,4.6,4.6,0,0,1-.28,1.512,7.348,7.348,0,0,1-.637,1.41q-.382.646-1.351,2.013a16.489,16.489,0,0,0-1.826,2.956,5.947,5.947,0,0,0-.433,1.5l2.965-1.7v-1.521L79.233,199l-.076,3.44L72.65,206.2a12.42,12.42,0,0,1,.212-2.5,9.889,9.889,0,0,1,.714-2.03,25.281,25.281,0,0,1,1.359-2.548,30.073,30.073,0,0,0,1.529-2.693,3.339,3.339,0,0,0,.365-1.5.849.849,0,0,0-.28-.731.637.637,0,0,0-.7.051,2.107,2.107,0,0,0-.849,1.1,6.057,6.057,0,0,0-.323,2.064l-1.86.968a7.4,7.4,0,0,1,.433-2.795,6.218,6.218,0,0,1,1.155-1.92A6.9,6.9,0,0,1,76.048,192.343Z" transform="translate(-38.021 -117.993)" fill="#3a4151"/>
      <path id="Path_25" data-name="Path 25" d="M113.168,170.89a2.808,2.808,0,0,1,2.336-.527c.561.229.85.85.85,1.767a5.224,5.224,0,0,1-1.521,3.534c1.257-.263,1.886.306,1.894,1.7a5.751,5.751,0,0,1-.96,3.143,7.246,7.246,0,0,1-2.464,2.353q-3.262,1.886-3.534-1.7l1.962-1.317c0,1.359.476,1.792,1.351,1.291a2.633,2.633,0,0,0,.968-1.062,3.211,3.211,0,0,0,.365-1.461,1.249,1.249,0,0,0-.374-1.036c-.238-.2-.612-.161-1.1.119-.119.076-.263.17-.459.28v-1.962a3.4,3.4,0,0,0,1.266-1.181,2.642,2.642,0,0,0,.391-1.317.849.849,0,0,0-.306-.756.739.739,0,0,0-.79.076,2.285,2.285,0,0,0-1.07,2.175l-1.92.977a5.751,5.751,0,0,1,.926-2.956,6.363,6.363,0,0,1,2.183-2.141Z" transform="translate(-43.608 -114.753)" fill="#3a4151"/>
      <path id="Path_26" data-name="Path 26" d="M154.635,155.442l-.985.569v1.5l.85-.493v1.7l-4.078,2.353v-1.7l1.121-.646v-1.47l-3.721,2.149a5.539,5.539,0,0,0-.552-1.181l4.349-9.693,2-1.147v7.059l.985-.569Zm-3.084.187v-4.078l-2.506,5.53,2.549-1.453" transform="translate(-49.252 -111.309)" fill="#3a4151"/>
      <path id="Path_27" data-name="Path 27" d="M191.729,125.57v2.744l-1.5.85-.136-.782-2.608,1.5-.127,2.88a5.547,5.547,0,0,1,1.7-1.7c.985-.569,1.758-.654,2.311-.229a2.65,2.65,0,0,1,.849,2.234,6.932,6.932,0,0,1-.85,3.356,6.745,6.745,0,0,1-2.659,2.693,2.7,2.7,0,0,1-2.37.476,2.124,2.124,0,0,1-1.053-1.8l1.928-1.385c.127,1.053.578,1.359,1.342.917a2.548,2.548,0,0,0,1.019-1.1,3.661,3.661,0,0,0,.34-1.631c0-1.385-.442-1.818-1.325-1.308a3.135,3.135,0,0,0-1.215,1.614h-1.64l.289-6.091Z" transform="translate(-54.974 -108.026)" fill="#3a4151"/>
      <path id="Path_28" data-name="Path 28" d="M228.776,109.473c.535.306.807,1.053.85,2.226a6.975,6.975,0,0,1-.85,3.491,6.031,6.031,0,0,1-2.251,2.319c-1.24.714-2.166.773-2.761.161s-.917-1.911-.926-3.933a11.893,11.893,0,0,1,1.011-5.284,7,7,0,0,1,2.778-3.05c1.7-.968,2.642-.493,2.854,1.461l-1.75,1.189c-.2-.849-.595-1.138-1.181-.8a2.735,2.735,0,0,0-1.1,1.563,9.02,9.02,0,0,0-.408,2.667,4.953,4.953,0,0,1,1.792-1.809,1.9,1.9,0,0,1,1.945-.2Zm-1.555,5.224a4.145,4.145,0,0,0,.3-1.7,1.486,1.486,0,0,0-.365-1.189.79.79,0,0,0-.85.051,4.247,4.247,0,0,0-1.283,1.24,5.1,5.1,0,0,0,.416,2.413c.238.34.586.365,1.019.119a1.979,1.979,0,0,0,.8-.968" transform="translate(-60.624 -104.918)" fill="#3a4151"/>
      <path id="Path_29" data-name="Path 29" d="M41.583,249.05c1.181-.17,1.775.45,1.784,1.869a5.6,5.6,0,0,1-.9,3,7.569,7.569,0,0,1-2.667,2.455c-1.181.68-2.056.849-2.65.552a2,2,0,0,1-.892-1.954,5.386,5.386,0,0,1,1.792-3.874c-.994-.085-1.5-.68-1.5-1.826a4.817,4.817,0,0,1,.85-2.71,6.8,6.8,0,0,1,2.37-2.226,2.942,2.942,0,0,1,2.421-.552c.569.229.849.8.849,1.7a5.7,5.7,0,0,1-1.453,3.568Zm-.765,4.417a3.092,3.092,0,0,0,.391-1.538,1.359,1.359,0,0,0-.382-1.1c-.263-.2-.595-.178-1.011.06a2.659,2.659,0,0,0-.985,1.079,3.33,3.33,0,0,0-.391,1.563,1.223,1.223,0,0,0,.4,1.087.85.85,0,0,0,.985-.076,2.642,2.642,0,0,0,.994-1.07m-1.886-6.414a2.718,2.718,0,0,0-.323,1.368,1.079,1.079,0,0,0,.314.9c.212.178.5.153.85-.059a2.277,2.277,0,0,0,.85-.934,2.786,2.786,0,0,0,.323-1.308,1.181,1.181,0,0,0-.323-.951c-.2-.17-.493-.144-.85.085a2.311,2.311,0,0,0-.849.9" transform="translate(-32.542 -125.803)" fill="#3a4151"/>
      <path id="Path_30" data-name="Path 30" d="M78.491,223.4c.6.569.926,1.937.934,4.069q0,6.04-3.729,8.2a2.251,2.251,0,0,1-2,.357c-.527-.229-.849-.849-.9-1.835L74.49,233c.2.85.595,1.147,1.164.85.909-.518,1.427-1.928,1.538-4.247a5.836,5.836,0,0,1-1.886,1.826,1.775,1.775,0,0,1-1.937.136,2.481,2.481,0,0,1-.8-2.209,6.8,6.8,0,0,1,.85-3.322,6.1,6.1,0,0,1,2.387-2.5C77,222.873,77.871,222.831,78.491,223.4Zm-1.257,4.519v-.127a4.6,4.6,0,0,0-.374-2.056c-.255-.476-.62-.569-1.138-.272a1.945,1.945,0,0,0-.765.96,4.1,4.1,0,0,0-.323,1.589,1.886,1.886,0,0,0,.323,1.2c.212.255.535.246.96,0a4.6,4.6,0,0,0,1.291-1.291" transform="translate(-38.01 -122.69)" fill="#3a4151"/>
      <path id="Path_31" data-name="Path 31" d="M109.251,204.71l.034,9.8,1.317-.765.008,1.869-4.961,2.863v-1.869l1.4-.807-.025-7.943-1.487.866-.008-1.869Z" transform="translate(-42.97 -119.937)" fill="#3a4151"/>
      <path id="Path_32" data-name="Path 32" d="M120.208,199.654c.586.705.849,2.022.849,3.942a12.377,12.377,0,0,1-.849,4.987,6.2,6.2,0,0,1-2.591,3.041q-1.7.994-2.6-.051c-.6-.688-.909-2-.909-3.942a12.649,12.649,0,0,1,.849-4.944,6.133,6.133,0,0,1,2.616-3.084C118.739,198.932,119.605,198.949,120.208,199.654Zm-1.631,8.087a23.14,23.14,0,0,0,.2-2.8,11.562,11.562,0,0,0-.28-2.931c-.178-.586-.484-.765-.9-.527a2.3,2.3,0,0,0-.9,1.6,15.078,15.078,0,0,0-.263,3.211,10.746,10.746,0,0,0,.28,2.922c.178.595.484.756.85.518a2.489,2.489,0,0,0,.985-1.988" transform="translate(-44.26 -119.094)" fill="#3a4151"/>
      <path id="Path_33" data-name="Path 33" d="M147.569,182.17l.025,9.795,1.334-.765.008,1.877-4.97,2.871-.009-1.886,1.4-.807-.017-7.926-1.5.867-.008-1.869Z" transform="translate(-48.736 -116.545)" fill="#3a4151"/>
      <path id="Path_34" data-name="Path 34" d="M157.281,176.56l.034,9.795,1.317-.765.008,1.886-4.953,2.863-.008-1.886,1.4-.807-.025-7.926-1.487.858-.009-1.869Z" transform="translate(-50.199 -115.7)" fill="#3a4151"/>
      <path id="Path_35" data-name="Path 35" d="M184.958,161l.025,9.8,1.325-.765.008,1.869-4.97,2.871-.008-1.869,1.4-.807-.025-7.943-1.487.867-.008-1.877Z" transform="translate(-54.361 -113.358)" fill="#3a4151"/>
      <path id="Path_36" data-name="Path 36" d="M193.286,155.9a2.423,2.423,0,0,1,2.294-.408,1.877,1.877,0,0,1,.85,1.826,4.51,4.51,0,0,1-.255,1.5,6.95,6.95,0,0,1-.62,1.419c-.255.433-.705,1.087-1.351,2a17.124,17.124,0,0,0-1.826,2.956,5.946,5.946,0,0,0-.442,1.5l2.965-1.7v-1.521l1.623-.934-.076,3.44-6.507,3.755a11.952,11.952,0,0,1,.2-2.5,10.738,10.738,0,0,1,.7-2,26.717,26.717,0,0,1,1.376-2.548c.773-1.274,1.283-2.158,1.529-2.693a3.593,3.593,0,0,0,.357-1.5.85.85,0,0,0-.272-.731.62.62,0,0,0-.7.051,2.107,2.107,0,0,0-.892,1.1,6.244,6.244,0,0,0-.331,2.064l-1.869.977a7.645,7.645,0,0,1,.442-2.8,6.3,6.3,0,0,1,1.189-1.92,6.745,6.745,0,0,1,1.614-1.342Z" transform="translate(-55.673 -112.507)" fill="#3a4151"/>
      <path id="Path_37" data-name="Path 37" d="M222.271,139.46l.025,9.8,1.325-.765.008,1.869-4.961,2.863-.008-1.869,1.4-.807-.017-7.943-1.5.866v-1.869Z" transform="translate(-59.98 -110.117)" fill="#3a4151"/>
      <path id="Path_38" data-name="Path 38" d="M230.4,134.454a2.854,2.854,0,0,1,2.336-.535c.552.229.849.85.849,1.775a5.2,5.2,0,0,1-1.5,3.534c1.257-.263,1.886.306,1.894,1.7a5.691,5.691,0,0,1-.968,3.143,7.323,7.323,0,0,1-2.472,2.37c-2.175,1.257-3.339.68-3.517-1.7l1.962-1.317c0,1.351.476,1.775,1.342,1.283a2.472,2.472,0,0,0,.96-1.053,3.092,3.092,0,0,0,.382-1.478,1.257,1.257,0,0,0-.374-1.028c-.255-.187-.612-.153-1.1.136-.11.068-.255.144-.45.272v-1.971A3.4,3.4,0,0,0,231,138.4a2.548,2.548,0,0,0,.382-1.325.85.85,0,0,0-.306-.765.773.773,0,0,0-.782.093,2.311,2.311,0,0,0-1.087,2.175l-1.894.926a5.751,5.751,0,0,1,.926-2.956A6.21,6.21,0,0,1,230.4,134.454Z" transform="translate(-61.254 -109.274)" fill="#3a4151"/>
      <path id="Path_39" data-name="Path 39" d="M35.911,278.29l.025,9.795,1.334-.765.008,1.877-4.97,2.871-.008-1.886,1.41-.807-.025-7.926-1.5.858v-1.869Z" transform="translate(-31.932 -131.011)" fill="#3a4151"/>
      <path id="Path_40" data-name="Path 40" d="M47.1,271.55V274.3l-1.478.849-.153-.79-2.608,1.512-.119,2.854a5.573,5.573,0,0,1,1.7-1.7c.994-.578,1.758-.646,2.311-.221a2.659,2.659,0,0,1,.849,2.234,6.881,6.881,0,0,1-.849,3.347,6.6,6.6,0,0,1-2.65,2.684,2.676,2.676,0,0,1-2.379.484,2.124,2.124,0,0,1-1.062-1.733l1.92-1.368c.136,1.045.578,1.342,1.351.9a2.548,2.548,0,0,0,1.011-1.087,3.721,3.721,0,0,0,.34-1.639c0-1.385-.442-1.826-1.325-1.317a3.211,3.211,0,0,0-1.215,1.614H41.119l.272-6.091Z" transform="translate(-33.207 -129.996)" fill="#3a4151"/>
      <path id="Path_41" data-name="Path 41" d="M72.049,257.67l.025,9.795,1.334-.765.008,1.869-4.97,2.863-.008-1.869,1.4-.807-.025-7.926-1.487.858-.008-1.869Z" transform="translate(-37.37 -127.907)" fill="#3a4151"/>
      <path id="Path_42" data-name="Path 42" d="M83.076,256.3c.544.306.849,1.053.849,2.226a6.932,6.932,0,0,1-.849,3.483,6.04,6.04,0,0,1-2.268,2.328c-1.232.714-2.149.765-2.761.17s-.9-1.928-.909-3.95a11.7,11.7,0,0,1,1-5.284,7.059,7.059,0,0,1,2.769-3.041q2.549-1.47,2.854,1.461l-1.7,1.189c-.221-.85-.612-1.138-1.2-.8a2.752,2.752,0,0,0-1.1,1.563,8.5,8.5,0,0,0-.408,2.659,4.961,4.961,0,0,1,1.792-1.792A1.894,1.894,0,0,1,83.076,256.3Zm-1.546,5.233a4.069,4.069,0,0,0,.3-1.7c0-.6-.11-1-.365-1.181a.773.773,0,0,0-.85,0,4.29,4.29,0,0,0-1.266,1.232,5.165,5.165,0,0,0,.4,2.421c.246.331.586.374,1.036.11a1.988,1.988,0,0,0,.782-.951" transform="translate(-38.695 -127.015)" fill="#3a4151"/>
      <path id="Path_43" data-name="Path 43" d="M109.491,235.99l.025,9.795,1.334-.765.008,1.869-4.97,2.863-.008-1.869,1.4-.807-.017-7.926-1.5.858v-1.86Z" transform="translate(-43.006 -124.644)" fill="#3a4151"/>
      <path id="Path_44" data-name="Path 44" d="M121.117,229v1.436a22.861,22.861,0,0,0-1.538,4.579,20.975,20.975,0,0,0-.773,5.1l1.291-.748v1.869l-4.9,2.829v-1.869l1.274-.739a21.577,21.577,0,0,1,.849-4.57,31.745,31.745,0,0,1,1.7-4.885l-2.608,1.5v1.64l-1.631.934v-3.449Z" transform="translate(-44.362 -123.592)" fill="#3a4151"/>
      <path id="Path_45" data-name="Path 45" d="M147.051,213.94l.025,9.812,1.334-.773.009,1.869-4.97,2.871-.008-1.869,1.4-.807-.017-7.943-1.5.858v-1.869Z" transform="translate(-48.659 -121.326)" fill="#3a4151"/>
      <path id="Path_46" data-name="Path 46" d="M157.2,213.5c1.181-.161,1.767.467,1.775,1.869a5.513,5.513,0,0,1-.9,3,7.535,7.535,0,0,1-2.667,2.472c-1.172.671-2.056.85-2.65.552a2.039,2.039,0,0,1-.849-1.954,5.471,5.471,0,0,1,1.792-3.891c-.994-.068-1.5-.663-1.512-1.809a4.97,4.97,0,0,1,.849-2.727,6.915,6.915,0,0,1,2.387-2.217c1.036-.595,1.835-.79,2.4-.544a1.614,1.614,0,0,1,.849,1.7A5.666,5.666,0,0,1,157.2,213.5Zm-.773,4.434a3.024,3.024,0,0,0,.391-1.538,1.325,1.325,0,0,0-.382-1.1.849.849,0,0,0-1,.059,2.625,2.625,0,0,0-.994,1.079,3.33,3.33,0,0,0-.391,1.563,1.206,1.206,0,0,0,.4,1.087c.255.178.578.144.994-.093a2.548,2.548,0,0,0,.985-1.053m-1.894-6.422a2.659,2.659,0,0,0-.34,1.368,1.138,1.138,0,0,0,.331.909c.212.17.51.144.849-.068a2.234,2.234,0,0,0,.85-.926,2.846,2.846,0,0,0,.323-1.317,1.1,1.1,0,0,0-.323-.943c-.2-.178-.493-.153-.85.068a2.276,2.276,0,0,0-.849.909" transform="translate(-49.947 -120.454)" fill="#3a4151"/>
      <path id="Path_47" data-name="Path 47" d="M184.941,192.49l.025,9.795,1.342-.765v1.86l-4.97,2.871v-1.869l1.4-.807-.025-7.926-1.5.858v-1.869Z" transform="translate(-54.361 -118.098)" fill="#3a4151"/>
      <path id="Path_48" data-name="Path 48" d="M195.7,187.379c.62.578.926,1.937.934,4.069q0,6.04-3.721,8.189A2.277,2.277,0,0,1,190.9,200c-.527-.229-.85-.85-.85-1.835l1.7-1.181c.212.85.595,1.138,1.164.85.909-.518,1.427-1.928,1.546-4.247a5.7,5.7,0,0,1-1.886,1.809,1.741,1.741,0,0,1-1.928.136,2.42,2.42,0,0,1-.849-2.2,6.856,6.856,0,0,1,.85-3.322,6.142,6.142,0,0,1,2.4-2.549C194.217,186.852,195.067,186.81,195.7,187.379Zm-1.257,4.528v-.119a4.647,4.647,0,0,0-.365-2.073c-.246-.476-.629-.569-1.138-.272a1.92,1.92,0,0,0-.773.968,4.145,4.145,0,0,0-.289,1.572,1.852,1.852,0,0,0,.323,1.2c.212.255.527.255.968,0a4.587,4.587,0,0,0,1.274-1.274" transform="translate(-55.653 -117.268)" fill="#3a4151"/>
      <path id="Path_49" data-name="Path 49" d="M221.406,171.3c.977-.561,1.741-.7,2.285-.408a1.911,1.911,0,0,1,.85,1.826,4.919,4.919,0,0,1-.255,1.521,7.545,7.545,0,0,1-.629,1.4c-.255.433-.705,1.1-1.351,2.013a17.57,17.57,0,0,0-1.835,2.956,6.083,6.083,0,0,0-.433,1.5l2.973-1.7V178.9l1.631-.943-.085,3.4-6.5,3.755a11.264,11.264,0,0,1,.2-2.489,10.235,10.235,0,0,1,.705-2.039,27.488,27.488,0,0,1,1.368-2.549,26.75,26.75,0,0,0,1.521-2.684,3.474,3.474,0,0,0,.374-1.5.849.849,0,0,0-.272-.731.654.654,0,0,0-.7.051,2.064,2.064,0,0,0-.9,1.1,6.711,6.711,0,0,0-.331,2.056l-1.86.977a7.577,7.577,0,0,1,.433-2.795,6.287,6.287,0,0,1,1.189-1.928A6.8,6.8,0,0,1,221.406,171.3Z" transform="translate(-59.905 -114.825)" fill="#3a4151"/>
      <path id="Path_50" data-name="Path 50" d="M233.764,165.744c.586.705.85,2.022.85,3.942a12.454,12.454,0,0,1-.85,5,6.3,6.3,0,0,1-2.548,3.041c-1.138.654-2.013.637-2.608-.051s-.9-2-.909-3.95a12.581,12.581,0,0,1,.85-4.936,6.244,6.244,0,0,1,2.625-3.092C232.3,165.03,233.178,165.03,233.764,165.744Zm-1.631,8.1a20.475,20.475,0,0,0,.2-2.82,10.593,10.593,0,0,0-.289-2.914c-.178-.595-.484-.765-.9-.527a2.311,2.311,0,0,0-.9,1.589,15.894,15.894,0,0,0-.263,3.228,11.451,11.451,0,0,0,.28,2.914c.2.586.484.765.892.527a2.548,2.548,0,0,0,.977-2" transform="translate(-61.356 -113.991)" fill="#3a4151"/>
      <path id="Path_51" data-name="Path 51" d="M35.254,310.031c.977-.561,1.7-.705,2.294-.408a1.886,1.886,0,0,1,.85,1.826,4.511,4.511,0,0,1-.255,1.5,6.8,6.8,0,0,1-.62,1.419c-.255.433-.705,1.1-1.351,2a17.838,17.838,0,0,0-1.835,2.973,6.083,6.083,0,0,0-.433,1.5l2.965-1.7v-1.521l1.623-.943-.093,3.432-6.507,3.755a11.74,11.74,0,0,1,.212-2.489,10.363,10.363,0,0,1,.7-2.039q.51-1.079,1.376-2.548a29.794,29.794,0,0,0,1.521-2.625,3.526,3.526,0,0,0,.365-1.512.849.849,0,0,0-.272-.722.637.637,0,0,0-.7.051,2.115,2.115,0,0,0-.849,1.087,6.44,6.44,0,0,0-.331,2.081l-1.928.926a7.756,7.756,0,0,1,.433-2.795,6.252,6.252,0,0,1,1.2-1.937A7.129,7.129,0,0,1,35.254,310.031Z" transform="translate(-31.887 -135.704)" fill="#3a4151"/>
      <path id="Path_52" data-name="Path 52" d="M44.982,304.422a2.458,2.458,0,0,1,2.294-.408,1.911,1.911,0,0,1,.85,1.835,4.673,4.673,0,0,1-.229,1.529,6.228,6.228,0,0,1-.637,1.427c-.246.425-.705,1.1-1.342,1.988a17.84,17.84,0,0,0-1.835,2.973,6.483,6.483,0,0,0-.433,1.5l2.965-1.7V312.05l1.64-.943-.076,3.44L41.669,318.3a11.808,11.808,0,0,1,.2-2.489,10.807,10.807,0,0,1,.705-2.039,23.423,23.423,0,0,1,1.376-2.548c.765-1.266,1.274-2.149,1.521-2.684a3.525,3.525,0,0,0,.365-1.512.782.782,0,0,0-.289-.714.62.62,0,0,0-.7.051,2.124,2.124,0,0,0-.849,1.079,6.94,6.94,0,0,0-.331,2.081l-1.86.968a7.756,7.756,0,0,1,.433-2.795,6.372,6.372,0,0,1,1.181-1.937,7.4,7.4,0,0,1,1.555-1.342Z" transform="translate(-33.359 -134.86)" fill="#3a4151"/>
      <path id="Path_53" data-name="Path 53" d="M71.4,289.423a2.368,2.368,0,0,1,2.277-.391,1.86,1.86,0,0,1,.849,1.818,4.774,4.774,0,0,1-.246,1.512,6.865,6.865,0,0,1-.637,1.41c-.255.433-.705,1.1-1.351,2a17.567,17.567,0,0,0-1.826,2.965,5.894,5.894,0,0,0-.433,1.487l2.965-1.7v-1.521l1.64-.943-.076,3.44L68,303.253a11.672,11.672,0,0,1,.2-2.481,10.67,10.67,0,0,1,.705-2.047,25.159,25.159,0,0,1,1.376-2.548c.765-1.257,1.274-2.158,1.521-2.667a3.644,3.644,0,0,0,.365-1.521.782.782,0,0,0-.289-.722.62.62,0,0,0-.7.051,2.073,2.073,0,0,0-.85,1.087A6.635,6.635,0,0,0,70,294.486l-1.86.968a7.807,7.807,0,0,1,.433-2.8,6.124,6.124,0,0,1,1.121-1.894A6.856,6.856,0,0,1,71.4,289.423Z" transform="translate(-37.321 -132.604)" fill="#3a4151"/>
      <path id="Path_54" data-name="Path 54" d="M80.88,283.892a2.772,2.772,0,0,1,2.328-.51c.552.238.85.849.85,1.758a5.148,5.148,0,0,1-1.5,3.534c1.257-.246,1.886.314,1.894,1.7a5.709,5.709,0,0,1-.968,3.16,7.2,7.2,0,0,1-2.472,2.353c-2.175,1.249-3.339.688-3.517-1.7l1.962-1.325c0,1.368.476,1.792,1.342,1.291a2.548,2.548,0,0,0,.96-1.062,3.084,3.084,0,0,0,.365-1.461,1.266,1.266,0,0,0-.357-1.045c-.255-.187-.612-.153-1.1.136-.11.059-.272.17-.45.28v-1.971a3.2,3.2,0,0,0,1.249-1.164,2.548,2.548,0,0,0,.4-1.325.85.85,0,0,0-.3-.765.747.747,0,0,0-.79.093,2.277,2.277,0,0,0-1.087,2.158l-1.911.96a5.794,5.794,0,0,1,.917-2.956A6.567,6.567,0,0,1,80.88,283.892Z" transform="translate(-38.75 -131.762)" fill="#3a4151"/>
      <path id="Path_55" data-name="Path 55" d="M108.574,267.7a2.4,2.4,0,0,1,2.277-.4,1.9,1.9,0,0,1,.85,1.826,4.987,4.987,0,0,1-.255,1.5,6.965,6.965,0,0,1-.629,1.419c-.255.433-.705,1.1-1.351,2a17.425,17.425,0,0,0-1.826,2.965,5.819,5.819,0,0,0-.433,1.5l2.965-1.7V275.3l1.631-.943-.085,3.44-6.507,3.755a12.326,12.326,0,0,1,.212-2.489,9.778,9.778,0,0,1,.714-2.039,24.382,24.382,0,0,1,1.359-2.549c.773-1.266,1.283-2.158,1.529-2.684a3.466,3.466,0,0,0,.365-1.521.85.85,0,0,0-.28-.714.637.637,0,0,0-.7.051,2.115,2.115,0,0,0-.85,1.087,6.227,6.227,0,0,0-.323,2.073l-1.86.968a7.493,7.493,0,0,1,.433-2.786,6.108,6.108,0,0,1,1.181-1.937,7.11,7.11,0,0,1,1.58-1.308Z" transform="translate(-42.922 -129.334)" fill="#3a4151"/>
      <path id="Path_56" data-name="Path 56" d="M121.758,268.569l-.985.569v1.5l.849-.493v1.7l-4.078,2.353v-1.7l1.138-.654v-1.5l-3.729,2.158a7.645,7.645,0,0,0-.544-1.189l4.341-9.667,2-1.155v7.059l.985-.569Zm-3.075.187v-4.069l-2.549,5.53,2.549-1.461" transform="translate(-44.307 -128.332)" fill="#3a4151"/>
      <path id="Path_57" data-name="Path 57" d="M146.406,245.673a2.4,2.4,0,0,1,2.277-.4,1.886,1.886,0,0,1,.849,1.826,4.8,4.8,0,0,1-.246,1.5,7.425,7.425,0,0,1-.637,1.419c-.246.425-.705,1.087-1.342,2a18.281,18.281,0,0,0-1.835,2.956,6.184,6.184,0,0,0-.433,1.5l2.965-1.7v-1.521l1.64-.943-.076,3.4-6.507,3.755a11.4,11.4,0,0,1,.2-2.5,10.738,10.738,0,0,1,.705-2.03,24.268,24.268,0,0,1,1.376-2.549c.765-1.257,1.274-2.158,1.521-2.684a3.645,3.645,0,0,0,.365-1.5.85.85,0,0,0-.289-.731.629.629,0,0,0-.7.059,2.073,2.073,0,0,0-.85,1.087,6.719,6.719,0,0,0-.331,2.064l-1.86.977a7.722,7.722,0,0,1,.433-2.795,6.227,6.227,0,0,1,1.181-1.928,6.983,6.983,0,0,1,1.589-1.266Z" transform="translate(-48.618 -126.019)" fill="#3a4151"/>
      <path id="Path_58" data-name="Path 58" d="M158.984,238.43v2.744l-1.487.85-.136-.782-2.608,1.5-.144,2.88a5.675,5.675,0,0,1,1.725-1.614c.985-.569,1.758-.654,2.311-.229a2.676,2.676,0,0,1,.85,2.234,6.906,6.906,0,0,1-.85,3.4,6.651,6.651,0,0,1-2.659,2.676c-1.019.595-1.8.748-2.362.476a2.073,2.073,0,0,1-1.053-1.792l1.92-1.376c.136,1.045.586,1.351,1.351.909a2.548,2.548,0,0,0,1-1.1,3.61,3.61,0,0,0,.357-1.64c0-1.393-.442-1.818-1.325-1.308a3.126,3.126,0,0,0-1.223,1.623H153.02l.289-6.082Z" transform="translate(-50.05 -125.012)" fill="#3a4151"/>
      <path id="Path_59" data-name="Path 59" d="M184.135,224.313a2.367,2.367,0,0,1,2.277-.391,1.877,1.877,0,0,1,.85,1.818,4.511,4.511,0,0,1-.238,1.5,7.424,7.424,0,0,1-.637,1.419c-.255.433-.705,1.1-1.351,2a16.473,16.473,0,0,0-1.826,2.965,5.9,5.9,0,0,0-.433,1.487l2.965-1.7V231.9l1.623-.943-.076,3.44-6.507,3.763a11.6,11.6,0,0,1,.221-2.489,9.345,9.345,0,0,1,.705-2.047,27.3,27.3,0,0,1,1.359-2.548c.773-1.257,1.283-2.166,1.529-2.684a3.457,3.457,0,0,0,.365-1.512.85.85,0,0,0-.28-.731.629.629,0,0,0-.7.059,2.073,2.073,0,0,0-.892,1.1,6.108,6.108,0,0,0-.323,2.073l-1.86.968a7.417,7.417,0,0,1,.433-2.8,6.167,6.167,0,0,1,1.155-1.877,6.855,6.855,0,0,1,1.639-1.351Z" transform="translate(-54.295 -122.805)" fill="#3a4151"/>
      <path id="Path_60" data-name="Path 60" d="M196.527,222.453q.8.459.849,2.243a6.847,6.847,0,0,1-.849,3.466,5.946,5.946,0,0,1-2.26,2.328c-1.232.714-2.158.765-2.761.178s-.909-1.92-.909-3.959a11.664,11.664,0,0,1,1-5.275,6.966,6.966,0,0,1,2.769-3.041c1.7-.985,2.633-.493,2.854,1.461l-1.7,1.181c-.2-.85-.612-1.13-1.2-.8a2.718,2.718,0,0,0-1.1,1.563,8.767,8.767,0,0,0-.408,2.676,4.953,4.953,0,0,1,1.792-1.809A1.911,1.911,0,0,1,196.527,222.453Zm-1.546,5.233a4.154,4.154,0,0,0,.3-1.657c0-.62-.119-1.019-.365-1.189a.756.756,0,0,0-.85.042,4.086,4.086,0,0,0-1.266,1.232,5.267,5.267,0,0,0,.4,2.43c.246.323.586.365,1.028.11a1.929,1.929,0,0,0,.79-.968" transform="translate(-55.771 -121.922)" fill="#3a4151"/>
      <path id="Path_61" data-name="Path 61" d="M221.684,202.813a2.4,2.4,0,0,1,2.277-.4,1.886,1.886,0,0,1,.85,1.826,4.835,4.835,0,0,1-.238,1.512,7.348,7.348,0,0,1-.637,1.41c-.255.433-.705,1.1-1.351,2a16.777,16.777,0,0,0-1.826,2.965,5.946,5.946,0,0,0-.433,1.5l2.956-1.7v-1.521l1.623-.934-.076,3.44-6.507,3.755a11.75,11.75,0,0,1,.221-2.5,9.345,9.345,0,0,1,.7-2.039,26.549,26.549,0,0,1,1.368-2.549,30.076,30.076,0,0,0,1.529-2.693,3.458,3.458,0,0,0,.365-1.5.849.849,0,0,0-.28-.722.62.62,0,0,0-.7.051,2.107,2.107,0,0,0-.85,1.1,6.04,6.04,0,0,0-.323,2.056l-1.92.968a7.585,7.585,0,0,1,.425-2.795,6.3,6.3,0,0,1,1.189-1.92A6.694,6.694,0,0,1,221.684,202.813Z" transform="translate(-59.945 -119.569)" fill="#3a4151"/>
      <path id="Path_62" data-name="Path 62" d="M234.682,195.33v1.419a23.786,23.786,0,0,0-1.538,4.579,21.713,21.713,0,0,0-.773,5.1l1.291-.739v1.869l-4.9,2.829v-1.869l1.283-.739a21.235,21.235,0,0,1,.85-4.57,31.116,31.116,0,0,1,1.7-4.885l-2.6,1.5v1.631l-1.623.943v-3.466Z" transform="translate(-61.458 -118.525)" fill="#3a4151"/>
      <path id="Path_63" data-name="Path 63" d="M35.256,341.323a2.4,2.4,0,0,1,2.294-.391,1.886,1.886,0,0,1,.85,1.809,4.842,4.842,0,0,1-.255,1.521,7.349,7.349,0,0,1-.637,1.41c-.246.425-.705,1.1-1.342,2a17.2,17.2,0,0,0-1.835,2.965,5.947,5.947,0,0,0-.433,1.5l2.973-1.7v-1.521l1.623-.943-.076,3.4-6.507,3.755a11.137,11.137,0,0,1,.2-2.481,10.347,10.347,0,0,1,.705-2.03,25.069,25.069,0,0,1,1.376-2.549c.765-1.257,1.274-2.149,1.521-2.667a3.678,3.678,0,0,0,.365-1.512.849.849,0,0,0-.289-.731.612.612,0,0,0-.68.042,2.107,2.107,0,0,0-.917,1.164,6.8,6.8,0,0,0-.331,2.073l-1.877.943a7.646,7.646,0,0,1,.433-2.786,6.167,6.167,0,0,1,1.2-1.928,7.027,7.027,0,0,1,1.64-1.342Z" transform="translate(-31.889 -140.415)" fill="#3a4151"/>
      <path id="Path_64" data-name="Path 64" d="M47.393,335.729c.6.578.926,1.928.926,4.069q0,6.031-3.729,8.189a2.243,2.243,0,0,1-2,.365c-.527-.221-.849-.85-.849-1.835l1.7-1.189c.2.85.6,1.155,1.172.85.909-.527,1.419-1.928,1.538-4.247a5.581,5.581,0,0,1-1.894,1.818,1.8,1.8,0,0,1-1.928.153,2.678,2.678,0,0,1-.85-2.226,7.059,7.059,0,0,1,.849-3.322,6.1,6.1,0,0,1,2.421-2.455C45.9,335.194,46.772,335.152,47.393,335.729Zm-1.223,4.528v-.11a4.6,4.6,0,0,0-.382-2.064.7.7,0,0,0-1.121-.28,1.988,1.988,0,0,0-.773.968,3.882,3.882,0,0,0-.289,1.58,1.758,1.758,0,0,0,.323,1.2c.2.255.527.246.951,0a4.613,4.613,0,0,0,1.291-1.274" transform="translate(-33.331 -139.595)" fill="#3a4151"/>
      <path id="Path_65" data-name="Path 65" d="M71.29,320.889a2.838,2.838,0,0,1,2.328-.535c.552.221.85.849.85,1.775a5.174,5.174,0,0,1-1.512,3.542c1.257-.263,1.886.3,1.886,1.7a5.581,5.581,0,0,1-.951,3.135,7.323,7.323,0,0,1-2.464,2.353c-2.183,1.257-3.4.7-3.525-1.7l1.954-1.308q0,2.022,1.351,1.274a2.608,2.608,0,0,0,.96-1.045,3.092,3.092,0,0,0,.365-1.478,1.2,1.2,0,0,0-.374-1.028c-.229-.2-.6-.153-1.087.127l-.459.28V326.02a3.3,3.3,0,0,0,1.266-1.181,2.549,2.549,0,0,0,.391-1.325.849.849,0,0,0-.306-.765c-.187-.136-.459-.093-.773.085a2.277,2.277,0,0,0-1.079,2.175l-1.928.977a5.717,5.717,0,0,1,.917-2.948,6.261,6.261,0,0,1,2.192-2.149Z" transform="translate(-37.307 -137.327)" fill="#3a4151"/>
      <path id="Path_66" data-name="Path 66" d="M83.8,315.285c.586.705.85,2.022.85,3.942a12.411,12.411,0,0,1-.85,4.987,6.21,6.21,0,0,1-2.549,3.033c-1.147.663-2.013.646-2.608,0s-.909-2-.909-3.942a12.649,12.649,0,0,1,.85-4.944,6.108,6.108,0,0,1,2.625-3.084C82.343,314.563,83.218,314.58,83.8,315.285Zm-1.6,8.087a21.532,21.532,0,0,0,.2-2.8,11.18,11.18,0,0,0-.28-2.931c-.178-.586-.484-.765-.9-.527a2.285,2.285,0,0,0-.9,1.6,15.026,15.026,0,0,0-.263,3.211,10.789,10.789,0,0,0,.28,2.922c.178.578.484.756.85.518a2.548,2.548,0,0,0,1.019-1.988" transform="translate(-38.787 -136.498)" fill="#3a4151"/>
    </g>
    <path id="Path_67" data-name="Path 67" d="M230.778,21.764c6.49-3.746,11.757-.739,11.783,6.72l.068,25.714L22.608,181.241l-.068-25.714c0-7.459,5.216-16.531,11.7-20.278Z" transform="translate(3317.608 7452.84)" fill="#97a6ff"/>
    <path id="Path_68" data-name="Path 68" d="M146.98,99.07l.068,22.384-4.332,2.5V110.564c0-1.444,0-3.075.153-4.885l-.11.059c-.221,1.5-.425,2.608-.6,3.322l-4.519,17.84-3.585,2.073L129.362,116.6a22.271,22.271,0,0,1-.62-2.769l-.119.068c.119,2.141.187,4.044.187,5.709V131.98l-3.95,2.277-.059-22.384,6.422-3.7,4.018,10.967a14.1,14.1,0,0,1,.7,2.8l.085-.051c.246-1.376.493-2.6.765-3.678l3.942-15.529Z" transform="translate(3302.218 7440.962)" fill="#f4f6f9"/>
    <path id="Path_69" data-name="Path 69" d="M191,74.21,184.67,92.3v7.96l-4.383,2.549V94.938L174.06,84l5.046-2.914,3.16,6.541c.059.127.212.646.459,1.563.17-.85.306-1.521.467-2.039l3.169-10.253Z" transform="translate(3294.804 7444.704)" fill="#f4f6f9"/>
    <path id="Path_70" data-name="Path 70" d="M165.963,89.13l6.991,18.383-4.783,2.744-1.4-4.18-6.923,3.993-1.351,5.777-4.766,2.744,7.025-26.462Zm-5.207,16.548,4.987-2.88-2.115-6.312a8.538,8.538,0,0,1-.331-1.818l-.11.059a12.863,12.863,0,0,1-.331,2.149l-2.1,8.8" transform="translate(3297.864 7442.458)" fill="#f4f6f9"/>
    <g id="Men_3" transform="translate(3516.422 7640.143)">
      <path id="Path_71" data-name="Path 71" d="M281.169,270.32s-.951,14.348-2.829,16.4-8.249,3.483-8.249,3.483l-4.9,8.062s4.477-25.646,5.445-26.258S281.169,270.32,281.169,270.32Z" transform="translate(-235.333 -224.954)" fill="#ffcea9"/>
      <path id="Path_72" data-name="Path 72" d="M272.86,251.484a5.36,5.36,0,0,1,6.8,2.064c1.8,2.982,3.678,13.235,3.848,14.985,0,0-2.548,3.491-6.329,2.914Z" transform="translate(-236.487 -222.046)" fill="#ededed"/>
      <path id="Path_73" data-name="Path 73" d="M251.89,419.55a10.534,10.534,0,0,1-7.934-.96c-1.911.059-12.284-4.383-13.7-.654-1.232,3.262,3.262,6.286,5.658,6.872,5.241,1.266,9.124,3.882,11.23,4.324,1.563.331,3.593.552,4.842-.688C253.487,426.966,253.351,421.5,251.89,419.55Z" transform="translate(-230.043 -246.945)" fill="#38226d"/>
      <path id="Path_74" data-name="Path 74" d="M247.142,428.612c-2.107-.45-5.946-3.058-11.23-4.332-2-.484-5.471-2.684-5.828-5.309-.459,3.007,3.593,5.675,5.828,6.218,5.241,1.266,9.124,3.882,11.23,4.324,1.563.331,3.593.552,4.842-.688a3.058,3.058,0,0,0,.688-1.249A6.3,6.3,0,0,1,247.142,428.612Z" transform="translate(-230.044 -247.326)" fill="#9c73ff"/>
      <path id="Path_75" data-name="Path 75" d="M270.91,413.62a10.491,10.491,0,0,1-7.934-.96c-1.911.059-12.292-4.383-13.7-.654-1.232,3.271,3.262,6.286,5.658,6.872,5.241,1.266,9.124,3.882,11.222,4.324,1.572.331,3.6.552,4.851-.68C272.507,421.036,272.371,415.565,270.91,413.62Z" transform="translate(-232.906 -246.053)" fill="#38226d"/>
      <path id="Path_76" data-name="Path 76" d="M266.153,422.682c-2.1-.45-5.947-3.058-11.222-4.332-2.013-.484-5.479-2.684-5.828-5.309-.467,3.007,3.593,5.675,5.828,6.218,5.241,1.266,9.124,3.882,11.222,4.324,1.572.331,3.6.552,4.851-.68a3.1,3.1,0,0,0,.688-1.257A6.32,6.32,0,0,1,266.153,422.682Z" transform="translate(-232.906 -246.433)" fill="#9c73ff"/>
      <path id="Path_77" data-name="Path 77" d="M270.411,369.417a63.55,63.55,0,0,0-2.4-11.358s.714-9.812,1.07-19.105c.408-10.551,4.069-19.836,1.181-28.254l-32.137,7.144s1.546,42.152,1.979,47.249A97.419,97.419,0,0,0,241.57,376.9c1.487,8.164,3.109,26.445,3.109,26.445,3.4,2,8.495.357,8.495.357s0-22.886-.2-28.764c-.272-7.187-.493-6.635-.493-6.635l1.079-17.9.7-8.9s.909,6.533,1.5,12.369c.51,5.1,1.7,9.693,3.109,19.165,1.189,8.215,2.421,24.967,2.421,24.967,3.44,2,8.07.62,8.07.62S271.337,376.545,270.411,369.417Z" transform="translate(-231.26 -231.031)" fill="#8c50ff"/>
      <path id="Path_78" data-name="Path 78" d="M266.738,246.839c-2.472.119-4.324.756-4.63,0a33.082,33.082,0,0,1-.569-3.874c.289-.722.535-1.5.535-1.5,3.109-1.911,4.095-5.275,4.5-9.2.705-6.694-2.914-12.556-9.616-13.252-6.295-.663-10.925,3.763-12.165,9.837-.663,3.007-1.988,8.673-.2,13.592.994,2.752,2.294,4.944,3.576,5.369a29.231,29.231,0,0,0,3.729-.323h0s.331,1.86.561,3.058.136,1.826-2.234,3.288,3.593,4.477,7.493,4.18,8.291-2.65,9.5-5.173C268.59,250.068,268.446,246.755,266.738,246.839Z" transform="translate(-232.098 -217.223)" fill="#ffcea9"/>
      <path id="Path_79" data-name="Path 79" d="M262.236,252.106c.688,1.7-1.053,3.806-5.717,5.275s-5.1-.425-5.1-.425a94.708,94.708,0,0,0-9.047,4.664c-2.795,1.954-4.035,7.6-4.409,17.151-.442,11.043-.476,27.43-.11,30.259,0,0,5.224,5.207,11.893,4.655s17.924-6.465,20.651-11.043c-.076-9.684-1.206-11.256.365-16.837,3.585-12.742,5.479-18,3.729-26.487-1.436-6.991-3.449-7.866-6.21-7.8A57.029,57.029,0,0,0,262.236,252.106Z" transform="translate(-231.181 -222.124)" fill="#f4f4f4"/>
      <path id="Path_80" data-name="Path 80" d="M243.677,321.743l3.4-38.457-7.161-3.806-2.8,2.345.85,34.541h0v.943h0l.051,1.215s-.17,2.914,5.318,6.388c0,0,.085-.909.17-1.767h0l.127-1.436Z" transform="translate(-231.107 -226.332)" fill="#ffcea9"/>
      <path id="Path_81" data-name="Path 81" d="M244.368,260.61c-3.7-.068-6.057,1.894-6.957,7.6S236,278.585,236,278.585a9.956,9.956,0,0,0,6.6,3.262c4.485.5,5.785-1.775,5.785-1.775s.467-5.947.714-9.948S248.946,260.7,244.368,260.61Z" transform="translate(-230.94 -223.492)" fill="#ededed"/>
      <path id="Path_82" data-name="Path 82" d="M245,227.691s-5.785-8.8,6.754-10.593c9.047-1.291,14.858,4.519,15.529,10.823.637,6.023-3.067,12.284-5.751,14.764-1.308.467-4.12.739-7.815-.943a45.567,45.567,0,0,1-.17-4.936S257.959,227.53,245,227.691Z" transform="translate(-232.094 -216.916)" fill="#3a2c6d"/>
    </g>
    <g id="Men_2" transform="translate(3417.261 7693.332)">
      <path id="Path_83" data-name="Path 83" d="M116.53,328.36c-.34,2.965-3.865,15.724-3.109,20.1s12.81,11.689,12.81,11.689l1.7-7.493-6.677-6.541,1.809-12.394Z" transform="translate(-113.315 -286.878)" fill="#ffcea9"/>
      <path id="Path_84" data-name="Path 84" d="M126.221,313.473a5.267,5.267,0,0,0-6.711,2.022c-1.775,2.939-3.619,13.023-3.78,14.739,0,0,2.481,3.4,6.218,2.871Z" transform="translate(-113.679 -284.563)" fill="#ededed"/>
      <path id="Path_85" data-name="Path 85" d="M144.1,480.548a10.3,10.3,0,0,0,7.8-.943c1.886.06,12.088-4.315,13.473-.646,1.215,3.211-3.2,6.193-5.564,6.8-5.156,1.249-8.971,3.814-11.043,4.247-1.546.323-3.542.535-4.774-.68C142.525,487.846,142.653,482.468,144.1,480.548Z" transform="translate(-117.775 -309.322)" fill="#2b2a30"/>
      <path id="Path_86" data-name="Path 86" d="M148.835,489.462c2.064-.433,5.879-3.007,11.044-4.247,1.979-.476,5.386-2.642,5.734-5.224.459,2.956-3.534,5.581-5.734,6.116-5.156,1.249-8.971,3.814-11.044,4.248-1.546.323-3.542.535-4.774-.68a2.974,2.974,0,0,1-.671-1.232A6.167,6.167,0,0,0,148.835,489.462Z" transform="translate(-117.841 -309.698)" fill="#bf4b4b"/>
      <path id="Path_87" data-name="Path 87" d="M124.61,471.8a10.33,10.33,0,0,0,7.807-.943c1.877.059,12.08-4.315,13.473-.646,1.215,3.22-3.2,6.193-5.564,6.8-5.156,1.249-8.971,3.823-11.044,4.247-1.538.323-3.534.535-4.766-.671C123.072,479.1,123.165,473.718,124.61,471.8Z" transform="translate(-114.845 -308.005)" fill="#2b2a30"/>
      <path id="Path_88" data-name="Path 88" d="M129.345,480.712c2.073-.433,5.887-3.007,11.044-4.247,1.979-.476,5.386-2.642,5.726-5.224.459,2.956-3.525,5.581-5.726,6.116-5.156,1.249-8.971,3.823-11.044,4.247-1.538.323-3.534.535-4.766-.671a3.092,3.092,0,0,1-.68-1.232,6.193,6.193,0,0,0,5.445,1.011Z" transform="translate(-114.908 -308.381)" fill="#bf4b4b"/>
      <path id="Path_89" data-name="Path 89" d="M124.4,429.468a62.261,62.261,0,0,1,2.362-11.179s-.705-9.642-1.053-18.782c-.408-10.381-4-19.539-1.164-27.8l32.018,7.119s-1.937,41.379-2.362,46.383a92.739,92.739,0,0,1-1.4,11.621c-1.461,8.028-3.84,27.133-3.84,27.133-3.4,1.971-7.832.849-7.832.849s.246-24.168.467-29.953c.263-7.068.484-6.524.484-6.524l-1.062-17.6-.7-8.758s-.85,6.431-1.461,12.165c-.5,5-1.7,9.531-3.058,18.85-1.172,8.079-3.067,24.321-3.067,24.321-3.4,1.971-7.985.331-7.985.331S123.495,436.518,124.4,429.468Z" transform="translate(-114.843 -293.402)" fill="#e26d6d"/>
      <path id="Path_90" data-name="Path 90" d="M129.839,308.9c2.438.119,4.247.748,4.553,0a30.075,30.075,0,0,0,.561-3.806c-.28-.714-.518-1.47-.518-1.47-3.067-1.886-4.035-5.2-4.434-9.047-.688-6.592,2.871-12.352,9.455-13.04,6.193-.646,10.755,3.7,11.969,9.676.654,2.956,1.954,8.495.2,13.38-.985,2.718-2.26,4.868-3.525,5.292a31.686,31.686,0,0,1-3.661-.323h0s-.331,1.826-.552,3.007-.136,1.792,2.2,3.237-3.534,4.4-7.374,4.1-8.155-2.608-9.344-5.1C128.072,312.078,128.166,308.825,129.839,308.9Z" transform="translate(-115.597 -279.821)" fill="#ffcea9"/>
      <path id="Path_91" data-name="Path 91" d="M131.972,314.088c-.671,1.7,1.045,3.738,5.624,5.182s4.987-.416,4.987-.416a91.422,91.422,0,0,1,8.9,4.587c2.752,1.92,3.967,7.484,4.341,16.871.425,10.865.467,26.98.1,29.732,0,0-5.1,5.1-11.706,4.579s-17.636-6.354-20.32-10.848c.076-9.523,1.189-11.043-.357-16.557-3.525-12.564-5.386-17.712-3.67-26.054,1.41-6.881,3.4-7.739,6.116-7.646a56.126,56.126,0,0,1,5.98.569Z" transform="translate(-114.205 -284.643)" fill="#f4f4f4"/>
      <path id="Path_92" data-name="Path 92" d="M170.8,350.645c-5.4,1.359-6.669-2.039-7.374-4.859-1.7-6.8-2.642-12.972-3.925-16.846-1.5-4.57-3.084-5.292-5.3-6.184-2.608-1.045-4.851,1.155-3.976,6.966,1.019,6.872,2.37,11.706,4.936,19.836.671,2.124,2.183,5.9,4.434,7.722,2.786,2.251,6.974,2.149,13.32.578,2.7-.68,5.666-2.294,10.789-4.681,1.376-.637,2.438-1.062,5.1-2.294a18.018,18.018,0,0,0,6.8-5.275c1.385-2,1.563-2.939,1.283-3.4s-.985-.45-1.7.391a14.722,14.722,0,0,1-3.882,3.593s1.7-1.758,2.625-2.905a14.3,14.3,0,0,0,2.039-3.33c.493-1.164-.518-2.752-1.283-1.92s-1.121,1.7-2.548,3.347a14.143,14.143,0,0,1-2.5,2.387,27.321,27.321,0,0,0,2.3-3.7,6.015,6.015,0,0,0,.849-3.347c0-.612-.9-1.334-1.7-.178s-1.2,2.659-2.9,4.426c-1.232,1.274-2.277,2.013-2.311,1.657s.748-1.053,1.189-2.548,0-3.067-.85-3.237-.671-.127-1.325,1.266-1.7,2.421-2.455,4.451a9.2,9.2,0,0,1-2.217,3.823C178.888,347.8,175.923,349.353,170.8,350.645Z" transform="translate(-118.841 -285.996)" fill="#ffcea9"/>
      <path id="Path_93" data-name="Path 93" d="M151.91,321.683c3.6-.527,6.142,1.1,7.739,6.55s2.7,9.939,2.7,9.939a9.812,9.812,0,0,1-6.031,4.01c-4.315,1.045-5.862-1.011-5.862-1.011s-1.2-5.726-1.945-9.616S147.45,322.346,151.91,321.683Z" transform="translate(-118.546 -285.859)" fill="#ededed"/>
      <path id="Path_94" data-name="Path 94" d="M151.341,290.123s5.692-8.656-6.643-10.415c-8.894-1.274-14.611,4.434-15.291,10.644-.637,5.947,3.016,12.071,5.649,14.518,1.283.459,4.052.722,7.688-.934a44,44,0,0,0,.17-4.851S138.607,289.919,151.341,290.123Z" transform="translate(-115.726 -279.529)" fill="#2b2a30"/>
    </g>
  </g>
</svg>
