<svg xmlns="http://www.w3.org/2000/svg" width="439.51" height="494.81" viewBox="0 0 439.51 494.81">
  <g id="Group_39" data-name="Group 39" transform="translate(-3710.26 -7456)">
    <path id="Path_568" data-name="Path 568" d="M443.77,290.37l-10.73,6.19V284.17l10.73-6.19Z" transform="translate(3706 7456)" fill="#9ea2b2"/>
    <g id="Coin" transform="translate(3706 7456)">
      <ellipse id="Ellipse_23" data-name="Ellipse 23" cx="34.96" cy="20.19" rx="34.96" ry="20.19" transform="translate(11.51 443.67)" fill="#dd990e"/>
      <path id="Path_676" data-name="Path 676" d="M11.52,464.17v-9.2l6.91,6.15Z" fill="#dd990e"/>
      <path id="Path_677" data-name="Path 677" d="M81.44,455.21v8.65l-3.54,3.75-1.73-9.91Z" fill="#dd990e"/>
      <ellipse id="Ellipse_24" data-name="Ellipse 24" cx="34.96" cy="20.19" rx="34.96" ry="20.19" transform="translate(11.51 435.02)" fill="#f9cb07"/>
      <path id="Path_678" data-name="Path 678" d="M71.46,455.83c-.36,3.4-2.78,6.75-7.29,9.36-9.77,5.64-25.62,5.64-35.4,0-4.5-2.61-6.92-6-7.27-9.36-.42-4,2-8,7.27-11.08,9.78-5.65,25.63-5.65,35.4,0C69.44,447.79,71.87,451.85,71.46,455.83Z" fill="#cc8b09"/>
      <path id="Path_679" data-name="Path 679" d="M71.46,455.83c-.36,3.4-2.78,6.75-7.29,9.36-9.77,5.64-25.62,5.64-35.4,0-4.5-2.61-6.92-6-7.27-9.36.35-3.4,2.77-6.74,7.27-9.35,9.78-5.65,25.63-5.65,35.4,0C68.68,449.09,71.1,452.43,71.46,455.83Z" fill="#e8a30a"/>
      <path id="Path_680" data-name="Path 680" d="M46.11,451.1a6.641,6.641,0,0,0-.92.08c-.41.06-.87.14-1.38.25a15.715,15.715,0,0,0-1.6.41,10.716,10.716,0,0,0-1.56.59l4,2.32.72-.25c1-.34,2-.63,2.89-.87a14.093,14.093,0,0,1,2.6-.43,9.071,9.071,0,0,1,2.4.17,7.34,7.34,0,0,1,2.28.89,4.63,4.63,0,0,1,1.74,1.52,2.06,2.06,0,0,1,.25,1.57,3.45,3.45,0,0,1-.94,1.55,10.079,10.079,0,0,1-1.84,1.45l2.56,1.47-1.39.81-2.58-1.49a21.72,21.72,0,0,1-3.84,1.45,25.418,25.418,0,0,1-4.23.79L44,461a10.468,10.468,0,0,0,1.12-.09c.51-.06,1.07-.16,1.69-.29s1.27-.3,2-.5a14.191,14.191,0,0,0,2-.73l-4-2.31-.53.18-.54.17c-1,.33-1.93.59-2.77.78a12.869,12.869,0,0,1-2.36.31,8.311,8.311,0,0,1-2.08-.19,7.46,7.46,0,0,1-1.92-.78,4.931,4.931,0,0,1-1.68-1.44,2.41,2.41,0,0,1-.45-1.55A2.94,2.94,0,0,1,35,453a7.41,7.41,0,0,1,1.63-1.48l-2.37-1.37,1.39-.8L38,450.67a17.358,17.358,0,0,1,3.45-1.26,25.787,25.787,0,0,1,3.45-.63Zm-6.84,4.22a2.91,2.91,0,0,0,1.75.37,11.449,11.449,0,0,0,2.39-.53L39.65,453Q37.58,454.335,39.27,455.32Zm13.2,1.1a3,3,0,0,0-1.88-.34,14.731,14.731,0,0,0-2.62.58l3.74,2.16C53.3,457.84,53.56,457,52.47,456.42Z" fill="#cc8b09"/>
      <path id="Path_681" data-name="Path 681" d="M44,461v-1.36l1.53,1-.67,1Z" fill="#cc8b09"/>
      <path id="Path_682" data-name="Path 682" d="M57.33,461.82v-1.35l-3.32.25,1.91,1.3Z" fill="#cc8b09"/>
      <path id="Path_683" data-name="Path 683" d="M57.61,456.85v-1.37l-2.49.9Z" fill="#cc8b09"/>
      <path id="Path_684" data-name="Path 684" d="M47.3,456.78l.83-.8,2.92,2-.18.6s-2.18-.92-2.25-1Z" fill="#cc8b09"/>
      <path id="Path_685" data-name="Path 685" d="M39.66,452.5l3.87,2.2.8-.57s-.49-.56-.53-.62a5.33,5.33,0,0,0-1.2-1c-.29-.05-2.13-.87-2.13-.87Z" fill="#cc8b09"/>
      <path id="Path_686" data-name="Path 686" d="M46.11,451.1v-1.35l-1.78-.58-.38,1.06.09.49Z" fill="#cc8b09"/>
      <path id="Path_687" data-name="Path 687" d="M34.28,450.13v-1.36l2.06.22-.66,1.32Z" fill="#cc8b09"/>
      <path id="Path_688" data-name="Path 688" d="M34.35,454.73v-1.41h2.36l-.58,1.26-1,1.13Z" fill="#cc8b09"/>
      <path id="Path_689" data-name="Path 689" d="M46.11,449.75a5.119,5.119,0,0,0-.92.07c-.41.06-.87.14-1.38.25s-1.05.24-1.6.41a10.734,10.734,0,0,0-1.56.6l4,2.32.72-.26c1-.34,2-.62,2.89-.86a13.288,13.288,0,0,1,2.6-.43,9.071,9.071,0,0,1,2.4.16,7.589,7.589,0,0,1,2.28.89,4.63,4.63,0,0,1,1.74,1.52,2.07,2.07,0,0,1,.25,1.57,3.4,3.4,0,0,1-.94,1.55A9.672,9.672,0,0,1,54.77,459l2.56,1.48-1.39.8-2.58-1.49a20.259,20.259,0,0,1-3.84,1.45,25.445,25.445,0,0,1-4.23.8L44,459.61a10.484,10.484,0,0,0,1.12-.09,16.235,16.235,0,0,0,1.69-.29c.62-.13,1.27-.3,2-.5a13,13,0,0,0,2-.73l-4-2.31c-.17.06-.35.13-.53.18l-.54.17c-1,.33-1.93.59-2.77.78a12.925,12.925,0,0,1-2.36.32,8.3,8.3,0,0,1-2.08-.2,6.81,6.81,0,0,1-1.92-.78,4.92,4.92,0,0,1-1.68-1.43,2.43,2.43,0,0,1-.45-1.55,2.93,2.93,0,0,1,.66-1.57,7.39,7.39,0,0,1,1.63-1.47l-2.37-1.37,1.39-.81L38,449.32a16.791,16.791,0,0,1,3.45-1.27,24.2,24.2,0,0,1,3.45-.62ZM39.27,454a2.92,2.92,0,0,0,1.75.38,12.27,12.27,0,0,0,2.39-.54l-3.76-2.17Q37.58,453,39.27,454Zm13.2,1.1a3,3,0,0,0-1.88-.33,15.527,15.527,0,0,0-2.62.57l3.74,2.16c1.59-1.01,1.85-1.81.76-2.44Z" fill="#f9ca06"/>
    </g>
    <path id="Path_721" data-name="Path 721" d="M11.02,290.9l-6.76.09,21.96-9.32-12.73,7.91Z" transform="translate(3706 7456)" fill="#ff4d4d"/>
    <ellipse id="Ellipse_30" data-name="Ellipse 30" cx="1.41" cy="2.44" rx="1.41" ry="2.44" transform="translate(3716.301 7746.501) rotate(-30)" fill="#e8a30a"/>
    <path id="Path_722" data-name="Path 722" d="M15.64,300.69l-1.61-6.73L31.69,282.7l-.77,1.59Z" transform="translate(3706 7456)" fill="#ff4d4d"/>
    <g id="Group_38" data-name="Group 38">
      <path id="Path_560" data-name="Path 560" d="M262.75,341.76l-12.44-7.18,39.62-126.56,12.44,7.18Z" transform="translate(3706 7456)" fill="#b1b4c4"/>
      <path id="Path_561" data-name="Path 561" d="M270.04,337.74l-12.44-7.18L297.22,204l12.43,7.18Z" transform="translate(3706 7456)" fill="#9ea2b2"/>
      <path id="Path_562" data-name="Path 562" d="M262.75,341.76l-12.44-7.18,39.62-126.56,12.44,7.18Z" transform="translate(3706 7456)" fill="#b1b4c4"/>
      <path id="Path_563" data-name="Path 563" d="M343.15,378.39l-12.53-7.24L313.51,211.84l12.44,7.19Z" transform="translate(3706 7456)" fill="#9ea2b2"/>
      <path id="Path_564" data-name="Path 564" d="M334.44,383.36l-12.53-7.24L304.8,216.81l12.44,7.18Z" transform="translate(3706 7456)" fill="#b1b4c4"/>
      <path id="Path_565" data-name="Path 565" d="M433.04,284.39,199.3,149.44l10.56-6.1L443.6,278.29Z" transform="translate(3706 7456)" fill="#d6d8e5"/>
      <path id="Path_566" data-name="Path 566" d="M433.04,296.56,199.3,161.61v-12.2L433.04,284.36Z" transform="translate(3706 7456)" fill="#b1b4c4"/>
      <path id="Path_567" data-name="Path 567" d="M428.31,275.24,213.06,150.96V0L428.31,124.28Z" transform="translate(3706 7456)" fill="#f4f4f4"/>
      <path id="Path_569" data-name="Path 569" d="M246.74,44.98,228.91,34.69V27.83l17.83,10.29Z" transform="translate(3706 7456)" fill="#d6d8e5"/>
      <path id="Path_570" data-name="Path 570" d="M285.69,67.47l-31.36-18.1V42.5l31.36,18.11Z" transform="translate(3706 7456)" fill="#d6d8e5"/>
      <path id="Path_571" data-name="Path 571" d="M246.74,57.94,228.91,47.65V40.79l17.83,10.29Z" transform="translate(3706 7456)" fill="#d6d8e5"/>
      <path id="Path_572" data-name="Path 572" d="M285.69,80.43l-31.36-18.1V55.46l31.36,18.11Z" transform="translate(3706 7456)" fill="#d6d8e5"/>
      <path id="Path_573" data-name="Path 573" d="M246.74,72.81,228.91,62.52V55.65l17.83,10.3Z" transform="translate(3706 7456)" fill="#d6d8e5"/>
      <path id="Path_574" data-name="Path 574" d="M285.69,95.3,254.33,77.19V70.33l31.36,18.11Z" transform="translate(3706 7456)" fill="#d6d8e5"/>
      <path id="Path_575" data-name="Path 575" d="M246.74,87.68l-17.83-10.3V70.52l17.83,10.29Z" transform="translate(3706 7456)" fill="#d6d8e5"/>
      <path id="Path_576" data-name="Path 576" d="M285.69,110.17,254.33,92.06V85.2l31.36,18.11Z" transform="translate(3706 7456)" fill="#d6d8e5"/>
      <path id="Path_577" data-name="Path 577" d="M308.85,83.22c3.95-5.1,11-5.92,19.1-1.26.78.45,1.55.94,2.3,1.46L328,107.88,308.78,83.32Z" transform="translate(3706 7456)" fill="#9acc12"/>
      <path id="Path_578" data-name="Path 578" d="M348.93,110.79l-21-2.91,2.3-24.46C338.83,89.39,346,100.11,348.93,110.79Z" transform="translate(3706 7456)" fill="#e8bc05"/>
      <path id="Path_579" data-name="Path 579" d="M350.4,120.84c0,11-6,17-14.37,15.91L328,107.88l21,2.91A37.38,37.38,0,0,1,350.4,120.84Z" transform="translate(3706 7456)" fill="#ef6848"/>
      <path id="Path_580" data-name="Path 580" d="M308.78,83.32c-2.08,2.73-3.28,6.66-3.28,11.6,0,14.32,10.05,31.72,22.45,38.88a22.18,22.18,0,0,0,8.07,2.94L328,107.88,308.9,83.22Z" transform="translate(3706 7456)" fill="#be4aed"/>
      <path id="Path_581" data-name="Path 581" d="M370.92,119.06c3.95-5.1,11-5.92,19.1-1.27.78.45,1.54.94,2.3,1.47L390,143.72l-19.18-24.57Z" transform="translate(3706 7456)" fill="#543526"/>
      <path id="Path_582" data-name="Path 582" d="M411,146.62l-21-2.9,2.3-24.46C400.9,125.22,408.06,135.94,411,146.62Z" transform="translate(3706 7456)" fill="#1b96ea"/>
      <path id="Path_583" data-name="Path 583" d="M412.47,156.68c0,11-6,17-14.37,15.9L390,143.72l21,2.9a37.909,37.909,0,0,1,1.47,10.06Z" transform="translate(3706 7456)" fill="#ff5050"/>
      <path id="Path_584" data-name="Path 584" d="M370.84,119.15c-2.07,2.74-3.27,6.66-3.27,11.6,0,14.32,10.05,31.73,22.45,38.89a22,22,0,0,0,8.07,2.93L390,143.72l-19.1-24.66Z" transform="translate(3706 7456)" fill="#32cec3"/>
      <path id="Path_585" data-name="Path 585" d="M308.78,190.59s15.21-29,53.84,8,48.38,8.3,48.38,8.3" transform="translate(3706 7456)" fill="none" stroke="#d6d8e5" stroke-miterlimit="10" stroke-width="1.42"/>
      <ellipse id="Ellipse_5" data-name="Ellipse 5" cx="2.63" cy="4.55" rx="2.63" ry="4.55" transform="translate(4043.096 7636.366) rotate(-30)" fill="#d6d8e5"/>
      <ellipse id="Ellipse_6" data-name="Ellipse 6" cx="2.63" cy="4.55" rx="2.63" ry="4.55" transform="translate(4015.781 7636.313) rotate(-30)" fill="#d6d8e5"/>
      <ellipse id="Ellipse_7" data-name="Ellipse 7" cx="2.639" cy="4.566" rx="2.639" ry="4.566" transform="translate(4073.758 7659.266) rotate(-29.887)" fill="#d6d8e5"/>
      <ellipse id="Ellipse_8" data-name="Ellipse 8" cx="2.63" cy="4.55" rx="2.63" ry="4.55" transform="translate(4105.18 7668.482) rotate(-30)" fill="#d6d8e5"/>
      <path id="Path_586" data-name="Path 586" d="M235.01,149.34l-6.1-3.53V124.65l6.1,3.53Z" transform="translate(3706 7456)" fill="#d6d8e5"/>
      <path id="Path_587" data-name="Path 587" d="M251.91,159.09l-6.11-3.53V126.97l6.11,3.53Z" transform="translate(3706 7456)" fill="#d6d8e5"/>
      <path id="Path_588" data-name="Path 588" d="M268.8,168.84l-6.11-3.52V124.34l6.11,3.52Z" transform="translate(3706 7456)" fill="#d6d8e5"/>
      <path id="Path_589" data-name="Path 589" d="M285.69,178.59l-6.11-3.52V124.18l6.11,3.52Z" transform="translate(3706 7456)" fill="#d6d8e5"/>
      <path id="Path_590" data-name="Path 590" d="M334.44,383.36l8.71-4.97-10.43-10.94Z" transform="translate(3706 7456)" fill="#9ea2b2"/>
      <path id="Path_591" data-name="Path 591" d="M262.75,341.76l7.29-4.02-2.8-10.32Z" transform="translate(3706 7456)" fill="#9ea2b2"/>
      <g id="Coin-2" data-name="Coin" transform="translate(3706 7456)">
        <ellipse id="Ellipse_12" data-name="Ellipse 12" cx="34.96" cy="20.19" rx="34.96" ry="20.19" transform="translate(108.56 404.6)" fill="#dd990e"/>
        <path id="Path_606" data-name="Path 606" d="M108.57,425.1v-9.2l6.9,6.15Z" fill="#dd990e"/>
        <path id="Path_607" data-name="Path 607" d="M178.48,416.14v8.65l-3.53,3.75-1.73-9.9Z" fill="#dd990e"/>
        <ellipse id="Ellipse_13" data-name="Ellipse 13" cx="34.96" cy="20.19" rx="34.96" ry="20.19" transform="translate(108.56 395.95)" fill="#f9cb07"/>
        <path id="Path_608" data-name="Path 608" d="M168.5,416.77c-.35,3.4-2.77,6.75-7.28,9.35-9.78,5.64-25.62,5.64-35.4,0-4.51-2.6-6.93-5.95-7.27-9.35-.43-4,2-8,7.27-11.08,9.78-5.65,25.62-5.65,35.4,0C166.49,408.72,168.92,412.79,168.5,416.77Z" fill="#cc8b09"/>
        <path id="Path_609" data-name="Path 609" d="M168.5,416.77c-.35,3.4-2.77,6.75-7.28,9.35-9.78,5.64-25.62,5.64-35.4,0-4.51-2.6-6.93-5.95-7.27-9.35.34-3.4,2.76-6.75,7.27-9.35,9.78-5.65,25.62-5.65,35.4,0C165.73,410,168.15,413.37,168.5,416.77Z" fill="#e8a30a"/>
        <path id="Path_610" data-name="Path 610" d="M143.15,412a5.181,5.181,0,0,0-.92.07c-.41.06-.87.14-1.38.25s-1,.24-1.59.41a11.332,11.332,0,0,0-1.57.6l4,2.32.72-.26c1-.34,2-.63,2.9-.86a13.17,13.17,0,0,1,2.6-.43,9,9,0,0,1,2.39.16,7.65,7.65,0,0,1,2.29.89,4.58,4.58,0,0,1,1.73,1.52,2.07,2.07,0,0,1,.26,1.57,3.49,3.49,0,0,1-.94,1.55,9.67,9.67,0,0,1-1.84,1.45l2.56,1.48-1.4.8-2.58-1.49a20.86,20.86,0,0,1-3.83,1.45,24.791,24.791,0,0,1-4.23.79L141,421.9a10.607,10.607,0,0,0,1.13-.09,16.545,16.545,0,0,0,1.68-.29c.62-.13,1.28-.3,2-.5a13.417,13.417,0,0,0,2-.73l-4-2.31-.52.18-.55.17a28.033,28.033,0,0,1-2.76.78,12.15,12.15,0,0,1-2.36.31,7.79,7.79,0,0,1-2.08-.19,7,7,0,0,1-1.93-.78,5,5,0,0,1-1.67-1.43,2.43,2.43,0,0,1-.45-1.55,2.86,2.86,0,0,1,.66-1.57,6.88,6.88,0,0,1,1.62-1.47l-2.37-1.37,1.4-.81,2.35,1.36a16.792,16.792,0,0,1,3.45-1.27,24.2,24.2,0,0,1,3.45-.62Zm-6.83,4.21a2.9,2.9,0,0,0,1.74.38,12.189,12.189,0,0,0,2.4-.54l-3.77-2.17q-2.07,1.39-.37,2.37Zm13.2,1.1a3,3,0,0,0-1.88-.33,15.609,15.609,0,0,0-2.63.57l3.74,2.16c1.6-.93,1.85-1.71.77-2.36Z" fill="#cc8b09"/>
        <path id="Path_611" data-name="Path 611" d="M141,421.9v-1.36l1.54,1-.67,1Z" fill="#cc8b09"/>
        <path id="Path_612" data-name="Path 612" d="M154.38,422.76V421.4l-3.33.26,1.91,1.3Z" fill="#cc8b09"/>
        <path id="Path_613" data-name="Path 613" d="M154.66,417.78v-1.37l-2.49.9Z" fill="#cc8b09"/>
        <path id="Path_614" data-name="Path 614" d="M144.35,417.71l.83-.79,2.92,2-.18.59s-2.19-.92-2.26-1S144.35,417.71,144.35,417.71Z" fill="#cc8b09"/>
        <path id="Path_615" data-name="Path 615" d="M136.7,413.44l3.88,2.19.79-.57-.52-.61a4.93,4.93,0,0,0-1.21-1c-.29-.06-2.12-.88-2.12-.88Z" fill="#cc8b09"/>
        <path id="Path_616" data-name="Path 616" d="M143.15,412.04v-1.36l-1.78-.58-.38,1.07.09.48Z" fill="#cc8b09"/>
        <path id="Path_617" data-name="Path 617" d="M131.32,411.06V409.7l2.07.22-.67,1.32Z" fill="#cc8b09"/>
        <path id="Path_618" data-name="Path 618" d="M131.4,415.66v-1.41h2.37l-.58,1.26-1,1.13Z" fill="#cc8b09"/>
        <path id="Path_619" data-name="Path 619" d="M143.15,410.68a5.427,5.427,0,0,0-.92.08c-.41.05-.87.14-1.38.24s-1,.25-1.59.41a12.75,12.75,0,0,0-1.57.6l4,2.32.72-.25c1-.34,2-.63,2.9-.87a13.17,13.17,0,0,1,2.6-.43,9.431,9.431,0,0,1,2.39.16,7.679,7.679,0,0,1,2.29.9,4.5,4.5,0,0,1,1.73,1.52,2.07,2.07,0,0,1,.26,1.57,3.54,3.54,0,0,1-.94,1.55,10.08,10.08,0,0,1-1.84,1.45l2.56,1.47-1.4.81-2.58-1.49a21.612,21.612,0,0,1-3.83,1.45,25.812,25.812,0,0,1-4.23.79L141,420.54a6.762,6.762,0,0,0,1.13-.08c.51-.08,1.06-.16,1.68-.29s1.28-.3,2-.5a14.706,14.706,0,0,0,2-.74l-4-2.3-.52.18-.55.17a26.914,26.914,0,0,1-2.76.77,12.208,12.208,0,0,1-2.36.32,7.779,7.779,0,0,1-2.08-.2,7.271,7.271,0,0,1-1.93-.77,5,5,0,0,1-1.67-1.44,2.43,2.43,0,0,1-.45-1.55,2.86,2.86,0,0,1,.66-1.56,7.13,7.13,0,0,1,1.62-1.48l-2.37-1.37,1.4-.8,2.35,1.35a16.76,16.76,0,0,1,3.45-1.26,25.786,25.786,0,0,1,3.45-.63Zm-6.83,4.22a3,3,0,0,0,1.74.37,10.891,10.891,0,0,0,2.4-.54l-3.77-2.17q-2.07,1.35-.37,2.34Zm13.2,1.1a3,3,0,0,0-1.88-.34,14.812,14.812,0,0,0-2.63.58l3.74,2.16c1.6-.98,1.85-1.78.77-2.4Z" fill="#f9ca06"/>
      </g>
      <g id="Coin-3" data-name="Coin" transform="translate(3706 7456)">
        <ellipse id="Ellipse_14" data-name="Ellipse 14" cx="34.96" cy="20.19" rx="34.96" ry="20.19" transform="translate(106.41 394.24)" fill="#dd990e"/>
        <path id="Path_620" data-name="Path 620" d="M106.42,414.74v-9.2l6.91,6.15Z" fill="#dd990e"/>
        <path id="Path_621" data-name="Path 621" d="M176.34,405.78v8.65l-3.53,3.75-1.74-9.91Z" fill="#dd990e"/>
        <ellipse id="Ellipse_15" data-name="Ellipse 15" cx="34.96" cy="20.19" rx="34.96" ry="20.19" transform="translate(106.41 385.59)" fill="#f9cb07"/>
        <path id="Path_622" data-name="Path 622" d="M166.36,406.4c-.35,3.4-2.78,6.75-7.28,9.36-9.78,5.64-25.63,5.64-35.4,0-4.51-2.61-6.93-6-7.28-9.36-.42-4,2-8,7.28-11.08,9.77-5.65,25.62-5.65,35.4,0C164.34,398.36,166.78,402.42,166.36,406.4Z" fill="#cc8b09"/>
        <path id="Path_623" data-name="Path 623" d="M166.36,406.4c-.35,3.4-2.78,6.75-7.28,9.36-9.78,5.64-25.63,5.64-35.4,0-4.51-2.61-6.93-6-7.28-9.36.35-3.4,2.77-6.74,7.28-9.35,9.77-5.65,25.62-5.65,35.4,0C163.58,399.66,166,403,166.36,406.4Z" fill="#e8a30a"/>
        <path id="Path_624" data-name="Path 624" d="M141,401.68a5.119,5.119,0,0,0-.92.07c-.41.06-.87.14-1.38.25a15.544,15.544,0,0,0-1.59.41,10.837,10.837,0,0,0-1.57.59l4,2.32.72-.25c1-.34,2-.63,2.89-.87a14.091,14.091,0,0,1,2.6-.43,9.51,9.51,0,0,1,2.4.17,7.489,7.489,0,0,1,2.29.89,4.58,4.58,0,0,1,1.73,1.52,2.06,2.06,0,0,1,.25,1.57,3.45,3.45,0,0,1-.94,1.55,10,10,0,0,1-1.83,1.45l2.55,1.47-1.39.81-2.58-1.49a20.691,20.691,0,0,1-3.84,1.45,25.418,25.418,0,0,1-4.23.79l-1.34-2.41a10.477,10.477,0,0,0,1.12-.09,16.21,16.21,0,0,0,1.69-.29c.62-.13,1.27-.3,2-.5a14.832,14.832,0,0,0,2-.73l-4-2.31-.52.18-.55.17c-1,.33-1.93.59-2.77.78a12.882,12.882,0,0,1-2.35.31,8.219,8.219,0,0,1-2.08-.19,7.049,7.049,0,0,1-1.93-.78,4.931,4.931,0,0,1-1.68-1.44,2.41,2.41,0,0,1-.45-1.55,2.94,2.94,0,0,1,.66-1.56,7.41,7.41,0,0,1,1.63-1.48l-2.37-1.36,1.39-.81,2.35,1.36a16.789,16.789,0,0,1,3.45-1.27,25.787,25.787,0,0,1,3.45-.63Zm-6.83,4.21a2.871,2.871,0,0,0,1.74.37,11.449,11.449,0,0,0,2.39-.53l-3.76-2.18c-1.37.91-1.54,1.69-.36,2.34Zm13.2,1.1a3,3,0,0,0-1.89-.34,15.669,15.669,0,0,0-2.62.58l3.74,2.16q2.4-1.47.78-2.39Z" fill="#cc8b09"/>
        <path id="Path_625" data-name="Path 625" d="M138.85,411.54v-1.36l1.53,1-.67,1Z" fill="#cc8b09"/>
        <path id="Path_626" data-name="Path 626" d="M152.23,412.39v-1.35l-3.32.25,1.91,1.31Z" fill="#cc8b09"/>
        <path id="Path_627" data-name="Path 627" d="M152.51,407.42v-1.37l-2.49.9Z" fill="#cc8b09"/>
        <path id="Path_628" data-name="Path 628" d="M142.2,407.35l.83-.8,2.92,2-.18.6s-2.18-.92-2.25-1Z" fill="#cc8b09"/>
        <path id="Path_629" data-name="Path 629" d="M134.56,403.08l3.88,2.19.79-.57s-.49-.56-.52-.62a4.73,4.73,0,0,0-1.21-1c-.29-.05-2.13-.88-2.13-.88Z" fill="#cc8b09"/>
        <path id="Path_630" data-name="Path 630" d="M141.01,401.68v-1.36l-1.78-.58-.38,1.06.09.49Z" fill="#cc8b09"/>
        <path id="Path_631" data-name="Path 631" d="M129.18,400.7v-1.36l2.06.22-.66,1.32Z" fill="#cc8b09"/>
        <path id="Path_632" data-name="Path 632" d="M129.26,405.3v-1.41h2.36l-.57,1.26-1,1.13Z" fill="#cc8b09"/>
        <path id="Path_633" data-name="Path 633" d="M141,400.32a6.282,6.282,0,0,0-.92.07c-.41.06-.87.14-1.38.25s-1,.25-1.59.41a12.167,12.167,0,0,0-1.57.6l4,2.32.72-.26c1-.34,2-.62,2.89-.86a13.29,13.29,0,0,1,2.6-.43,9.072,9.072,0,0,1,2.4.16,7.75,7.75,0,0,1,2.29.89A4.58,4.58,0,0,1,152.2,405a2.09,2.09,0,0,1,.25,1.58,3.42,3.42,0,0,1-.94,1.54,9.589,9.589,0,0,1-1.83,1.45l2.55,1.48-1.39.8-2.58-1.48a20.681,20.681,0,0,1-3.84,1.44,25.435,25.435,0,0,1-4.23.8l-1.34-2.42a10.484,10.484,0,0,0,1.12-.09,14,14,0,0,0,1.69-.29c.62-.13,1.27-.3,2-.5a13.553,13.553,0,0,0,2-.73l-4-2.31a5.345,5.345,0,0,1-.52.18l-.55.17c-1,.33-1.93.59-2.77.78a12.939,12.939,0,0,1-2.35.32,8.21,8.21,0,0,1-2.08-.2,6.748,6.748,0,0,1-1.93-.78,4.81,4.81,0,0,1-1.68-1.43,2.43,2.43,0,0,1-.45-1.55,2.93,2.93,0,0,1,.66-1.57,7.391,7.391,0,0,1,1.63-1.47l-2.37-1.37,1.39-.81,2.35,1.36a16.792,16.792,0,0,1,3.45-1.27,24.206,24.206,0,0,1,3.45-.62Zm-6.83,4.21a2.87,2.87,0,0,0,1.74.38,11.572,11.572,0,0,0,2.39-.54l-3.76-2.17c-1.37.9-1.54,1.68-.36,2.33Zm13.2,1.1a3.07,3.07,0,0,0-1.89-.33,15.531,15.531,0,0,0-2.62.57l3.74,2.16q2.4-1.45.78-2.4Z" fill="#f9ca06"/>
      </g>
      <g id="Coin-4" data-name="Coin" transform="translate(3706 7456)">
        <ellipse id="Ellipse_16" data-name="Ellipse 16" cx="34.96" cy="20.19" rx="34.96" ry="20.19" transform="translate(109.39 384.24)" fill="#dd990e"/>
        <path id="Path_634" data-name="Path 634" d="M109.39,404.74v-9.2l6.91,6.15Z" fill="#dd990e"/>
        <path id="Path_635" data-name="Path 635" d="M179.31,395.78v8.65l-3.53,3.75-1.73-9.9Z" fill="#dd990e"/>
        <ellipse id="Ellipse_17" data-name="Ellipse 17" cx="34.96" cy="20.19" rx="34.96" ry="20.19" transform="translate(109.39 375.59)" fill="#f9cb07"/>
        <path id="Path_636" data-name="Path 636" d="M169.33,396.41c-.35,3.4-2.77,6.75-7.28,9.35-9.78,5.64-25.62,5.64-35.4,0-4.51-2.6-6.93-5.95-7.28-9.35-.42-4,2-8.05,7.28-11.08,9.78-5.65,25.62-5.65,35.4,0C167.32,388.36,169.75,392.43,169.33,396.41Z" fill="#cc8b09"/>
        <path id="Path_637" data-name="Path 637" d="M169.33,396.41c-.35,3.4-2.77,6.75-7.28,9.35-9.78,5.64-25.62,5.64-35.4,0-4.51-2.6-6.93-5.95-7.28-9.35.35-3.4,2.77-6.75,7.28-9.35,9.78-5.65,25.62-5.65,35.4,0C166.56,389.66,169,393,169.33,396.41Z" fill="#e8a30a"/>
        <path id="Path_638" data-name="Path 638" d="M144,391.68a5.119,5.119,0,0,0-.92.07c-.41.06-.87.14-1.38.25s-1,.25-1.59.41a11.332,11.332,0,0,0-1.57.6l4,2.32.72-.26c1-.34,2-.62,2.89-.86a13.389,13.389,0,0,1,2.61-.43,9,9,0,0,1,2.39.16,7.65,7.65,0,0,1,2.29.89,4.579,4.579,0,0,1,1.73,1.52,2.07,2.07,0,0,1,.26,1.57,3.49,3.49,0,0,1-.94,1.55,9.668,9.668,0,0,1-1.84,1.45l2.56,1.48-1.4.8-2.58-1.48a20.847,20.847,0,0,1-3.83,1.44,25.83,25.83,0,0,1-4.23.8l-1.35-2.42a10.607,10.607,0,0,0,1.13-.09,14.15,14.15,0,0,0,1.68-.29c.62-.13,1.28-.3,2-.5a13.417,13.417,0,0,0,2-.73l-4-2.31a4.559,4.559,0,0,1-.52.18l-.55.17a28.033,28.033,0,0,1-2.76.78,13.156,13.156,0,0,1-2.36.32,8.21,8.21,0,0,1-2.08-.2,7,7,0,0,1-1.93-.78,4.86,4.86,0,0,1-1.67-1.43,2.43,2.43,0,0,1-.45-1.55,2.79,2.79,0,0,1,.66-1.57,7.1,7.1,0,0,1,1.62-1.47l-2.37-1.37,1.4-.81,2.34,1.36a16.869,16.869,0,0,1,3.46-1.27,24.2,24.2,0,0,1,3.45-.62Zm-6.83,4.21a2.9,2.9,0,0,0,1.74.38,11.5,11.5,0,0,0,2.4-.54l-3.77-2.17q-2.09,1.35-.39,2.33Zm13.2,1.1a3.05,3.05,0,0,0-1.88-.33,15.612,15.612,0,0,0-2.63.57l3.74,2.16q2.37-1.455.75-2.39Z" fill="#cc8b09"/>
        <path id="Path_639" data-name="Path 639" d="M141.82,401.54v-1.36l1.54,1-.67,1Z" fill="#cc8b09"/>
        <path id="Path_640" data-name="Path 640" d="M155.21,402.4v-1.36l-3.33.26,1.91,1.3Z" fill="#cc8b09"/>
        <path id="Path_641" data-name="Path 641" d="M155.49,397.42v-1.37l-2.49.9Z" fill="#cc8b09"/>
        <path id="Path_642" data-name="Path 642" d="M145.18,397.35l.82-.79,2.92,2-.18.59s-2.18-.92-2.25-1S145.18,397.35,145.18,397.35Z" fill="#cc8b09"/>
        <path id="Path_643" data-name="Path 643" d="M137.53,393.08l3.88,2.2.79-.58-.52-.61a4.93,4.93,0,0,0-1.21-1c-.29-.05-2.13-.88-2.13-.88Z" fill="#cc8b09"/>
        <path id="Path_644" data-name="Path 644" d="M143.98,391.68v-1.36l-1.78-.57-.38,1.06.09.49Z" fill="#cc8b09"/>
        <path id="Path_645" data-name="Path 645" d="M132.15,390.7v-1.36l2.07.22-.67,1.32Z" fill="#cc8b09"/>
        <path id="Path_646" data-name="Path 646" d="M132.23,395.3v-1.41h2.37l-.58,1.26-1,1.13Z" fill="#cc8b09"/>
        <path id="Path_647" data-name="Path 647" d="M144,390.32a5.355,5.355,0,0,0-.92.08c-.41.06-.87.14-1.38.25s-1,.24-1.59.4a12.756,12.756,0,0,0-1.57.6l4,2.32.72-.25c1-.34,2-.63,2.89-.87a14.187,14.187,0,0,1,2.61-.43,9.431,9.431,0,0,1,2.39.16,7.681,7.681,0,0,1,2.29.9,4.58,4.58,0,0,1,1.73,1.52,2.07,2.07,0,0,1,.26,1.57,3.54,3.54,0,0,1-.94,1.55,10.08,10.08,0,0,1-1.84,1.45l2.56,1.47-1.4.81-2.58-1.49a21.61,21.61,0,0,1-3.83,1.45,25.812,25.812,0,0,1-4.23.79l-1.35-2.42a8.069,8.069,0,0,0,1.13-.08c.5-.06,1.06-.16,1.68-.29s1.28-.3,2-.5a14.707,14.707,0,0,0,2-.74l-4-2.3-.52.18-.55.17a26.919,26.919,0,0,1-2.76.77,12.31,12.31,0,0,1-2.36.32,8.22,8.22,0,0,1-2.08-.19,7.669,7.669,0,0,1-1.93-.78,5,5,0,0,1-1.67-1.44,2.41,2.41,0,0,1-.45-1.55,2.79,2.79,0,0,1,.66-1.56,7.13,7.13,0,0,1,1.62-1.48l-2.37-1.37,1.4-.8,2.34,1.35a17.45,17.45,0,0,1,3.46-1.26,25.787,25.787,0,0,1,3.45-.63Zm-6.83,4.22a2.9,2.9,0,0,0,1.74.37,11.39,11.39,0,0,0,2.4-.53l-3.77-2.18c-1.4.91-1.54,1.68-.39,2.34Zm13.2,1.1a3,3,0,0,0-1.88-.34,14.812,14.812,0,0,0-2.63.58l3.74,2.16q2.37-1.47.75-2.4Z" fill="#f9ca06"/>
      </g>
      <g id="Coin-5" data-name="Coin" transform="translate(3706 7456)">
        <ellipse id="Ellipse_18" data-name="Ellipse 18" cx="34.96" cy="20.19" rx="34.96" ry="20.19" transform="translate(107.24 373.88)" fill="#dd990e"/>
        <path id="Path_648" data-name="Path 648" d="M107.25,394.38v-9.2l6.91,6.15Z" fill="#dd990e"/>
        <path id="Path_649" data-name="Path 649" d="M177.17,385.42v8.65l-3.54,3.75-1.73-9.9Z" fill="#dd990e"/>
        <ellipse id="Ellipse_19" data-name="Ellipse 19" cx="34.96" cy="20.19" rx="34.96" ry="20.19" transform="translate(107.24 365.23)" fill="#f9cb07"/>
        <path id="Path_650" data-name="Path 650" d="M167.19,386.05c-.36,3.4-2.78,6.74-7.29,9.35-9.77,5.64-25.62,5.64-35.4,0-4.5-2.61-6.92-5.95-7.27-9.35-.42-4,2-8.05,7.27-11.09,9.78-5.65,25.63-5.65,35.4,0C165.17,378,167.6,382.07,167.19,386.05Z" fill="#cc8b09"/>
        <path id="Path_651" data-name="Path 651" d="M167.19,386.05c-.36,3.4-2.78,6.74-7.29,9.35-9.77,5.64-25.62,5.64-35.4,0-4.5-2.61-6.92-5.95-7.27-9.35.35-3.4,2.77-6.75,7.27-9.36,9.78-5.65,25.63-5.65,35.4,0C164.41,379.3,166.83,382.65,167.19,386.05Z" fill="#e8a30a"/>
        <path id="Path_652" data-name="Path 652" d="M141.84,381.32a5.119,5.119,0,0,0-.92.07c-.41.06-.87.14-1.38.25s-1,.24-1.6.41a10.712,10.712,0,0,0-1.56.59l4,2.33.72-.26c1-.34,2-.63,2.89-.87a13.25,13.25,0,0,1,2.6-.42,9.072,9.072,0,0,1,2.4.16,7.491,7.491,0,0,1,2.29.89A4.66,4.66,0,0,1,153,386a2.06,2.06,0,0,1,.25,1.57,3.45,3.45,0,0,1-.94,1.55,10.08,10.08,0,0,1-1.84,1.45l2.56,1.48-1.39.8-2.58-1.49a20.691,20.691,0,0,1-3.84,1.45,24.43,24.43,0,0,1-4.23.79l-1.34-2.41a10.461,10.461,0,0,0,1.12-.09,16.227,16.227,0,0,0,1.69-.29c.62-.13,1.27-.3,2-.5a14.191,14.191,0,0,0,2-.73l-4-2.31-.52.18-.55.17c-1,.33-1.93.59-2.77.78a12.869,12.869,0,0,1-2.36.31,8.309,8.309,0,0,1-2.08-.19,6.81,6.81,0,0,1-1.92-.78,4.93,4.93,0,0,1-1.68-1.44,2.41,2.41,0,0,1-.45-1.55,2.94,2.94,0,0,1,.66-1.56,7.15,7.15,0,0,1,1.63-1.47L130,380.34l1.39-.81,2.35,1.36a16.791,16.791,0,0,1,3.45-1.27,25.782,25.782,0,0,1,3.45-.63ZM135,385.53a2.91,2.91,0,0,0,1.75.37,11.447,11.447,0,0,0,2.39-.53l-3.76-2.18Q133.31,384.56,135,385.53Zm13.2,1.1a3,3,0,0,0-1.88-.34,15.669,15.669,0,0,0-2.62.58l3.74,2.16C149,388.06,149.29,387.25,148.2,386.63Z" fill="#cc8b09"/>
        <path id="Path_653" data-name="Path 653" d="M139.68,391.18v-1.36l1.53,1-.67,1Z" fill="#cc8b09"/>
        <path id="Path_654" data-name="Path 654" d="M153.06,392.04v-1.36l-3.32.26,1.91,1.3Z" fill="#cc8b09"/>
        <path id="Path_655" data-name="Path 655" d="M153.34,387.06v-1.37l-2.49.9Z" fill="#cc8b09"/>
        <path id="Path_656" data-name="Path 656" d="M143,387l.83-.8,2.92,2-.18.6s-2.18-.92-2.25-1Z" fill="#cc8b09"/>
        <path id="Path_657" data-name="Path 657" d="M135.39,382.72l3.87,2.19.8-.57-.53-.61a4.678,4.678,0,0,0-1.2-1c-.29-.06-2.13-.88-2.13-.88Z" fill="#cc8b09"/>
        <path id="Path_658" data-name="Path 658" d="M141.84,381.32v-1.36l-1.78-.58-.38,1.06.09.49Z" fill="#cc8b09"/>
        <path id="Path_659" data-name="Path 659" d="M130.01,380.34v-1.36l2.06.22-.66,1.32Z" fill="#cc8b09"/>
        <path id="Path_660" data-name="Path 660" d="M130.08,384.94v-1.41h2.36l-.58,1.26-1,1.13Z" fill="#cc8b09"/>
        <path id="Path_661" data-name="Path 661" d="M141.84,380a6.273,6.273,0,0,0-.92.07c-.41.06-.87.14-1.38.25s-1,.25-1.6.41a12,12,0,0,0-1.56.6l4,2.32.72-.26c1-.33,2-.62,2.89-.86a13.288,13.288,0,0,1,2.6-.43,9.068,9.068,0,0,1,2.4.16,8,8,0,0,1,2.29.89,4.679,4.679,0,0,1,1.73,1.53,2.06,2.06,0,0,1,.25,1.57,3.45,3.45,0,0,1-.94,1.55,9.641,9.641,0,0,1-1.84,1.44l2.56,1.48-1.39.81L149.09,390a21.417,21.417,0,0,1-3.84,1.45,26.493,26.493,0,0,1-4.23.79l-1.34-2.42a10.484,10.484,0,0,0,1.12-.09,16,16,0,0,0,1.69-.28c.62-.14,1.27-.31,2-.51a13,13,0,0,0,2-.73l-4-2.31-.52.19-.55.16c-1,.33-1.93.59-2.77.78a12.922,12.922,0,0,1-2.36.32,8.3,8.3,0,0,1-2.08-.2,6.81,6.81,0,0,1-1.92-.78,4.81,4.81,0,0,1-1.68-1.43,2.43,2.43,0,0,1-.45-1.55,2.9,2.9,0,0,1,.66-1.56,7.171,7.171,0,0,1,1.63-1.48L130,379l1.39-.8,2.35,1.35a17.39,17.39,0,0,1,3.45-1.27,25.689,25.689,0,0,1,3.45-.62ZM135,384.17a2.92,2.92,0,0,0,1.75.38,11,11,0,0,0,2.39-.54l-3.76-2.17Q133.31,383.19,135,384.17Zm13.2,1.1a3,3,0,0,0-1.88-.33,15.53,15.53,0,0,0-2.62.57l3.74,2.16c1.56-.97,1.85-1.77.76-2.4Z" fill="#f9ca06"/>
      </g>
      <g id="Coin-6" data-name="Coin" transform="translate(3706 7456)">
        <ellipse id="Ellipse_26" data-name="Ellipse 26" cx="34.96" cy="20.19" rx="34.96" ry="20.19" transform="translate(191.16 454.43)" fill="#dd990e"/>
        <path id="Path_690" data-name="Path 690" d="M191.17,474.93v-9.2l6.91,6.15Z" fill="#dd990e"/>
        <path id="Path_691" data-name="Path 691" d="M261.09,465.97v8.65l-3.53,3.75-1.73-9.9Z" fill="#dd990e"/>
        <ellipse id="Ellipse_27" data-name="Ellipse 27" cx="34.96" cy="20.19" rx="34.96" ry="20.19" transform="translate(191.16 445.78)" fill="#f9cb07"/>
        <path id="Path_692" data-name="Path 692" d="M251.11,466.6c-.35,3.4-2.78,6.75-7.28,9.35-9.78,5.64-25.63,5.64-35.4,0-4.51-2.6-6.93-5.95-7.28-9.35-.42-4,2-8.05,7.28-11.08,9.77-5.65,25.62-5.65,35.4,0C249.1,458.55,251.53,462.62,251.11,466.6Z" fill="#cc8b09"/>
        <path id="Path_693" data-name="Path 693" d="M251.11,466.6c-.35,3.4-2.78,6.75-7.28,9.35-9.78,5.64-25.63,5.64-35.4,0-4.51-2.6-6.93-5.95-7.28-9.35.35-3.4,2.77-6.75,7.28-9.35,9.77-5.65,25.62-5.65,35.4,0C248.33,459.85,250.76,463.2,251.11,466.6Z" fill="#e8a30a"/>
        <path id="Path_694" data-name="Path 694" d="M225.76,461.87a5.119,5.119,0,0,0-.92.07c-.41.06-.87.14-1.38.25s-1,.24-1.59.41a10.86,10.86,0,0,0-1.57.6l4,2.32.72-.26c1-.34,2-.63,2.89-.86a13.391,13.391,0,0,1,2.61-.43,9,9,0,0,1,2.39.16,7.649,7.649,0,0,1,2.29.89,4.58,4.58,0,0,1,1.73,1.52,2,2,0,0,1,.25,1.57,3.4,3.4,0,0,1-.94,1.55,9.279,9.279,0,0,1-1.83,1.45l2.55,1.48-1.39.8L233,471.9a20.16,20.16,0,0,1-3.83,1.45,24.791,24.791,0,0,1-4.23.79l-1.35-2.41a10.616,10.616,0,0,0,1.13-.09,16.545,16.545,0,0,0,1.68-.29c.62-.13,1.27-.3,2-.5a13.558,13.558,0,0,0,2-.73l-4-2.31c-.17.06-.34.13-.52.18l-.55.17c-1,.33-1.93.59-2.76.78a12.252,12.252,0,0,1-2.36.31,7.789,7.789,0,0,1-2.08-.19,6.871,6.871,0,0,1-1.93-.78,4.869,4.869,0,0,1-1.67-1.43,2.38,2.38,0,0,1-.46-1.55,2.93,2.93,0,0,1,.66-1.57,7.149,7.149,0,0,1,1.63-1.47l-2.37-1.37,1.4-.81,2.34,1.36a16.792,16.792,0,0,1,3.45-1.27,24.457,24.457,0,0,1,3.45-.62Zm-6.83,4.21a2.89,2.89,0,0,0,1.74.38,12.111,12.111,0,0,0,2.39-.54l-3.76-2.17Q217.23,465.1,218.93,466.08Zm13.2,1.1a3.07,3.07,0,0,0-1.89-.33,15.739,15.739,0,0,0-2.62.57l3.74,2.16c1.64-.97,1.85-1.77.77-2.4Z" fill="#cc8b09"/>
        <path id="Path_695" data-name="Path 695" d="M223.6,471.73v-1.36l1.53,1-.66,1Z" fill="#cc8b09"/>
        <path id="Path_696" data-name="Path 696" d="M236.98,472.59v-1.36l-3.32.26,1.91,1.3Z" fill="#cc8b09"/>
        <path id="Path_697" data-name="Path 697" d="M237.26,467.61v-1.37l-2.48.9Z" fill="#cc8b09"/>
        <path id="Path_698" data-name="Path 698" d="M227,467.54l.83-.79,2.92,2-.18.59s-2.18-.92-2.25-1S227,467.54,227,467.54Z" fill="#cc8b09"/>
        <path id="Path_699" data-name="Path 699" d="M219.31,463.27l3.88,2.2.79-.58s-.49-.56-.52-.61a4.93,4.93,0,0,0-1.21-1c-.29-.06-2.13-.88-2.13-.88Z" fill="#cc8b09"/>
        <path id="Path_700" data-name="Path 700" d="M225.76,461.87v-1.36l-1.78-.58L223.6,461l.09.48Z" fill="#cc8b09"/>
        <path id="Path_701" data-name="Path 701" d="M213.93,460.89v-1.36l2.07.22-.67,1.32Z" fill="#cc8b09"/>
        <path id="Path_702" data-name="Path 702" d="M214,465.49v-1.41h2.36l-.57,1.26-1,1.13Z" fill="#cc8b09"/>
        <path id="Path_703" data-name="Path 703" d="M225.76,460.51a5.359,5.359,0,0,0-.92.08q-.61.09-1.38.24c-.51.11-1,.25-1.59.41a12.166,12.166,0,0,0-1.57.6l4,2.32.72-.25c1-.34,2-.63,2.89-.87a14.189,14.189,0,0,1,2.61-.43,9.461,9.461,0,0,1,2.39.16,7.682,7.682,0,0,1,2.29.9,4.58,4.58,0,0,1,1.73,1.52,2,2,0,0,1,.25,1.57,3.45,3.45,0,0,1-.94,1.55,9.659,9.659,0,0,1-1.83,1.45l2.55,1.47-1.39.81L233,470.55a21.612,21.612,0,0,1-3.83,1.45,25.808,25.808,0,0,1-4.23.79l-1.35-2.42a10,10,0,0,0,1.13-.08c.5-.06,1.06-.16,1.68-.29s1.27-.3,2-.5a14.846,14.846,0,0,0,2-.74l-4-2.3-.52.18-.55.17a27.643,27.643,0,0,1-2.76.77,12.309,12.309,0,0,1-2.36.32,7.779,7.779,0,0,1-2.08-.2,7.139,7.139,0,0,1-1.93-.77,4.891,4.891,0,0,1-1.67-1.44,2.38,2.38,0,0,1-.46-1.55,2.94,2.94,0,0,1,.66-1.56,7.41,7.41,0,0,1,1.63-1.48l-2.37-1.37,1.4-.8,2.34,1.35a17.36,17.36,0,0,1,3.45-1.26,26.071,26.071,0,0,1,3.45-.63Zm-6.83,4.22a2.88,2.88,0,0,0,1.74.37,10.827,10.827,0,0,0,2.39-.54l-3.76-2.17Q217.23,463.74,218.93,464.73Zm13.2,1.1a3,3,0,0,0-1.89-.34,14.921,14.921,0,0,0-2.62.58l3.74,2.16c1.64-.98,1.85-1.78.77-2.4Z" fill="#f9ca06"/>
      </g>
      <g id="Girl_10" transform="translate(3706 7456)">
        <path id="_Контур_" data-name="&lt;Контур&gt;" d="M402.91,207.24c1.95-3.13,16.84-5.19,21.74,7.43,1.86,4.78,1.57,17,3.12,24.69s5.22,12,6.53,18.27-.83,16.69-15.85,18.53-26.57-3.43-30.12-8.22-3.62-15,.07-20.43,6.48-9.91,6.39-17Z" fill="#3a2c6d"/>
        <path id="Path_704" data-name="Path 704" d="M385.07,260s-3.53,24.9,3.14,42.6,4.82-4.56,4.82-4.56l-1.6-5.29s-1.34-20.36-.79-25.35.42-9.28.79-9.68-1.33-1.19-2-1.29S385.07,260,385.07,260Z" fill="#ffcea9"/>
        <path id="_Контур_2" data-name="&lt;Контур&gt;" d="M412.74,205.06s-11.21-3.23-18,2.83c-6.21,5.54-5.69,13.08-4.79,16.62s2.72,8.37,5.53,8.64S412.74,205.06,412.74,205.06Z" fill="#3a2c6d"/>
        <path id="_Контур_3" data-name="&lt;Контур&gt;" d="M417,235.64s-.74,12.5-.51,13.42,4.91,1.8,6.22,2.89-6.8,13.77-10.92,15.65-16.89-2.92-17.77-9.27c-.82-5.85,3.65-10.39,5.37-12a28.243,28.243,0,0,1,3.52-.09l.38-6.06C408.91,238.43,417,235.64,417,235.64Z" fill="#ffcea9"/>
        <path id="_Контур_4" data-name="&lt;Контур&gt;" d="M418.74,250.27c3.51.54,7.53,2.42,8.08,4.34.64,2.24,2,12.81-1,20.86a178.693,178.693,0,0,1-6.83,16.62s-15.19,6.52-27.44-1.08c0,0-.84-8.62-.9-13.23-11.3-9.86-1.64-22,7.94-31.47a19.92,19.92,0,0,1,3.45-.05s-8.55,10.11-2.61,15.85C412.14,258.26,414.67,252.55,418.74,250.27Z" fill="#f4f4f4"/>
        <path id="_Контур_5" data-name="&lt;Контур&gt;" d="M393.68,220.16h0c1.26-8,7.06-14.1,15.34-13.61a15.91,15.91,0,0,1,8,29.09,15.79,15.79,0,0,1-1.28,3.51c-2.94,3.42-10.72,5.58-13.29,5.62-2.23,0-4.14-2.05-6.23-5.5C391.9,232.08,393,224.12,393.68,220.16Z" fill="#ffcea9"/>
        <path id="Path_705" data-name="Path 705" d="M411.59,206.7c5.81,1.13,10.58,2.77,12.16,8.47,1.08,3.93,2.49,11.41,1.15,14.57l-.84,2.28-7,3.62s-3.28-2.73-2.26-10.75a5.7,5.7,0,0,0-1-3,8.629,8.629,0,0,1-1-2.42,9,9,0,0,0-4.56-4.93c-5.23-2.94-12.9-.4-14,.66C397.81,207.9,404.83,205.38,411.59,206.7Z" fill="#3a2c6d"/>
        <path id="Path_706" data-name="Path 706" d="M422.14,459.79c-2.94,2.39-7.51.74-7.73.95-3,3-7.45,5.61-10.77,8.23-1.83,1.44-4.68,3.37-4.17,6.14.93,4.95,8.86,3.43,11.85,1.91s5.43-4,8.26-5.78c2-1.26,4-1.91,4.32-4.46C424.09,465.24,422.66,459.73,422.14,459.79Z" fill="#38226d"/>
        <path id="Path_707" data-name="Path 707" d="M423.86,465.76c-.39,2.44-2.35,3.11-4.35,4.35-2.88,1.79-5.41,4.37-8.4,5.88-2.76,1.4-9.66,2.79-11.6-.74,1.06,4.77,8.85,3.27,11.81,1.77s5.43-4,8.26-5.78c2-1.26,4-1.91,4.32-4.46a4.689,4.689,0,0,0-.04-1.02Z" fill="#9c73ff"/>
        <path id="Path_708" data-name="Path 708" d="M401.52,455.67c-2.69,2.19-6.75,1-6.95,1.16-2.74,2.75-6.8,5.11-9.84,7.5-1.68,1.32-4.3,3.09-3.83,5.62.85,4.54,8.11,3.14,10.85,1.76s5-3.69,7.57-5.3c1.85-1.15,3.67-1.75,4-4.08C403.45,460.92,402,455.61,401.52,455.67Z" fill="#38226d"/>
        <path id="Path_709" data-name="Path 709" d="M403.24,461.39c-.35,2.23-2.15,2.85-4,4-2.64,1.64-5,4-7.7,5.38-2.53,1.29-8.84,2.56-10.62-.68,1,4.37,8.1,3,10.81,1.63s5-3.69,7.57-5.3c1.85-1.15,3.67-1.75,4-4.08A4,4,0,0,0,403.24,461.39Z" fill="#9c73ff"/>
        <path id="Path_710" data-name="Path 710" d="M385.68,318.94c1.29-10.13,5-24.85,5-24.85A29.85,29.85,0,0,0,402,296.88c6.54.33,17-1.65,17-1.65a104.438,104.438,0,0,0,6,9.27c2.92,4.05,8.6,12.94,7.23,28.47-.9,10.15-6.58,53.24-6.58,53.24a80.571,80.571,0,0,1,3.49,22.35c-.06,6.27-1.71,16.92-3.56,26.77l-3.39,24.46s-4.51,3.26-7.73.95l.41-23.93c-.4-5.86-1-14.5-1.35-20-.61-9-2.22-23.26-2.68-26.83s-1.61-9.79-2.15-16.77-3.18-42.45-3.18-42.45l-.36,6.64s-.35,10.79-1.9,24.09-2.09,19.21-2.09,19.21,2.69,4.95,3,8.59c.27,2.88,3.56,25.63,1.6,37.2l-4,29.42a7.73,7.73,0,0,1-7,.92l-2.37-29.65c-1.59-11.29-5-35.21-5.48-38.32-.68-4.09-1.24-6.11-2-19S384.38,329.07,385.68,318.94Z" fill="#ffcea9"/>
        <path id="Path_711" data-name="Path 711" d="M419,292.09l8.72,17.53s13.32,19.49-.48,69.6l2.59,15.46s-26.12,16.76-43.6,0c0,0-6.06-46.31-2.84-67.66a245.991,245.991,0,0,1,8.14-36.28s4.28,4.73,26.31,1.61" fill="#8c50ff"/>
        <path id="_Контур_6" data-name="&lt;Контур&gt;" d="M364.34,304.54c2,.38,3.91-.05,6.71.71a21.45,21.45,0,0,0,6.47,1c2.38,0,9.06-3.33,14.79-7.35,6.75-4.73,13.45-12.9,15.87-16.83,5.21-8.48,10.2-17.23,11.74-21.71,1.84-5.38,1.8-1.72,5-1.8,3.73-.09,5.74,1.28,2.94,8.58s-5.35,12.38-11.59,21a69.09,69.09,0,0,1-16.69,16.66,86.711,86.711,0,0,1-18.32,9.79c-1.87.77-3.06,1.8-6.45,3.68a24,24,0,0,1-11,3.16c-3.24-.08-4.4-.62-4.67-1.28-.34-.83.29-1.4,1.77-1.54a19.57,19.57,0,0,0,6.91-1.37s-3.23.46-5.18.56a19.62,19.62,0,0,1-5.19-.41c-1.64-.39-2.56-2.71-1.07-2.89s2.69.1,5.59-.09a19.391,19.391,0,0,0,4.52-.83,35.707,35.707,0,0,1-5.79-.42,8.13,8.13,0,0,1-4.27-1.71c-.63-.52-.74-2,1.14-2,1.69,0,3.81.78,7,.34,2.35-.33,4-.88,3.6-1.19s-1.73,0-3.67-.71-3.3-2.41-2.85-3.43S362.32,304.17,364.34,304.54Z" fill="#ffcea9"/>
        <path id="Path_712" data-name="Path 712" d="M426.13,274.06s-8.55.45-13.41-4.91l5.27-11s2.43-6.09,8.13-4.59S431.91,263.08,426.13,274.06Z" fill="#ededed"/>
        <path id="Path_713" data-name="Path 713" d="M398.58,246.31s-6.94-2.12-14.31,13.25l2.76,1.66S394.28,250.25,398.58,246.31Z" fill="#ededed"/>
      </g>
      <path id="Path_715" data-name="Path 715" d="M146.05,299.33c-40.66-23.47-73.73-80.76-73.73-127.7s33.07-66,73.73-42.56,73.73,80.75,73.73,127.7S186.7,322.8,146.05,299.33Zm0-155c-33.38-19.27-60.54-3.59-60.54,34.95s27.16,85.57,60.54,104.84,60.53,3.6,60.53-34.94-27.15-85.61-60.53-104.88Z" transform="translate(3706 7456)" fill="#d33d3d"/>
      <path id="Path_716" data-name="Path 716" d="M83.82,129.6l13.51-7.38-2.02,9.26Z" transform="translate(3706 7456)" fill="#d33d3d"/>
      <path id="Path_717" data-name="Path 717" d="M185.62,311.28c.33-.15,14.77-8.23,14.77-8.23l-11.16-1.79Z" transform="translate(3706 7456)" fill="#d33d3d"/>
      <ellipse id="Ellipse_29" data-name="Ellipse 29" cx="54.81" cy="94.94" rx="54.81" ry="94.94" transform="translate(3747.697 7620.608) rotate(-30)" fill="#f4f4f4"/>
      <path id="Path_718" data-name="Path 718" d="M136.64,304.56C96,281.08,62.91,223.8,62.91,176.85s33.08-66,73.73-42.56,73.73,80.76,73.73,127.7S177.3,328,136.64,304.56Zm0-155c-33.37-19.27-60.53-3.6-60.53,34.94s27.16,85.58,60.53,104.85,60.54,3.59,60.54-34.95S170,168.8,136.64,149.53Z" transform="translate(3706 7456)" fill="#ff4d4d"/>
      <path id="Path_719" data-name="Path 719" d="M136.64,272.16C111.46,257.62,91,222.13,91,193.05s20.49-40.91,45.67-26.37,45.68,50,45.68,79.11S161.83,286.71,136.64,272.16Zm0-90.24c-17.91-10.34-32.48-1.93-32.48,18.75s14.57,45.92,32.48,56.26,32.48,1.92,32.48-18.76-14.57-45.91-32.48-56.25Z" transform="translate(3706 7456)" fill="#ff4d4d"/>
      <path id="Path_720" data-name="Path 720" d="M136.64,240.28c-10-5.75-18.06-19.79-18.06-31.29s8.1-16.18,18.06-10.43,18.07,19.79,18.07,31.29S146.61,246,136.64,240.28Zm0-26.48c-2.68-1.55-4.87-.29-4.87,2.81a10.79,10.79,0,0,0,4.87,8.43c2.69,1.55,4.87.29,4.87-2.81a10.76,10.76,0,0,0-4.87-8.43Z" transform="translate(3706 7456)" fill="#ff4d4d"/>
      <ellipse id="Ellipse_31" data-name="Ellipse 31" cx="1.41" cy="2.44" rx="1.41" ry="2.44" transform="translate(3840.515 7674.634) rotate(-30)" fill="#e8a30a"/>
      <path id="Path_723" data-name="Path 723" d="M14,294c.15-.13,124.15-71.81,124.15-71.81l-2.28-4.3-124.38,72Z" transform="translate(3706 7456)" fill="#e8a30a"/>
    </g>
  </g>
</svg>
