<svg xmlns="http://www.w3.org/2000/svg" width="54.202" height="76.896" viewBox="0 0 54.202 76.896">
  <g id="ljtech" transform="translate(0 0.002)">
    <path id="Path_152" data-name="Path 152" d="M27.095,76.894a5.394,5.394,0,0,1-3.617-1.4L1.789,55.992A5.457,5.457,0,0,1,0,52.032V24.925A5.432,5.432,0,0,1,1.789,20.9L23.478,1.4a5.394,5.394,0,0,1,7.246,0L52.4,20.889a5.444,5.444,0,0,1,1.8,4.036V52.032a5.432,5.432,0,0,1-1.8,4.023L30.724,75.5a5.406,5.406,0,0,1-3.63,1.4ZM2.716,21.93a4.023,4.023,0,0,0-1.269,3V52.032a4.023,4.023,0,0,0,1.333,3L24.4,74.47a4.023,4.023,0,0,0,5.394,0L51.474,54.964a4.036,4.036,0,0,0,1.345-2.932V24.925a4.036,4.036,0,0,0-1.345-3L29.8,2.424a4.023,4.023,0,0,0-5.394,0Z" fill="#ddd"/>
  </g>
</svg>
