<svg xmlns="http://www.w3.org/2000/svg" x="0px" y="0px"
width="30" height="30"
viewBox="0 0 226 226"
style=" fill:#202124;"><g fill="none" fill-rule="nonzero" stroke="none" stroke-width="1" stroke-linecap="butt" stroke-linejoin="miter" stroke-miterlimit="10" stroke-dasharray="" stroke-dashoffset="0" font-family="none" font-weight="none" font-size="none" text-anchor="none" style="mix-blend-mode: normal"><path d="M0,226v-226h226v226z" fill="none"></path><g fill="#202124"><path d="M113,0c-62.40425,0 -113,50.59575 -113,113c0,56.65067 41.73467,103.43267 96.1065,111.60633v-81.66133h-27.95808v-29.70017h27.95808v-19.76558c0,-32.72292 15.94242,-47.08333 43.13775,-47.08333c13.02325,0 19.91625,0.96992 23.17442,1.40308v25.92408h-18.55083c-11.54483,0 -15.57517,10.95158 -15.57517,23.28742v16.23433h33.83408l-4.58592,29.70017h-29.24817v81.89675c55.15342,-7.47683 97.70733,-54.6355 97.70733,-111.84175c0,-62.40425 -50.59575,-113 -113,-113z"></path></g></g></svg>