<svg xmlns="http://www.w3.org/2000/svg" x="0px" y="0px"
width="30" height="30"
viewBox="0 0 226 226"
style=" fill:#fcfcfc;"><g fill="none" fill-rule="nonzero" stroke="none" stroke-width="1" stroke-linecap="butt" stroke-linejoin="miter" stroke-miterlimit="10" stroke-dasharray="" stroke-dashoffset="0" font-family="none" font-weight="none" font-size="none" text-anchor="none" style="mix-blend-mode: normal"><path d="M0,226v-226h226v226z" fill="none"></path><g fill="#fcfcfc"><path d="M205.29069,0h-184.58138c-11.29265,0 -20.70931,9.41667 -20.70931,20.70931v184.58138c0,11.29265 9.41667,20.70931 20.70931,20.70931h184.58138c11.29265,0 20.70931,-9.41667 20.70931,-20.70931v-184.58138c0,-11.29265 -9.41667,-20.70931 -20.70931,-20.70931zM65.91667,188.33333h-37.66667v-103.58333h37.66667zM47.08333,72.50098c-11.29265,0 -18.83333,-7.54069 -18.83333,-16.95735c0,-10.33627 7.54069,-17.87696 18.83333,-17.87696c11.29265,0 18.83333,7.54069 18.83333,16.95735c0,10.33627 -7.54069,17.87696 -18.83333,17.87696zM197.75,188.33333h-37.66667v-56.5c0,-15.08138 -10.37304,-18.83333 -13.16862,-18.83333c-2.83236,0 -15.08138,1.87598 -15.08138,18.83333c0,1.87598 0,56.5 0,56.5h-37.66667v-103.58333h37.66667v15.08138c5.66472,-8.49707 15.08138,-15.08138 32.95833,-15.08138c17.87696,0 32.95833,14.125 32.95833,47.08333z"></path></g></g></svg>