<svg xmlns="http://www.w3.org/2000/svg" x="0px" y="0px"
width="30" height="30"
viewBox="0 0 226 226"
style=" fill:#202124;"><g fill="none" fill-rule="nonzero" stroke="none" stroke-width="1" stroke-linecap="butt" stroke-linejoin="miter" stroke-miterlimit="10" stroke-dasharray="" stroke-dashoffset="0" font-family="none" font-weight="none" font-size="none" text-anchor="none" style="mix-blend-mode: normal"><path d="M0,226v-226h226v226z" fill="none"></path><g fill="#202124"><path d="M226,40.49902c-8.46028,3.75196 -16.95735,6.58431 -26.37402,7.5407c9.41667,-5.66472 16.95735,-15.08138 20.70931,-25.45443c-9.41667,5.66471 -18.83333,9.41667 -29.1696,11.32943c-9.41667,-9.41667 -21.66569,-15.08138 -34.8343,-15.08138c-25.45443,0 -46.16374,20.70931 -46.16374,46.12696c0,3.78873 0,7.54069 0.95638,10.37304c-38.62304,-1.87598 -72.50097,-19.78971 -95.12304,-48.03971c-4.70833,6.62109 -6.58431,15.08138 -6.58431,23.54167c0,16.03776 8.46029,30.16276 20.70931,38.62304c-7.54069,-0.95638 -15.04459,-2.83235 -20.70931,-5.66471c0,0 0,0 0,0.95638c0,22.58529 16.00098,41.41862 36.71029,45.20735c-3.75196,0.9196 -7.50391,1.87598 -12.21224,1.87598c-2.83236,0 -5.66472,0 -8.49707,-0.95638c5.66471,18.83333 22.62207,32.03873 43.33138,32.03873c-16.00097,12.24903 -35.79069,19.75294 -57.45638,19.75294c-3.75196,0 -7.54069,0 -11.29265,-0.9196c20.70931,13.16862 45.20735,20.70931 70.625,20.70931c85.70638,0 131.83333,-70.625 131.83333,-131.83333c0,-1.87598 0,-3.75195 0,-5.66471c9.41667,-6.58431 16.95735,-15.0446 23.54167,-24.46127"></path></g></g></svg>